<svg width="24" height="24" viewBox="0 0 24 24" fill="none" xmlns="http://www.w3.org/2000/svg">
<path d="M13.0907 6.60036V17.4007C13.0911 17.51 13.1204 17.6172 13.1755 17.7107C13.2306 17.8042 13.3094 17.8804 13.4035 17.9312C13.4975 17.982 13.6033 18.0054 13.7093 17.9989C13.8153 17.9925 13.9177 17.9564 14.0052 17.8945L21.5824 12.4943C21.8965 12.2705 21.8965 11.7317 21.5824 11.5073L14.0052 6.10715C13.9178 6.04464 13.8155 6.00798 13.7093 6.00116C13.6031 5.99434 13.4971 6.01762 13.4028 6.06845C13.3085 6.11929 13.2296 6.19576 13.1746 6.28953C13.1196 6.38331 13.0906 6.49081 13.0907 6.60036ZM20.2267 12.0005L14.2564 16.2558V7.74519L20.2267 12.0005Z" fill="#4F769C"/>
<path d="M13.0907 12.5455L2.7271 12.5735C2.57182 12.5735 2.4421 12.5214 2.33791 12.4172C2.23373 12.313 2.18164 12.1833 2.18164 12.028C2.18164 11.8727 2.23373 11.743 2.33791 11.6388C2.4421 11.5346 2.57182 11.4825 2.7271 11.4825L13.0907 11.4545V12.5455Z" fill="#4F769C"/>
</svg>
