<svg width="22" height="22" viewBox="0 0 22 22" fill="none" xmlns="http://www.w3.org/2000/svg">
<path d="M14.1571 6.7214C14.3844 6.42916 14.8327 6.42344 15.1286 6.72085C16.8451 8.44629 19.5 10.6229 19.5 11.5983C19.5 12.5737 17.8201 13.7584 17.0714 14.5246C16.8408 14.7413 16.3178 14.7542 16.1 14.5246C15.8829 14.2948 15.8317 13.8185 16.1 13.5491C16.5857 13.0614 17.0714 12.5737 17.0714 12.5737H6.13806C5.25767 12.5737 4.64466 12.5142 4.3382 12.7556C4.04459 12.9972 4.00658 13.094 3.95714 13.5491C3.91437 13.9442 4.05038 14.3575 4.05116 14.3602C4.05116 14.3602 4.23608 14.9263 4.3382 15.1044C4.4397 15.2825 3.3287 15.7467 2.99742 15.3335C2.90977 15.2241 2.84502 15.0084 2.84502 15.0084C2.84203 14.9995 2.74334 14.7058 2.69168 14.513C2.62855 14.2773 2.59422 14.1439 2.55704 13.903C2.516 13.637 2.5 13.4572 2.5 13.2156C2.5 12.6563 2.49638 12.3227 2.73001 11.8233C2.98994 11.2677 3.47143 10.6229 4.44286 10.6229C8.60173 10.6229 12.9126 10.6229 17.0714 10.6229C17.0714 10.6229 15.1286 8.67211 14.1571 7.69641C13.8604 7.39832 13.9299 7.01363 14.1571 6.7214Z" fill="#4F769C"/>
</svg>
