<svg width="240" height="240" viewBox="0 0 240 240" fill="none" xmlns="http://www.w3.org/2000/svg">
<path d="M126.136 116.566C127.448 115.236 128.728 113.658 130.498 112.792C130.91 112.591 132.774 110.307 133.762 111.21C134.635 112.646 133.898 116.173 134.207 117.843C136.846 117.487 139.212 119.497 141.209 120.996C141.651 121.328 142.331 121.329 142.602 121.919C142.694 123.707 138.916 126.067 137.434 126.774C136.835 126.938 136.178 126.882 135.575 126.772C134.179 128.085 134.608 129.709 134.334 131.411C134.253 131.878 133.957 132.286 133.863 132.748C133.698 133.558 133.903 135.061 132.676 135.012C130.799 134.937 129.791 133.709 129.151 132.073C128.833 131.262 128.591 130.306 128.039 129.639C127.931 129.514 127.252 129.272 127.07 129.206C126.182 129.524 125.509 130.029 124.713 130.404C123.643 130.908 121.889 131.491 120.729 131.725C120.475 131.437 119.389 129.971 119.455 129.659C119.772 128.163 119.574 126.048 120.107 124.695C119.979 123.992 119.844 123.159 119.52 122.526C118.638 120.806 117.488 119.701 117.624 117.631C117.997 117.109 118.23 116.862 118.696 116.41L118.794 116.399C120.217 116.227 121.635 115.379 123.108 115.538C124.193 115.655 125.18 116.06 126.136 116.566ZM120.082 119.394C120.372 120.592 120.887 120.898 121.514 121.916C121.782 122.35 122.05 122.911 122.275 123.377C122.065 124.513 120.784 128.357 121.15 129.255C121.451 129.468 121.842 129.537 122.207 129.635C123.927 129.217 124.059 128.009 125.671 127.619C125.991 127.541 126.391 127.781 126.705 127.773C127.382 127.254 128.08 127.106 128.89 126.852C129.078 127.101 129.2 127.22 129.422 127.443C129.738 127.759 129.749 129.115 130.004 129.553C130.561 130.508 131.394 131.077 132.043 132.033C132.917 130.817 132.419 129.777 132.725 128.802C133.479 126.403 133.673 124.997 136.361 124.942C137.069 124.927 138.283 122.936 139.759 122.662L139.854 122.558C139.737 122.268 136.444 121.624 136.061 121.625C133.917 121.63 133.516 120.489 132.577 118.99C131.866 117.854 132.714 114.265 132.249 114.008C131.596 114.293 130.944 115.005 130.33 115.457C129.618 115.992 128.437 116.489 128.015 117.292C127.786 117.728 127.938 117.845 127.504 118.295C125.916 119.942 124.296 120.496 122.128 119.747L122.232 120.037L122.159 120.124C121.664 120.14 121.375 119.694 120.976 119.386C120.678 119.384 120.38 119.387 120.082 119.394ZM134.652 119.551C135.193 120.081 136.547 120.818 137.293 120.499C137.23 120.259 137.255 120.221 136.956 120.076C136.351 119.781 135.315 119.542 134.652 119.551ZM122.731 117.318C122.512 117.604 122.263 117.911 122.067 118.21C122.796 118.595 122.848 118.651 123.655 118.663C124.24 118.632 124.856 118.608 125.159 118.073C124.311 117.553 123.675 117.56 122.731 117.318Z" fill="#3C4657"/>
<path d="M135.575 126.772L135.528 126.657C135.858 126.25 137.022 126.493 137.434 126.774C136.835 126.938 136.178 126.882 135.575 126.772Z" fill="#3C4657"/>
<path d="M122.168 117.067C122.635 117.164 123.081 117.085 123.558 117.034C124.037 117.342 124.32 117.448 124.85 117.66C125.103 117.76 125.098 117.869 125.159 118.073C124.311 117.553 123.675 117.56 122.731 117.318C122.512 117.604 122.263 117.911 122.067 118.21C122.796 118.595 122.848 118.651 123.655 118.663L123.688 118.729C123.528 118.866 123.311 118.942 123.114 119.029L123.059 118.955L123.272 118.829C123.166 118.836 122.992 118.843 122.894 118.81C121.657 118.4 121.806 118.128 122.168 117.067Z" fill="#3C4657"/>
<path d="M128.89 126.852C129.078 127.101 129.2 127.22 129.422 127.443C128.702 127.869 127.471 128.165 126.705 127.773C127.382 127.254 128.08 127.106 128.89 126.852Z" fill="#3C4657"/>
<path d="M136.73 118.698C137.47 118.788 137.524 118.972 137.745 119.627L137.496 119.612C137.116 119.377 136.871 119.129 136.73 118.698Z" fill="#3C4657"/>
<path d="M89.0785 205.375L89.0105 205.319C88.3086 204.753 88.4783 205.286 87.7557 205.002C87.8169 204.718 87.7542 204.839 87.9507 204.625C88.1585 204.551 88.4104 204.499 88.627 204.579C89.63 204.954 90.6161 205.385 91.6163 205.768C92.3155 206.036 93.0295 206.077 93.7475 206.247C94.3792 206.396 95.0038 206.64 95.6419 206.771C97.2462 207.017 99.0399 207.01 100.656 207.011L100.258 207.085L100.226 207.184C100.407 207.511 100.77 207.671 101.048 207.959C102.004 207.799 102.944 207.858 103.633 207.645C103.942 207.636 104.166 207.692 104.468 207.748L104.915 207.834C105.674 207.897 105.972 208.177 106.682 208.254C108.835 208.486 111.866 208.451 113.951 208.799C115.385 208.783 116.416 209.045 118.072 208.845C118.324 209.009 118.466 208.969 118.784 208.963C118.945 209.064 118.974 209.068 119.164 209.063L118.557 209.324L118.648 209.401L119.036 209.326C119.127 209.475 119.11 209.393 119.084 209.572C118.498 209.729 118.439 209.689 117.835 209.649C117.493 209.67 116.888 209.854 116.602 210.024C115.581 210.04 114.815 209.905 113.805 209.831L108.125 209.419C105.53 209.219 102.916 209.122 100.331 208.851C99.4397 208.758 96.7233 208.07 96.0335 208.314C95.6008 208.277 95.2578 208.153 94.9319 208.265C94.869 208.457 94.8694 208.502 94.8462 208.698L94.738 209.13C95.1899 209.667 95.2367 209.359 95.889 209.338C96.2139 209.221 96.5483 209.093 96.875 208.984C98.7343 209.768 98.678 211.092 99.2601 212.701C100.091 214.368 99.3935 215.57 98.2488 216.794C97.7107 217.021 97.7107 216.794 97.1344 217.021C95.529 216.243 96.2885 216.584 95.8156 216.213C94.9711 216.053 93.3489 215.473 93.304 214.459C92.0629 214.039 90.9468 213.511 89.8366 212.807C89.0129 212.285 88.882 211.825 88.3741 211.093C88.0504 210.687 87.5953 210.388 87.3073 209.95C86.6205 208.907 87.9766 208.423 87.731 207.379L87.5848 207.282C87.7414 207.169 87.9004 207.06 88.0616 206.954L88.1018 206.991L88.2044 206.982L88.2788 206.818C88.0295 206.274 88.0298 206.338 88.3248 205.866C88.5594 205.64 88.7935 205.533 89.0785 205.375ZM92.9529 212.582C93.4028 212.119 93.8422 211.646 94.271 211.162C93.6831 211.121 93.1014 211.051 92.5212 211.15C91.8484 210.611 91.4381 210.02 92.0397 209.232C91.8496 209.1 91.5671 209.109 91.3241 209.09C90.6643 209.066 89.9926 209.273 89.428 209.61L89.2571 209.55L89.1473 209.63C89.2004 210.291 89.7701 211.024 90.2601 211.446C90.9468 212.049 91.7712 212.472 92.6605 212.68C92.8058 212.644 92.8261 212.653 92.9529 212.582ZM91.2102 207.783C91.8097 208.585 92.8205 209.041 93.2644 207.852L91.2102 207.783ZM95.3106 214.542C95.5139 214.82 95.5049 214.981 95.5523 215.321C96.107 216.155 96.707 216.074 97.7107 216.386C98.0859 216.224 98.3576 216.116 98.5951 215.785C98.5947 215.664 98.6241 215.615 98.5279 215.551C97.965 215.171 97.0114 214.836 96.3828 214.563C96.2794 214.518 95.4253 214.54 95.3106 214.542ZM96.9183 212.138C97.1097 212.48 97.1201 212.515 97.076 212.896C96.8803 213.029 96.6922 213.115 96.5951 213.311C97.0068 213.596 97.7441 213.825 98.0866 213.338C98.0947 212.977 97.826 212.566 97.6249 212.266C97.5152 212.157 97.3589 211.969 97.2514 211.848C97.2094 211.553 97.2268 211.469 97.03 211.271C96.6472 211.102 96.3932 211.021 96.143 211.436L96.1629 211.559C96.1845 211.698 96.1874 211.735 96.1797 211.879C95.6539 212 95.6773 211.576 95.0355 212.018C95.4809 212.303 96.0629 211.901 96.9183 212.138Z" fill="#3C4657"/>
<path d="M96.9183 212.138C97.0415 212.016 97.1048 211.94 97.2514 211.848C97.3589 211.969 97.5152 212.157 97.6249 212.266C97.826 212.566 98.0947 212.977 98.0866 213.338C97.7441 213.825 97.0068 213.596 96.5951 213.311C96.6922 213.115 96.8803 213.029 97.076 212.896C97.1201 212.515 97.1097 212.48 96.9183 212.138Z" fill="#3C4657"/>
<path d="M95.0355 212.018C95.6773 211.576 95.6539 212 96.1797 211.879C96.1874 211.735 96.1845 211.698 96.1629 211.559L96.143 211.436C96.3932 211.021 96.6472 211.102 97.03 211.271C97.2268 211.469 97.2094 211.553 97.2514 211.848C97.1048 211.94 97.0415 212.016 96.9183 212.138C96.0629 211.901 95.4809 212.303 95.0355 212.018Z" fill="#3C4657"/>
<path d="M93.2644 207.852L91.2102 207.783C91.8097 208.585 92.8205 209.041 93.2644 207.852Z" fill="#3C4657"/>
<path d="M93.823 208.153C94.1208 208.119 94.3116 208.056 94.5628 208.201C94.7378 208.421 94.7594 208.436 94.8462 208.698L94.738 209.13C95.1899 209.667 95.2367 209.359 95.889 209.338C96.2139 209.221 96.5483 209.093 96.875 208.984C98.7343 209.768 98.678 211.092 99.2601 212.701L99.1216 212.654C98.7924 211.973 98.2494 211.972 97.6249 212.266C97.5152 212.157 97.3589 211.969 97.2514 211.848C97.2094 211.553 97.2268 211.469 97.03 211.271C96.6472 211.102 96.3932 211.021 96.143 211.436L96.1629 211.559C96.1845 211.698 96.1874 211.735 96.1797 211.879C95.6539 212 95.6773 211.576 95.0355 212.018C94.6742 212.048 94.7491 212.26 94.3014 212.033C94.2112 211.781 94.3622 211.465 94.4384 211.166L94.3808 211.072L94.271 211.162C93.6831 211.121 93.1014 211.051 92.5212 211.15C91.8484 210.611 91.4381 210.02 92.0397 209.232L92.1292 209.278L92.1853 209.116C92.5986 208.756 93.065 208.92 93.3391 208.642L93.823 208.153Z" fill="#3C4657"/>
<path d="M93.823 208.153C94.1208 208.119 94.3116 208.056 94.5628 208.201C94.7378 208.421 94.7594 208.436 94.8462 208.698L94.738 209.13C94.7198 209.341 94.7289 209.401 94.6452 209.597C94.2161 209.699 92.6508 209.376 92.1292 209.278L92.1853 209.116C92.5986 208.756 93.065 208.92 93.3391 208.642L93.823 208.153Z" fill="#3C4657"/>
<path d="M89.7109 208.138C90.2816 208.083 90.3391 207.743 91.2102 207.783C91.8097 208.585 92.8205 209.041 93.2644 207.852C93.5229 207.83 93.7289 207.779 93.9559 207.887L93.981 207.999L93.823 208.153L93.3391 208.642C93.065 208.92 92.5986 208.756 92.1853 209.116L92.1292 209.278L92.0397 209.232C91.8496 209.1 91.5671 209.109 91.3241 209.09C90.6643 209.066 89.9926 209.273 89.428 209.61L89.2571 209.55C89.4853 208.779 88.9653 208.557 89.7109 208.138Z" fill="#3C4657"/>
<path d="M93.304 214.459L93.3951 214.517L93.4973 214.793C93.8884 214.745 95.0777 214.49 95.3106 214.542C95.5139 214.82 95.5049 214.981 95.5523 215.321C95.6172 215.647 95.7675 215.949 95.8156 216.213C94.9711 216.053 93.3489 215.473 93.304 214.459Z" fill="#3C4657"/>
<path d="M104.915 207.834C105.674 207.897 105.972 208.177 106.682 208.254C108.835 208.486 111.866 208.451 113.951 208.799C113.233 209.135 110.301 208.553 109.424 208.563C107.918 208.583 106.13 209.192 104.915 207.834Z" fill="#3C4657"/>
<path d="M94.271 211.162L94.3808 211.072L94.4384 211.166C94.3622 211.465 94.2112 211.781 94.3014 212.033C94.7491 212.26 94.6742 212.048 95.0355 212.018C95.4809 212.303 96.0629 211.901 96.9183 212.138C97.1097 212.48 97.1201 212.515 97.076 212.896C97.0236 212.832 96.842 212.619 96.7899 212.583C96.348 212.278 94.8378 212.525 94.3463 212.585L94.2556 212.494C94.0354 212.274 93.9912 212.199 93.7307 212.201C93.4127 212.446 93.3612 212.55 92.9529 212.582C93.4028 212.119 93.8422 211.646 94.271 211.162Z" fill="#3C4657"/>
<path d="M89.0785 205.375C89.4971 205.655 90.2736 205.771 90.5229 206.15C90.0086 206.645 88.9766 205.74 88.3603 205.869C88.3484 205.868 88.3366 205.867 88.3248 205.866C88.5594 205.64 88.7935 205.533 89.0785 205.375Z" fill="#3C4657"/>
<path d="M103.633 207.645C103.942 207.636 104.166 207.692 104.468 207.748C103.603 207.975 103.382 207.469 102.906 208.382C102.785 208.614 102.829 208.553 102.621 208.657C102.213 208.386 102.406 207.808 102.041 207.866C101.72 207.918 101.499 208.116 101.131 208.033L101.048 207.959C102.004 207.799 102.944 207.858 103.633 207.645Z" fill="#3C4657"/>
<path d="M61.6345 171.955C61.762 172.456 61.8338 172.739 61.8903 173.25C62.1184 173.221 62.12 173.225 62.3299 173.136L62.3812 172.771L62.6658 172.656C62.5963 172.998 62.566 173.217 62.5324 173.565C62.5101 173.967 62.4958 174.419 62.4612 174.815C62.6469 175.447 62.8455 175.111 62.7682 175.384C62.1239 176.002 62.1399 175.981 62.1005 176.958C62.0982 178.065 62.0428 180.39 62.195 181.404C61.954 181.577 61.7112 181.706 61.5846 181.965C61.4401 181.616 61.5457 181.239 61.46 181.06C61.3276 180.783 61.1708 181.1 61.0665 180.59C60.9982 181.12 60.8974 181.371 60.8209 181.84C60.6473 182.905 60.5408 184.073 60.353 185.139C60.294 185.474 60.2461 186.789 60.1921 186.942L60.1643 186.549C60.0046 187.851 60.1126 189.527 60.2822 190.825C60.3353 191.232 61.2865 193.258 61.6437 193.503L61.7672 193.487C61.9527 193.122 61.9087 192.308 61.9084 191.874C61.985 192.211 61.9353 192.276 62.1419 192.454C62.4381 192.421 62.5331 192.22 62.656 191.973C62.6359 192.808 62.5506 193.797 62.7047 194.631C63.0212 196.342 64.1725 197.312 65.1571 198.574C66.1348 199.828 66.4295 200.108 67.6695 201.037C68.1655 200.757 68.841 200.225 69.3242 200.292C69.6625 200.551 69.5531 200.997 69.4438 201.368C69.2988 201.129 69.286 201 69.083 200.928C68.793 201.165 69.0087 201.432 69.1443 201.746C69.2982 201.834 69.7275 202.085 69.9041 202.097C70.98 202.172 72.8132 202.331 73.2971 203.5C73.3666 203.668 73.3299 203.689 73.2686 203.812L72.9145 203.946L72.9438 204.103C73.051 204.38 73.0437 204.365 72.9748 204.659C72.5469 205.306 70.3995 206.075 70.9471 204.262C70.933 204.225 70.8921 204.208 70.8626 204.183C70.2182 204.173 70.2774 204.148 69.7091 204.449C69.5403 204.403 69.584 204.433 69.4711 204.318C69.2161 204.431 69.1171 204.944 68.888 205.168C68.0844 205.954 67.239 206.629 66.5035 207.496C65.7793 208.35 64.6532 210.272 65.0692 211.42C65.2101 211.809 65.7929 212.15 66.1803 212.277C67.2951 212.448 67.908 212.154 68.9206 212.647C73.053 212.572 74.7581 209.891 77.8107 207.63C79.0533 206.709 80.3262 205.487 81.5502 204.527C81.9891 204.183 82.9264 203.909 83.3055 204.488C83.4142 205.024 83.1891 205.159 82.9673 205.59C82.3272 206.835 81.9625 207.942 80.9026 208.924C80.3147 209.467 79.7207 209.984 78.9629 210.326C78.7624 210.163 78.747 210.098 78.6323 209.873C80.0349 208.631 80.8742 207.791 81.3253 205.949C80.6899 206.65 80.0184 207.133 79.334 207.761C78.4375 208.581 77.6278 209.348 76.6239 210.046C76.2463 210.308 75.8283 210.933 75.465 211.234C74.9966 211.659 74.6109 211.978 74.1747 212.449C74.8246 212.084 75.9629 211.756 76.666 211.845C77.2008 211.777 77.3836 211.718 77.8475 212.015C76.117 212.697 73.7226 213.177 71.9122 213.683C71.478 213.804 69.5728 214.117 69.3275 214.375C69.1489 214.437 69.0371 214.498 68.8519 214.467C68.0025 214.406 67.6349 214.49 66.8087 214.709C65.8779 214.165 64.1874 212.91 63.7243 211.915C63.4747 211.39 63.3757 210.807 63.4382 210.23C63.6316 208.496 65.4177 205.521 66.1024 203.84C66.1712 203.557 67.1199 202.143 66.7586 201.913C65.4226 201.062 64.0129 199.863 63.1123 198.555C62.7727 198.062 61.9951 197.09 61.7479 196.575C61.2792 195.599 60.8943 194.441 60.3938 193.46C60.0458 192.682 59.5297 191.728 59.2368 190.976C58.9382 190.21 59.2717 189.429 58.7727 188.519C59.2618 186.721 58.5918 185.212 59.6313 183.685C59.6979 181.873 60.038 180.159 60.0488 178.494L60.0521 178.445L60.1093 178.023L60.3644 178.287C60.6456 178.277 60.7488 178.121 61.0106 177.918C61.2494 177.788 61.0894 177.297 61.2262 176.92C61.351 176.205 61.4857 175.708 61.4066 174.989L61.3262 175.059C61.3216 175.272 61.3381 175.167 61.1968 175.374L61.1474 174.881C61.253 174.657 61.3091 174.519 61.3923 174.285L61.3972 173.797C61.5982 173.176 61.495 172.614 61.6345 171.955ZM66.5325 205.851L67.4628 205.196C68.159 204.614 68.8372 203.861 69.6334 203.539C69.4686 203.161 68.7024 202.938 68.2932 202.759C67.9592 203.546 67.0224 205.069 66.5325 205.851Z" fill="#3C4657"/>
<path d="M69.1443 201.746C69.2982 201.834 69.7275 202.085 69.9041 202.097C70.98 202.172 72.8132 202.331 73.2971 203.5C73.3666 203.668 73.3299 203.689 73.2686 203.812L72.9145 203.946L72.9438 204.103C73.051 204.38 73.0437 204.365 72.9748 204.659C72.5469 205.306 70.3995 206.075 70.9471 204.262C70.933 204.225 70.8921 204.208 70.8626 204.183C70.7222 204.156 70.5881 204.128 70.4489 204.097L70.4401 204.019C70.6932 203.916 70.7241 203.905 70.9395 203.743C71.1776 202.903 69.376 202.498 69.1443 201.746Z" fill="#3C4657"/>
<path d="M72.9438 204.103C73.051 204.38 73.0437 204.365 72.9748 204.659C72.5469 205.306 70.3995 206.075 70.9471 204.262C71.263 204.325 72.3944 204.122 72.9438 204.103Z" fill="#3C4657"/>
<path d="M61.0106 177.918C61.2494 177.788 61.0894 177.297 61.2262 176.92C61.2806 177.642 60.8533 178.941 60.6381 179.697L60.5288 179.762C60.17 179.574 60.0886 178.863 60.0488 178.494L60.0521 178.445L60.1093 178.023L60.3644 178.287C60.6456 178.277 60.7488 178.121 61.0106 177.918Z" fill="#3C4657"/>
<path d="M62.1005 176.958C62.0016 176.947 62.0594 176.964 61.9467 176.862C61.8177 176.118 62.2218 176.528 61.6572 175.755C61.6908 175.439 61.8392 175.487 62.0005 175.266C62.0158 175.245 61.9546 174.916 62.0384 174.673L62.2159 174.766C62.2513 174.494 62.1868 174.585 62.3403 174.427C62.4488 174.524 62.4293 174.631 62.4612 174.815C62.6469 175.447 62.8455 175.111 62.7682 175.384C62.1239 176.002 62.1399 175.981 62.1005 176.958Z" fill="#3C4657"/>
<path d="M66.1803 212.277C67.2951 212.448 67.908 212.154 68.9206 212.647C68.3827 212.75 66.6653 212.678 66.1771 212.383L66.1803 212.277Z" fill="#3C4657"/>
<path d="M61.8903 173.25C62.1184 173.221 62.12 173.225 62.3299 173.136L62.3812 172.771L62.6658 172.656C62.5963 172.998 62.566 173.217 62.5324 173.565C62.3376 173.815 62.2449 174.039 61.9322 174.065L61.8203 173.928C61.7367 173.605 61.758 173.561 61.8903 173.25Z" fill="#3C4657"/>
<path d="M152.007 193.685C152.637 194.549 151.173 196.075 151.371 196.762C151.658 196.794 151.531 196.823 151.77 196.696L151.907 196.465L152.065 196.444C152.159 196.524 152.461 196.77 152.532 196.845L152.592 196.869C152.246 199.169 151.56 200.408 150.034 202.153C148.96 203.382 148.145 204.251 146.835 205.262C146.122 205.811 145.377 206.775 144.648 207.348C143.802 208.08 142.873 208.805 142.139 209.661C143.063 212.449 145.017 212.428 146.323 214.586C146.465 214.821 146.483 215.671 146.565 216.019L146.518 216.149C146.777 216.579 146.742 217.19 146.811 217.708C146.521 218.001 145.941 217.833 145.919 218.244C144.655 219.412 143.335 219.347 141.984 220.197C141.834 220.291 141.429 220.766 141.292 220.924L141.361 220.933C141.938 221.005 142.489 221.166 143.088 221.248C143.776 221.342 144.147 221.283 144.815 221.287L144.861 221.362C144.368 222.084 140.931 222.251 140.089 221.923C139.748 221.791 139.227 221.513 138.871 221.433C138.358 221.317 138.216 221.458 137.771 221.122L137.83 221.083C137.561 220.928 137.649 221.033 137.515 220.797C137.819 220.132 138.103 220.763 138.608 220.083L138.706 219.943C139.085 219.734 139.523 219.946 139.937 219.544C140.228 219.541 140.67 219.599 140.973 219.629C141.931 218.742 142.692 218.501 143.817 217.944C146.4 216.665 144.24 214.348 142.904 213.151C142.163 212.486 141.517 211.643 140.733 211.021C140.497 210.833 139.849 211.1 139.586 211.177L139.427 211.006C139.18 210.133 140.057 209.578 138.441 209.454C137.646 209.392 137.036 208.738 137.754 208.101C138.415 207.901 139.28 208.276 139.904 208.536C140.05 208.471 140.557 208.248 140.631 208.15C141.464 207.056 142.311 205.435 143.071 204.265C143.292 204.638 143.035 204.767 143.08 205.352C142.748 206.237 142.549 206.229 142.161 207.008C142.123 207.084 142.191 207.141 142.249 207.226C143.271 207.208 144.488 204.781 145.347 204.02L145.42 203.956C147.539 201.408 149.87 199.332 151.218 196.189C151.654 195.172 151.953 194.842 152.007 193.685ZM146.553 204.239C147.447 204.1 149.874 200.908 150.607 200.145C150.858 199.884 150.886 199.445 151.037 199.096C151.087 198.857 151.092 198.869 151.055 198.63C150.691 198.944 150.329 199.544 149.981 199.966L146.572 204.182C146.565 204.201 146.559 204.22 146.553 204.239ZM141.087 208.889C141.329 208.82 141.681 208.709 141.918 208.668C142.135 208.449 142.275 208.381 142.338 208.115C142.145 207.831 142.001 207.938 141.689 207.595C141.392 208.025 141.273 208.402 141.087 208.889Z" fill="#3C4657"/>
<path d="M152.007 193.685C152.637 194.549 151.173 196.075 151.371 196.762C151.658 196.794 151.531 196.823 151.77 196.696L151.907 196.465L152.065 196.444C151.905 196.716 151.734 196.854 151.701 197.131L151.586 197.233L151.479 197.194C151.223 197.402 150.968 198.306 151.055 198.63C150.691 198.944 150.329 199.544 149.981 199.966L146.572 204.182C146.565 204.201 146.559 204.22 146.553 204.239C146.553 204.621 145.917 205.252 145.545 205.21L145.455 205.063C145.528 204.573 146.247 204.237 146.37 203.958C146.942 202.657 150.721 199.572 150.86 198.183L150.691 198.109C151.129 197.845 151.148 197.794 151.196 197.291L151.09 197.184C151.065 197.191 151.038 197.198 151.013 197.208C150.732 197.321 150.698 197.55 150.603 197.805C150.295 198.637 146.118 203.697 145.505 203.932C145.478 203.943 145.448 203.948 145.42 203.956C147.539 201.408 149.87 199.332 151.218 196.189C151.654 195.172 151.953 194.842 152.007 193.685Z" fill="#3C4657"/>
<path d="M151.055 198.63C150.968 198.306 151.223 197.402 151.479 197.194L151.586 197.233C151.788 197.495 151.733 197.384 151.683 197.814C151.548 198.261 151.429 198.726 151.179 199.117L151.072 199.165L151.037 199.096C151.087 198.857 151.092 198.869 151.055 198.63Z" fill="#3C4657"/>
<path d="M152.065 196.444C152.159 196.524 152.461 196.77 152.532 196.845C152.139 197.059 151.955 197.433 151.683 197.814C151.733 197.384 151.788 197.495 151.586 197.233L151.701 197.131C151.734 196.854 151.905 196.716 152.065 196.444Z" fill="#3C4657"/>
<path d="M144.423 151.8C146.225 152.086 148.54 151.419 150.382 151.227C150.982 151.164 151.87 150.744 152.498 150.651C154.647 150.105 156.334 150.544 158.423 151.118C159.189 151.329 159.977 151.556 160.702 151.877C160.438 152 159.776 152.221 159.491 152.239C159.329 152.112 159.275 152.003 159.152 151.832C158.672 151.761 158.385 151.72 157.944 151.512C157.801 151.43 157.071 151.091 156.942 151.075C155.752 150.931 154.798 150.757 153.595 150.914L153.458 151.094C154.569 151.406 154.938 151.155 156.184 151.674C156.759 151.553 157.184 151.731 157.667 151.581L157.763 151.627C158.063 151.922 158.186 151.835 158.524 152.016L158.429 152.196C158.584 152.315 158.67 152.346 158.844 152.426L158.718 152.654C158.551 152.7 158.437 152.647 158.266 152.6C157.796 152.284 155.929 152.233 155.265 152.156C153.873 152.126 151.577 151.857 150.406 152.302L150.397 152.367C150.753 152.49 150.914 152.48 151.282 152.493C151.517 152.702 151.449 152.707 151.706 152.739C151.854 152.657 151.785 152.7 151.915 152.612L151.974 152.633C152.211 152.791 152.174 152.822 152.409 152.823L152.467 152.643C152.717 153.147 153.395 152.879 153.774 152.659C155.271 153.104 155.202 152.787 156.696 153.482C157.363 153.754 157.396 153.413 157.807 153.493C158.54 153.637 159.911 154.125 160.628 153.739C160.913 153.779 161.186 153.816 161.47 153.867C161.765 153.917 162.607 154.14 162.866 154.262C164.03 154.616 164.77 154.477 165.557 154.701L165.439 154.395C165.824 154.421 165.712 154.797 165.994 154.744L166.043 154.672C166.215 154.421 166.247 154.309 166.564 154.285L166.661 154.609C166.292 155.19 165.523 154.643 165.29 155.672C163.264 154.603 150.995 154.426 148.228 154.527C147.321 154.56 145.105 154.908 144.078 155.018C143.727 155.303 143.359 155.713 142.963 155.912C141.849 156.474 140.896 156.35 139.77 155.985C140.322 155.286 140.717 154.572 141.224 153.848C141.364 153.785 141.48 153.732 141.574 153.688C141.744 153.527 141.782 153.484 141.925 153.299C141.31 153.191 140.281 152.833 140.729 152.022C140.946 151.899 144.13 151.739 144.423 151.8ZM145.952 154.034C146.433 153.93 146.94 153.684 147.42 153.51C147.501 153.481 147.615 153.467 147.704 153.451L147.992 153.697L148.124 153.665L148.293 153.382L148.597 153.288L148.655 153.339L148.482 153.613C148.547 153.653 151.251 153.474 151.91 153.642C152.281 153.655 152.434 153.66 152.811 153.612C152.704 153.499 152.388 153.48 152.199 153.446L151.927 153.503C151.149 153.215 148.975 153.074 147.956 152.909C147.844 152.865 147.589 152.829 147.458 152.806L146.94 152.766C146.663 152.678 146.586 152.718 146.288 152.776C145.41 153.268 145.206 153.375 144.536 154.102L144.516 154.193C145.285 154.044 145.206 154.032 145.952 154.034Z" fill="#3C4657"/>
<path d="M146.288 152.776C146.586 152.718 146.663 152.678 146.94 152.766C146.969 153.006 147.191 153.192 147.373 153.355L147.42 153.51C146.94 153.684 146.433 153.93 145.952 154.034C145.206 154.032 145.285 154.044 144.516 154.193L144.536 154.102C145.206 153.375 145.41 153.268 146.288 152.776Z" fill="#3C4657"/>
<path d="M146.94 152.766L147.458 152.806C147.589 152.829 147.844 152.865 147.956 152.909C147.887 153.183 147.934 153.085 147.684 153.291L147.757 153.292C148.026 153.295 148.052 153.287 148.293 153.382L148.124 153.665L147.992 153.697L147.704 153.451C147.615 153.467 147.501 153.481 147.42 153.51L147.373 153.355C147.191 153.192 146.969 153.006 146.94 152.766Z" fill="#3C4657"/>
<path d="M152.199 153.446C152.388 153.48 152.704 153.499 152.811 153.612C152.434 153.66 152.281 153.655 151.91 153.642L151.927 153.503L152.199 153.446Z" fill="#3C4657"/>
<path d="M144.423 151.8C146.225 152.086 148.54 151.419 150.382 151.227C150.982 151.164 151.87 150.744 152.498 150.651C154.647 150.105 156.334 150.544 158.423 151.118C159.189 151.329 159.977 151.556 160.702 151.877C160.438 152 159.776 152.221 159.491 152.239C159.329 152.112 159.275 152.003 159.152 151.832C158.672 151.761 158.385 151.72 157.944 151.512C157.801 151.43 157.071 151.091 156.942 151.075C155.752 150.931 154.798 150.757 153.595 150.914L153.458 151.094C154.569 151.406 154.938 151.155 156.184 151.674C156.759 151.553 157.184 151.731 157.667 151.581L157.763 151.627C158.063 151.922 158.186 151.835 158.524 152.016L158.429 152.196C158.584 152.315 158.67 152.346 158.844 152.426L158.718 152.654C158.551 152.7 158.437 152.647 158.266 152.6C157.796 152.284 155.929 152.233 155.265 152.156C153.873 152.126 151.577 151.857 150.406 152.302L150.397 152.367C150.753 152.49 150.914 152.48 151.282 152.493C151.517 152.702 151.449 152.707 151.706 152.739C151.854 152.657 151.785 152.7 151.915 152.612L151.974 152.633L152.012 152.89C151.771 153.074 151.515 153.092 151.211 153.154C151.598 153.222 151.985 153.287 152.373 153.349L152.383 153.416L152.199 153.446L151.927 153.503C151.149 153.215 148.975 153.074 147.956 152.909C147.844 152.865 147.589 152.829 147.458 152.806L146.94 152.766C146.663 152.678 146.586 152.718 146.288 152.776C145.922 152.793 144.616 152.768 144.417 152.569C144.19 152.493 144.188 152.506 144.019 152.321C143.995 152.095 144.004 152.167 144.198 151.924L144.354 151.912L144.423 151.8Z" fill="#3C4657"/>
<path d="M149.407 152.027C150.525 151.935 154.512 151.618 155.265 152.156C153.873 152.126 151.577 151.857 150.406 152.302L150.397 152.367C150.753 152.49 150.914 152.48 151.282 152.493C151.517 152.702 151.449 152.707 151.706 152.739C151.854 152.657 151.785 152.7 151.915 152.612L151.974 152.633L152.012 152.89C151.771 153.074 151.515 153.092 151.211 153.154C151.598 153.222 151.985 153.287 152.373 153.349L152.383 153.416L152.199 153.446L151.927 153.503C151.149 153.215 148.975 153.074 147.956 152.909C147.844 152.865 147.589 152.829 147.458 152.806C148.735 152.62 148.319 153.041 149.407 152.027Z" fill="#3C4657"/>
<path d="M153.458 151.094C154.569 151.406 154.938 151.155 156.184 151.674C155.896 151.812 153.956 151.63 153.568 151.447C153.481 151.405 153.475 151.191 153.458 151.094Z" fill="#3C4657"/>
<path d="M141.574 153.688C141.744 153.527 141.782 153.484 141.925 153.299C141.31 153.191 140.281 152.833 140.729 152.022C140.946 151.899 144.13 151.739 144.423 151.8L144.354 151.912L144.198 151.924C144.004 152.167 143.995 152.095 144.019 152.321C144.188 152.506 144.19 152.493 144.417 152.569C144.616 152.768 145.922 152.793 146.288 152.776C145.41 153.268 145.206 153.375 144.536 154.102L144.516 154.193C145.285 154.044 145.206 154.032 145.952 154.034C145.865 154.161 144.036 154.504 143.695 154.583C143.888 154.173 144.02 153.884 144.174 153.457C144.02 153.499 143.882 153.538 143.723 153.499C143.274 153.388 141.858 153.802 141.574 153.688Z" fill="#3C4657"/>
<path d="M144.174 153.457C144.166 153.339 144.285 153.236 144.277 152.973C144.121 153.062 143.964 153.149 143.806 153.232C143.621 152.85 143.33 152.977 143.081 152.745L143.071 152.811L143.024 152.785L143.419 152.586C143.641 152.647 143.664 152.668 143.898 152.651L143.492 152.47L143.471 152.374C143.779 152.375 144.036 152.542 144.417 152.569C144.616 152.768 145.922 152.793 146.288 152.776C145.41 153.268 145.206 153.375 144.536 154.102L144.516 154.193C145.285 154.044 145.206 154.032 145.952 154.034C145.865 154.161 144.036 154.504 143.695 154.583C143.888 154.173 144.02 153.884 144.174 153.457Z" fill="#3C4657"/>
<path d="M178.974 162.286C178.775 161.492 178.542 161.236 178.044 160.582C177.711 160.145 178.104 159.498 178.613 159.405C179.566 159.231 179.804 161.244 179.971 161.922C180.926 162.76 181.051 163.108 181.728 164.162C182.455 165.067 182.055 165.085 182.329 165.9C182.588 166.506 182.69 167.073 182.893 167.69C182.592 168.828 182.957 169.365 182.567 170.021C182.013 169.668 182.097 169.691 182.018 169.078L181.966 169.112C181.704 168.971 181.627 168.87 181.368 168.892C181.256 169.093 181.303 169.316 181.316 169.556C181.197 169.347 181.192 169.174 181.164 168.942C181.157 168.908 181.094 170.475 181.088 170.511C181.043 170.093 181.094 169.693 180.877 169.407C180.848 169.142 180.891 169.175 180.753 168.993C180.371 168.932 180.116 169.112 179.716 169.189L179.604 169.21L179.216 169.313C178.908 169.181 178.375 169.142 178.014 169.148C176.958 169.163 175.628 168.381 175.769 167.185C175.849 166.516 176.12 166.079 176.588 165.612C177.055 165.145 177.013 165.233 177.406 164.669C177.378 164.268 177.511 163.662 177.723 163.329C178.047 163.074 178.315 163.065 178.731 162.978L178.769 163.058C178.746 163.241 178.766 163.3 178.666 163.432C178.617 163.827 178.6 163.971 178.618 164.377L178.872 164.444L179.004 164.569C179.305 164.645 179.623 164.732 179.926 164.791L179.983 164.669C179.965 164.384 179.779 164.098 179.642 163.835C179.231 163.138 179.185 163.042 178.974 162.286Z" fill="#3C4657"/>
<path d="M178.974 162.286C178.775 161.492 178.542 161.236 178.044 160.582C177.711 160.145 178.104 159.498 178.613 159.405C179.566 159.231 179.804 161.244 179.971 161.922C180.926 162.76 181.051 163.108 181.728 164.162C181.708 164.734 181.955 164.481 181.999 164.88C181.844 164.875 181.851 164.87 181.706 164.808L181.553 164.863L181.399 164.772C181.342 165.063 181.694 165 181.35 165.49C181.004 165.519 180.796 165.157 180.576 164.903C180.449 164.961 180.485 164.917 180.441 165.007C180.179 165.487 180.061 165.585 180.086 166.11C180.071 166.138 179.988 166.208 179.96 166.234L179.849 166.218C178.584 166.023 178.969 165.63 179.047 164.758L179.052 164.696L178.999 164.664L179.004 164.569C179.305 164.645 179.623 164.732 179.926 164.791L179.983 164.669C179.965 164.384 179.779 164.098 179.642 163.835C179.231 163.138 179.185 163.042 178.974 162.286Z" fill="#3C4657"/>
<path d="M179.004 164.569C179.305 164.645 179.623 164.732 179.926 164.791C180.01 164.908 179.975 164.843 179.947 165.05C179.307 165.736 179.885 165.432 179.968 166.055C179.694 166.16 179.833 166.142 179.532 166.097C178.94 165.604 179.497 165.326 179.052 164.696L178.999 164.664L179.004 164.569Z" fill="#3C4657"/>
<path d="M180.086 166.11C180.186 166.213 180.152 166.148 180.161 166.318C179.863 166.52 179.844 166.643 179.731 166.979L179.574 167.015C178.597 166.672 178.31 166.003 178.519 164.921C178.57 164.66 178.605 164.681 178.618 164.377L178.872 164.444L179.004 164.569L178.999 164.664L179.052 164.696L179.047 164.758C178.969 165.63 178.584 166.023 179.849 166.218L179.96 166.234C179.988 166.208 180.071 166.138 180.086 166.11Z" fill="#3C4657"/>
<path d="M181.728 164.162C182.455 165.067 182.055 165.085 182.329 165.9C182.138 165.889 182.054 165.908 181.904 165.796C181.968 165.67 182.004 165.575 181.951 165.441C181.75 165.474 181.818 165.442 181.653 165.557C181.645 165.91 181.869 166.014 181.951 166.409C181.896 166.552 181.74 166.706 181.633 166.833C181.516 166.725 180.568 165.224 180.441 165.007C180.485 164.917 180.449 164.961 180.576 164.903C180.796 165.157 181.004 165.519 181.35 165.49C181.694 165 181.342 165.063 181.399 164.772L181.553 164.863L181.706 164.808C181.851 164.87 181.844 164.875 181.999 164.88C181.955 164.481 181.708 164.734 181.728 164.162Z" fill="#3C4657"/>
<path d="M178.731 162.978L178.769 163.058C178.746 163.241 178.766 163.3 178.666 163.432C178.422 163.639 178.418 163.648 178.287 163.945C178.094 164.063 178.108 164.101 177.923 164.089L177.817 164.019C177.745 164.155 177.672 164.29 177.598 164.425C177.571 164.024 177.511 163.662 177.723 163.329C178.047 163.074 178.315 163.065 178.731 162.978Z" fill="#3C4657"/>
<path d="M177.471 166.764C178.016 166.967 178.784 167.637 179.269 168.019L179.274 168.126L178.945 168.337C178.479 168.385 177.43 167.807 177.205 167.357C177.225 167.009 177.237 167.099 177.471 166.764Z" fill="#3C4657"/>
<path d="M126.267 208.855C126.459 209.113 126.879 209.603 126.763 209.959C126.214 211.638 124.953 212.805 123.79 214.026C122.527 215.35 122.54 215.545 120.859 216.348C118.842 217.311 117.269 217.36 115.05 216.898C114.455 216.777 114.284 216.69 113.755 216.368C113.393 215.715 113.078 215.293 113.297 214.544C113.317 214.477 113.338 214.411 113.361 214.344C113.695 214.393 113.82 214.585 113.991 214.894C113.876 214.172 114.209 214.259 114.468 213.454C114.734 213.971 114.265 214.168 114.104 214.831C114.495 215.476 114.705 215.703 115.409 216.046C116.123 216.001 116.296 215.993 117.014 216.12L117.046 216.056C116.147 215.815 115.227 215.324 114.976 214.319C114.879 213.93 114.755 213.721 114.672 213.424L114.741 213.318L115.078 213.281C115.287 212.994 115.391 212.238 115.767 211.667C116.027 212.335 114.834 213.37 116.745 213.303C116.822 213.299 116.824 213.288 116.887 213.249C116.881 213.31 116.872 213.468 116.858 213.522C116.409 213.563 116.35 213.555 115.93 213.741L115.705 213.837C116.26 214.603 116.567 215.06 117.611 215.217C118.27 215.316 119.03 215.366 119.7 215.426C120.498 215.351 122.206 213.979 122.683 213.31C122.952 212.712 123.016 212.187 123.341 211.572L123.45 211.304C123.632 211.143 123.728 211.026 123.963 210.966C124.109 210.746 124.102 210.758 124.145 210.496C124.325 209.985 125.619 209.158 126.103 208.928C126.158 208.902 126.212 208.878 126.267 208.855Z" fill="#3C4657"/>
<path d="M115.767 211.667C116.027 212.335 114.834 213.37 116.745 213.303C116.822 213.299 116.824 213.288 116.887 213.249C116.881 213.31 116.872 213.468 116.858 213.522C116.409 213.563 116.35 213.555 115.93 213.741L115.705 213.837C116.26 214.603 116.567 215.06 117.611 215.217C118.27 215.316 119.03 215.366 119.7 215.426C119.006 215.587 117.437 215.658 116.717 215.451C116.516 215.393 116.147 214.917 115.799 214.874L115.647 214.928C115.877 215.428 117.142 215.752 117.046 216.056C116.147 215.815 115.227 215.324 114.976 214.319C114.879 213.93 114.755 213.721 114.672 213.424L114.741 213.318L115.078 213.281C115.287 212.994 115.391 212.238 115.767 211.667Z" fill="#3C4657"/>
<path d="M113.991 214.894C113.876 214.172 114.209 214.259 114.468 213.454C114.734 213.971 114.265 214.168 114.104 214.831C114.495 215.476 114.705 215.703 115.409 216.046C116.123 216.001 116.296 215.993 117.014 216.12C117.164 216.132 117.117 216.121 117.262 216.174C117.123 216.355 116.497 216.537 116.244 216.628C115.322 216.168 114.407 215.864 113.991 214.894Z" fill="#3C4657"/>
<path d="M123.45 211.304C123.632 211.143 123.728 211.026 123.963 210.966C124.302 211.061 124.598 211.086 124.794 211.335L124.757 211.554C124.46 211.778 124.24 211.965 123.962 212.208C123.555 212.188 124.015 211.915 123.341 211.572L123.45 211.304Z" fill="#3C4657"/>
<path d="M123.341 211.572C124.015 211.915 123.555 212.188 123.962 212.208C124.24 211.965 124.46 211.778 124.757 211.554C124.481 212.08 123.29 212.853 122.683 213.31C122.952 212.712 123.016 212.187 123.341 211.572Z" fill="#3C4657"/>
<path d="M113.859 153.381C115.687 153.175 117.453 153.254 119.29 153.325C120.099 153.356 120.551 153.466 121.238 153.892C122.35 153.904 124.177 153.793 125.086 154.42L126.008 154.042L126.166 153.876C126.332 153.903 126.713 153.701 126.909 153.621L126.968 153.289C127.17 154.076 129.201 154.818 127.189 155.548L127.112 155.589C126.844 155.733 126.23 155.938 126.147 156.091L126.157 156.15C126.564 156.446 127.045 156.934 126.642 157.463C126.137 157.286 126.181 156.69 125.443 156.728C125.11 156.903 125.032 157.035 124.79 157.319C124.605 157.035 124.415 156.754 124.223 156.475C124.079 156.46 123.583 156.539 123.41 156.562C122.982 156.654 122.312 156.675 121.856 156.698L122.01 156.554C122.251 156.513 122.266 156.515 122.501 156.415L122.473 156.326L121.852 156.127C121.532 156.076 119.888 155.96 119.589 155.963C120.173 155.67 120.387 155.936 120.938 155.62C120.459 154.678 119.253 155.091 118.5 155.463C118.518 155.528 118.539 155.606 118.562 155.667C118.211 155.619 118.13 155.529 117.77 155.584C117.582 155.456 117.148 155.284 116.921 155.184C115.787 154.82 115.766 154.676 114.553 154.56L114.585 154.498C114.432 154.129 114.454 153.687 114.34 153.453L113.859 153.381Z" fill="#3C4657"/>
<path d="M124.109 155.705C124.415 155.484 125.071 154.972 125.46 154.903C125.55 154.887 125.583 154.964 125.667 155.053C125.795 155.389 125.795 155.419 126.034 155.675L126.233 155.769L126.331 155.679C126.618 155.421 126.826 155.364 127.189 155.548L127.112 155.589C126.844 155.733 126.23 155.938 126.147 156.091L126.157 156.15C126.564 156.446 127.045 156.934 126.642 157.463C126.137 157.286 126.181 156.69 125.443 156.728C125.11 156.903 125.032 157.035 124.79 157.319C124.605 157.035 124.415 156.754 124.223 156.475C124.079 156.46 123.583 156.539 123.41 156.562L123.261 156.498C123.301 156.059 123.714 155.797 124.109 155.705Z" fill="#3C4657"/>
<path d="M124.223 156.475C124.755 156.191 125.553 156.039 126.157 156.15C126.564 156.446 127.045 156.934 126.642 157.463C126.137 157.286 126.181 156.69 125.443 156.728C125.11 156.903 125.032 157.035 124.79 157.319C124.605 157.035 124.415 156.754 124.223 156.475Z" fill="#3C4657"/>
<path d="M124.109 155.705C124.415 155.484 125.071 154.972 125.46 154.903C125.55 154.887 125.583 154.964 125.667 155.053C124.858 155.024 125.53 155.888 124.109 155.705Z" fill="#3C4657"/>
<path d="M126.968 153.289C127.17 154.076 129.201 154.818 127.189 155.548C126.826 155.364 126.618 155.421 126.331 155.679L126.233 155.769L126.034 155.675C125.934 155.291 125.799 154.826 125.472 154.617L125.25 154.716L125.246 154.668C125.492 154.621 125.602 154.587 125.84 154.508C126.032 154.264 125.978 154.374 126.008 154.042L126.166 153.876C126.332 153.903 126.713 153.701 126.909 153.621L126.968 153.289Z" fill="#3C4657"/>
<path d="M120.938 155.62L121.019 155.705C121.453 155.675 122.286 155.591 122.659 155.734L122.778 155.879L122.757 156.015C122.481 156.16 122.171 156.138 121.852 156.127C121.532 156.076 119.888 155.96 119.589 155.963C120.173 155.67 120.387 155.936 120.938 155.62Z" fill="#3C4657"/>
<path d="M117.559 154.993C117.226 154.878 117.064 155.002 116.849 154.659C117.208 154.441 117.72 154.115 118.122 154.118C118.362 154.248 118.309 154.157 118.368 154.353C118.11 154.523 117.999 154.604 117.801 154.839C117.684 155.005 117.761 154.954 117.559 154.993Z" fill="#3C4657"/>
<path d="M117.559 154.993C117.761 154.954 117.684 155.005 117.801 154.839C118.113 155.123 117.962 155.038 118.397 155.138C118.276 155.305 118.236 155.275 118.007 155.365L118.067 155.459C118.286 155.503 118.393 155.505 118.562 155.667C118.211 155.619 118.13 155.529 117.77 155.584C117.582 155.456 117.148 155.284 116.921 155.184C117.172 155.065 117.284 155.052 117.559 154.993Z" fill="#3C4657"/>
<path d="M182.429 172.855C182.488 172.678 182.688 172.621 182.896 172.621C183.044 172.621 183.375 174.062 183.044 174.9C183.271 175.251 183.326 175.214 183.331 175.596C183.176 175.88 183.118 175.912 182.872 176.136L182.851 176.313L183.085 176.424C183.853 178.903 181.052 181.947 179.205 183.235C178.387 183.805 177.84 183.889 177.039 184.698L176.957 184.641C176.565 184.649 176.487 184.371 176.085 184.432C175.862 183.584 176.743 183.249 177.22 182.619C178.279 181.224 179.326 179.695 180.12 178.133C180.288 177.296 180.656 177.475 180.684 176.016C180.967 175.644 180.94 175.769 180.986 175.359C181.175 175.282 181.176 175.303 181.381 175.351C181.69 175.671 181.423 176.131 181.424 176.604L181.546 176.621C181.879 176.427 181.85 175.729 181.946 175.406C181.984 175.281 182.437 175.019 182.535 174.884C182.748 174.589 182.63 174.362 182.595 174.023C182.71 173.532 182.312 173.205 182.429 172.855ZM179.446 182.207C179.995 181.49 180.81 180.701 181.363 179.991C181.361 179.875 181.36 179.759 181.358 179.643C181.774 179.164 182.661 178.847 182.542 178.087C182.536 178.046 182.486 177.763 182.47 177.729C182.197 177.139 182.976 176.762 182.595 176.484C182.283 176.83 182.151 177.143 181.933 177.547C181.151 178.996 180.212 180.358 179.377 181.776C179.288 181.926 179.238 182.079 179.287 182.249L179.446 182.207Z" fill="#3C4657"/>
<path d="M180.986 175.359C181.175 175.282 181.176 175.303 181.381 175.351C181.69 175.671 181.423 176.131 181.424 176.604C180.54 176.888 180.855 177.489 180.228 178.113L180.12 178.133C180.288 177.296 180.656 177.475 180.684 176.016C180.967 175.644 180.94 175.769 180.986 175.359Z" fill="#3C4657"/>
<path d="M159.139 188.861C161.912 188.693 166.099 186.678 168.476 185.239C170.11 184.248 172.502 182.932 173.994 181.846C174.797 181.846 174.396 181.842 174.79 182.251C174.518 182.535 174.142 183.044 173.858 183.263C172.963 183.954 171.558 185.082 170.578 185.593C168.55 186.649 166.312 187.33 164.269 188.367C163.683 188.656 163.282 189.174 162.636 189.567C163.328 189.402 163.662 189.352 164.373 189.313L164.503 189.538C164.419 189.57 164.357 189.598 164.271 189.623C163.909 189.647 162.675 189.615 162.409 189.707C161.11 190.151 159.509 190.809 158.27 191.379C157.618 191.678 155.142 193.021 154.739 192.839C154.66 192.672 154.545 192.291 154.638 192.164C155.184 191.423 156.797 191.031 157.449 190.514C157.701 190.354 157.783 190.344 158.077 190.261C158.313 190.33 158.879 190.212 159.027 189.959C159.252 189.572 159.087 189.369 159.132 188.93L159.139 188.861Z" fill="#3C4657"/>
<path d="M64.016 164.7L64.2828 165.017C64.1853 165.407 64.2575 165.637 64.3305 166.026C64.2928 166.346 64.2983 166.389 64.3765 166.702C64.6527 167.008 64.6309 166.966 65.044 166.937C64.398 168.193 64.1882 170.031 64.0654 171.432L63.9353 171.33C63.8702 171.521 63.8775 171.52 63.8737 171.725L63.7386 171.796L63.6653 171.494L63.6867 171.537L63.6095 171.538C63.5551 171.802 63.5048 172.067 63.4585 172.333C63.4273 171.977 63.5314 169.782 63.6159 169.496L63.3062 169.913C63.2078 170.115 62.8123 170.895 62.7796 171.042C62.6657 171.552 62.7841 172.076 62.6658 172.656L62.3812 172.771L62.3299 173.136C62.12 173.225 62.1184 173.221 61.8903 173.25C61.8338 172.739 61.762 172.456 61.6345 171.955L61.1779 171.825L61.1427 171.714C60.9805 171.783 61.0452 171.775 60.8732 171.771L60.8089 171.659C60.8287 171.381 60.843 171.258 60.7762 170.989C60.7798 170.608 60.8267 170.413 60.8967 170.043C60.9591 169.793 61.0849 169.438 61.1652 169.181L60.9724 169.074C60.872 168.656 60.2424 168.09 60.1849 167.613C60.1687 167.479 60.146 167.402 60.1092 167.273C60.8555 167.077 62.3077 166.416 62.764 166.422C62.9488 166.17 63.2052 165.744 63.3812 165.469C63.4666 165.322 63.883 164.856 64.016 164.7Z" fill="#3C4657"/>
<path d="M62.2818 169.046C62.6174 169.002 62.9057 168.865 63.2104 168.966C63.305 169.056 63.3441 169.075 63.4094 169.183C63.3719 169.398 63.3071 169.706 63.3062 169.913C63.2078 170.115 62.8123 170.895 62.7796 171.042C62.6657 171.552 62.7841 172.076 62.6658 172.656L62.3812 172.771L62.3299 173.136C62.12 173.225 62.1184 173.221 61.8903 173.25C61.8338 172.739 61.762 172.456 61.6345 171.955L61.1779 171.825L61.1427 171.714C60.9805 171.783 61.0452 171.775 60.8732 171.771L60.8089 171.659C60.8287 171.381 60.843 171.258 60.7762 170.989C60.7798 170.608 60.8267 170.413 60.8967 170.043C61.1735 169.766 61.9173 169.098 62.2818 169.046Z" fill="#3C4657"/>
<path d="M61.1652 169.181C61.7572 169.054 61.5057 168.362 61.9885 168.154C62.1304 168.344 62.1319 168.735 62.2818 169.046C61.9173 169.098 61.1735 169.766 60.8967 170.043C60.9591 169.793 61.0849 169.438 61.1652 169.181Z" fill="#3C4657"/>
<path d="M63.3812 165.469C63.5667 165.753 63.7503 165.965 63.7891 166.293L63.732 166.481C63.4262 166.604 63.0859 166.523 62.764 166.422C62.9488 166.17 63.2052 165.744 63.3812 165.469Z" fill="#3C4657"/>
<path d="M63.4094 169.183C63.4269 168.753 63.3982 168.695 63.6096 168.335L63.7216 168.265C63.9886 168.337 63.8765 168.272 64.0725 168.464C64.1423 168.788 64.1013 169.058 63.9027 169.33C63.6825 169.012 64.0679 169.162 63.7537 168.949C63.6112 169.105 63.647 169.234 63.6159 169.496L63.3062 169.913C63.3071 169.706 63.3719 169.398 63.4094 169.183Z" fill="#3C4657"/>
<path d="M144.831 143.258C144.473 142.724 143.971 141.013 143.734 140.367C142.117 135.947 140.744 134.401 136.868 131.81C136.436 131.522 135.982 131.135 135.89 130.578C136.201 129.573 139.16 130.256 138.781 131.189C138.499 131.35 138.177 131.482 138.508 131.838C139.409 132.802 140.92 133.697 141.763 134.673C143.583 136.777 144.643 140.117 145.567 142.71C145.154 142.855 145.118 142.944 144.831 143.258Z" fill="#3C4657"/>
<path d="M117.387 210.1C117.22 210.377 117.162 210.358 117.208 210.591C117.392 210.634 118.018 210.357 118.286 210.276L118.377 210.357C118.787 210.363 119.429 210.336 119.814 210.222C120.07 210.216 121.982 210.407 122.201 210.482L122.167 210.574L122.287 210.736C121.828 211.063 121.362 211.487 120.94 211.865C121.411 211.824 121.874 211.765 122.345 211.81C121.387 212.476 119.527 212.909 119.273 213.806C119.093 213.623 118.796 213.476 118.568 213.345L118.543 213.143C118.342 213.029 118.307 213.048 118.077 213.045C117.578 213.202 117.334 213.302 116.858 213.522C116.872 213.468 116.881 213.31 116.887 213.249C116.824 213.288 116.822 213.299 116.745 213.303C114.834 213.37 116.027 212.335 115.767 211.667L115.941 211.282L115.986 211.205L116.397 211.109C116.558 211.145 116.719 211.183 116.879 211.222L116.948 211.153C116.886 210.881 116.829 210.756 116.899 210.497C117.083 210.254 117.112 210.231 117.387 210.1Z" fill="#3C4657"/>
<path d="M120.94 211.865C121.411 211.824 121.874 211.765 122.345 211.81C121.387 212.476 119.527 212.909 119.273 213.806C119.093 213.623 118.796 213.476 118.568 213.345L118.543 213.143L118.695 213.171C119.199 213.738 120.16 212.066 120.726 211.994C120.838 211.98 120.871 211.941 120.94 211.865Z" fill="#3C4657"/>
<path d="M148.125 161.777C151.268 160.531 151.706 160.521 154.968 160.825C155.123 161.085 155.279 161.246 155.283 161.514C155.233 161.523 154.964 161.572 154.928 161.572C154.222 161.568 153.609 162.652 153.035 162.666L152.89 162.556L152.87 162.632L152.917 162.662L152.903 162.545C153.053 162.425 153.368 162.219 153.417 162.072L152.784 162.013C151.849 161.928 149.882 162.532 149.359 163.378L149.114 163.591C148.755 163.889 148.342 163.834 147.913 163.764C147.192 164.066 146.058 165.068 145.424 164.738C145.374 164.639 145.283 164.515 145.308 164.43C145.431 163.993 146.229 163.003 146.535 162.737C146.98 162.763 147.218 162.625 147.639 162.461C147.804 162.235 147.965 162.007 148.125 161.777Z" fill="#3C4657"/>
<path d="M65.3703 161.911C65.5928 161.768 65.6425 161.73 65.8878 161.643L66.0902 161.741C66.0968 162.061 66.047 161.986 66.2107 162.191C66.5028 162.261 66.5727 162.246 66.8794 162.234C66.8083 162.456 66.7206 162.768 66.6291 162.974C65.8728 164.235 65.3216 165.493 65.044 166.937C64.6309 166.966 64.6527 167.008 64.3765 166.702C64.2983 166.389 64.2928 166.346 64.3305 166.026C64.2575 165.637 64.1853 165.407 64.2828 165.017L64.016 164.7C64.2796 164.524 64.3859 164.491 64.5067 164.216C64.4759 163.878 64.4887 163.81 64.5328 163.468C64.7215 163.237 64.729 163.223 64.8367 162.942C64.0307 163.473 62.7203 163.431 61.7153 163.805C61.1102 164.027 60.5434 164.401 59.9672 164.268C59.6033 163.886 59.9594 162.918 60.2215 162.786C61.3921 162.197 62.8818 161.846 64.1982 161.835C64.5228 161.833 64.8433 161.894 65.1677 161.887L65.294 161.884L65.3703 161.911Z" fill="#3C4657"/>
<path d="M61.7153 163.805C61.4531 163.545 61.2605 163.616 61.0773 163.32C61.2388 162.894 62.031 163.087 62.3984 163.172C63.2249 163.365 63.998 162.836 64.763 162.822L64.8367 162.942C64.0307 163.473 62.7203 163.431 61.7153 163.805Z" fill="#3C4657"/>
<path d="M65.3703 161.911C65.5928 161.768 65.6425 161.73 65.8878 161.643L66.0902 161.741C66.0968 162.061 66.047 161.986 66.2107 162.191C66.5028 162.261 66.5727 162.246 66.8794 162.234C66.8083 162.456 66.7206 162.768 66.6291 162.974C66.2437 162.906 66.14 163.126 65.7627 163.034C65.4945 162.808 65.1589 162.246 65.3703 161.911Z" fill="#3C4657"/>
<path d="M64.2828 165.017C64.5196 165.07 64.5812 165.064 64.7531 165.239C64.7316 165.522 64.5254 165.823 64.3305 166.026C64.2575 165.637 64.1853 165.407 64.2828 165.017Z" fill="#3C4657"/>
<path d="M146.556 199.804C147.084 198.294 148.533 197.653 149.266 196.466C150.115 195.092 150.534 193.636 151.818 192.49C152.159 192.186 152.908 191.521 153.341 192.003C153.389 192.328 153.203 192.758 153.095 193.092L153.255 193.494C153.332 193.683 152.682 196.399 152.592 196.869L152.532 196.845C152.461 196.77 152.159 196.524 152.065 196.444L151.907 196.465L151.77 196.696C151.531 196.823 151.658 196.794 151.371 196.762C151.173 196.075 152.637 194.549 152.007 193.685L151.95 193.512C151.672 193.666 151.724 193.769 151.538 193.952C150.76 194.714 150.556 195.695 149.95 196.564C149.379 197.384 148.706 197.929 148.057 198.642C147.625 199.115 147.272 199.785 146.79 200.287C145.939 201.171 145.147 202.001 144.466 203.035C144.328 203.245 144.137 203.41 144.021 203.634L143.723 203.255C144.039 202.252 145.631 200.345 146.556 199.804Z" fill="#3C4657"/>
<path d="M153.255 193.494C153.092 193.578 152.937 193.599 152.762 193.561C152.562 193.283 152.772 193.028 153.027 192.893L153.095 193.092L153.255 193.494Z" fill="#3C4657"/>
<path d="M129.019 209.618C130.16 209.823 131.679 209.979 132.645 210.725C133.719 211.552 134.464 213.195 135.172 214.333C135.642 215.088 136.147 215.822 136.627 216.572C136.644 216.948 136.714 217.147 136.57 217.466C136.293 217.638 136.178 217.593 135.908 217.462C135.493 217.08 135.296 216.071 135.012 215.732C133.508 213.941 132.46 210.746 129.687 210.827C128.948 210.849 128.508 211.227 128.078 211.72C128.048 210.515 127.875 210.146 129.019 209.618Z" fill="#3C4657"/>
<path d="M166.611 153.782C166.731 153.835 167.782 154.265 167.803 154.277C168.188 154.403 168.385 154.466 168.795 154.536C169.984 154.673 170.195 154.811 171.098 155.555C171.662 155.809 173.024 156.219 173.343 156.603L173.279 156.709C172.834 156.802 172.587 156.491 171.926 156.546C170.898 156.706 170.017 156.829 168.988 156.606C168.84 156.574 168.669 156.723 168.567 156.816C168.394 156.634 168.32 156.625 168.089 156.538L168.065 156.514L167.952 156.535C167.717 156.467 167.512 156.296 167.31 156.151C166.491 156.133 165.966 156.174 165.29 155.672C165.523 154.643 166.292 155.19 166.661 154.609L166.564 154.285C166.546 154.138 166.589 153.938 166.611 153.782Z" fill="#3C4657"/>
<path d="M171.098 155.555C171.662 155.809 173.024 156.219 173.343 156.603L173.279 156.709C172.834 156.802 172.587 156.491 171.926 156.546C171.677 156.548 171.494 156.574 171.267 156.478C171.054 156.221 171.094 155.891 171.098 155.555Z" fill="#3C4657"/>
<path d="M167.803 154.277C168.188 154.403 168.385 154.466 168.795 154.536C168.597 154.699 168.369 154.885 168.104 154.858C167.859 154.663 167.919 154.64 167.803 154.277Z" fill="#3C4657"/>
<path d="M181.316 169.556C181.303 169.316 181.256 169.093 181.368 168.892C181.627 168.87 181.704 168.971 181.966 169.112L182.018 169.078C182.097 169.691 182.013 169.668 182.567 170.021C182.112 170.988 181.952 172.335 182.218 173.372C181.947 173.941 181.715 174.271 181.85 174.889L181.97 175.007C182.389 174.874 182.593 174.381 182.749 173.998C182.784 174.336 182.748 174.589 182.535 174.884C182.437 175.019 181.984 175.281 181.946 175.406C181.85 175.729 181.879 176.427 181.546 176.621L181.424 176.604C181.423 176.131 181.69 175.671 181.381 175.351C181.176 175.303 181.175 175.282 180.986 175.359L180.884 175.27L180.892 175.165L180.661 174.92L180.549 174.944C180.414 175.211 180.424 175.253 180.398 175.56C180.249 175.952 179.897 176.27 179.653 176.63C179.259 177.209 178.939 177.939 178.342 178.322C178.212 177.982 178.643 176.849 178.872 176.528C179.495 175.808 180.235 174.424 180.767 173.585C181.033 173.166 181.26 172.272 181.111 171.772L181.054 171.631C181.181 171.217 181.209 170.92 181.088 170.511C181.094 170.475 181.157 168.908 181.164 168.942C181.192 169.174 181.197 169.347 181.316 169.556Z" fill="#3C4657"/>
<path d="M181.316 169.556C181.303 169.316 181.256 169.093 181.368 168.892C181.627 168.87 181.704 168.971 181.966 169.112C181.851 169.537 181.875 169.749 181.659 170.149L181.537 170.165C181.36 169.953 181.367 169.841 181.316 169.556Z" fill="#3C4657"/>
<path d="M135.908 219.561C135.514 219.289 133.057 216.543 132.504 216.017C132.456 215.971 130.519 213.466 130.482 213.216C130.398 212.654 130.001 212.477 129.862 212.223L129.934 212.141C130.95 212.354 132.456 214.784 133.107 215.541C133.523 216.023 134.022 216.191 134.522 216.804C135.576 217.85 136.661 218.934 137.768 219.927C137.975 220.113 138.343 220.124 138.608 220.083C138.103 220.763 137.819 220.132 137.515 220.797C137.649 221.033 137.561 220.928 137.83 221.083L137.771 221.122L137.472 221.115C137.201 221.257 137.605 221.511 137.451 221.957L137.31 221.979C137.124 221.821 137.112 221.83 137.032 221.59C137.063 221.282 137.088 221.263 137.251 220.984L137.297 220.91C136.739 220.416 136.389 220.136 135.908 219.561Z" fill="#3C4657"/>
<path d="M134.522 216.804C135.576 217.85 136.661 218.934 137.768 219.927C137.975 220.113 138.343 220.124 138.608 220.083C138.103 220.763 137.819 220.132 137.515 220.797C137.649 221.033 137.561 220.928 137.83 221.083L137.771 221.122L137.472 221.115C137.201 221.257 137.605 221.511 137.451 221.957L137.31 221.979C137.124 221.821 137.112 221.83 137.032 221.59C137.063 221.282 137.088 221.263 137.251 220.984L137.297 220.91C136.739 220.416 136.389 220.136 135.908 219.561C136.284 219.455 136.319 220.019 136.912 220.166C137.085 220.053 137.037 220.131 137.091 219.952C136.959 219.673 137.138 219.609 136.949 219.295C136.772 219.182 136.758 219.123 136.604 219.15L136.827 219.551L136.795 219.621L136.583 219.582C136.237 219.121 135.951 218.67 135.576 218.222C135.109 217.663 134.683 217.544 134.522 216.804Z" fill="#3C4657"/>
<path d="M108.632 152.032C109.455 152.09 111.904 153.274 113.132 153.3C113.32 153.319 113.689 153.345 113.859 153.381L114.34 153.453C114.454 153.687 114.432 154.129 114.585 154.498L114.553 154.56C113.831 154.525 113.043 154.438 112.358 154.644C112.174 154.683 112.451 154.635 112.243 154.935L112.08 154.956L112.038 154.604L111.909 154.508L111.527 154.58C111.477 154.422 111.498 154.292 111.501 154.12C111.282 153.936 111.112 153.773 110.842 153.794L110.772 153.97C110.395 154.046 109.259 152.634 108.873 152.508L108.734 152.596L108.743 152.846L108.722 152.958C108.531 152.8 108.313 152.793 108.064 152.682C108.195 152.56 108.12 152.611 108.371 152.607L108.418 152.447L108.632 152.032Z" fill="#3C4657"/>
<path d="M113.132 153.3C113.32 153.319 113.689 153.345 113.859 153.381L114.34 153.453C114.454 153.687 114.432 154.129 114.585 154.498L114.553 154.56C113.831 154.525 113.043 154.438 112.358 154.644L112.497 154.395C112.425 154.101 112.348 153.832 112.48 153.559C112.849 153.29 112.677 153.36 113.132 153.3Z" fill="#3C4657"/>
<path d="M58.4244 167.812C58.7452 167.75 59.7381 167.393 60.1092 167.273C60.146 167.402 60.1687 167.479 60.1849 167.613C60.2424 168.09 60.872 168.656 60.9724 169.074C60.3087 168.937 59.9446 169.251 59.4864 169.228C58.7822 169.74 57.9555 169.826 57.0691 170.335L57.0576 170.199C57.0092 169.664 57.0352 169.549 57.108 169.015L57.0485 168.895C56.8958 168.822 56.8134 168.783 56.6712 168.69L56.5683 168.622C57.1752 168.308 57.7771 168.033 58.4244 167.812Z" fill="#3C4657"/>
<path d="M57.108 169.015L57.2595 168.803C57.8281 168.592 59.0986 168.905 59.9178 168.826L59.9207 168.999C59.779 169.032 59.6598 169.072 59.5277 169.133L59.4864 169.228C58.7822 169.74 57.9555 169.826 57.0691 170.335L57.0576 170.199C57.0092 169.664 57.0352 169.549 57.108 169.015Z" fill="#3C4657"/>
<path d="M58.4244 167.812C58.7452 167.75 59.7381 167.393 60.1092 167.273C60.146 167.402 60.1687 167.479 60.1849 167.613C60.2424 168.09 60.872 168.656 60.9724 169.074C60.3087 168.937 59.9446 169.251 59.4864 169.228L59.5277 169.133C59.6598 169.072 59.779 169.032 59.9207 168.999L59.9178 168.826L60.0269 168.792C59.8839 168.287 59.5515 168.26 59.1085 168.152L59.1012 168.272C58.8127 168.343 59.0305 167.956 58.4244 167.812Z" fill="#3C4657"/>
<path d="M59.1085 168.152C59.1402 167.839 59.073 167.956 59.2705 167.766C59.7494 167.726 60.287 168.29 60.3087 168.721C60.141 168.82 60.2307 168.793 60.0269 168.792C59.8839 168.287 59.5515 168.26 59.1085 168.152Z" fill="#3C4657"/>
<path d="M126.088 151.816C125.841 150.107 125.159 148.08 125.835 146.22C126.15 146.476 126.184 146.388 126.519 146.541C126.311 146.816 126.274 146.86 126.174 147.188C126.319 147.929 127.159 147.145 127.357 147.399L127.354 147.434C127.322 148.011 127.307 148.743 127.076 149.266C126.842 150.089 126.785 150.589 126.767 151.447C126.508 151.545 126.321 151.673 126.088 151.816Z" fill="#3C4657"/>
<path d="M127.354 147.434C127.322 148.011 127.307 148.743 127.076 149.266C126.456 148.942 126.403 148.461 126.565 147.818C126.908 147.707 126.977 147.677 127.283 147.481L127.354 147.434Z" fill="#3C4657"/>
<path d="M180.601 169.452L180.988 169.35C181.183 170.05 181.341 170.64 181.631 171.314C182.109 170.409 182.222 170.522 182.262 169.547C182.479 169.833 182.428 170.233 182.473 170.651C182.593 171.06 182.565 171.357 182.439 171.771L182.495 171.912C181.701 172.344 181.227 173.574 180.675 174.27C180.528 174.454 180.172 174.751 179.98 174.915L178.991 175.796C178.48 175.85 178.361 175.891 177.873 176.056C179.156 175.091 180.455 173.391 181.172 171.962C181.205 171.897 180.675 169.744 180.601 169.452Z" fill="#3C4657"/>
<path d="M116.608 156.066C117.198 156.034 117.324 156.032 117.755 155.643C118.419 156.095 118.795 155.923 119.552 155.986L119.589 155.963C119.888 155.96 121.532 156.076 121.852 156.127L122.473 156.326L122.501 156.415C122.266 156.515 122.251 156.513 122.01 156.554L121.856 156.698C121.63 156.815 120.252 156.784 119.89 156.808C118.742 156.885 116.056 157.318 115.1 156.678L115.091 156.557C115.581 156.164 115.923 156.16 116.534 156.076L116.608 156.066Z" fill="#3C4657"/>
<path d="M133.1 145.39L133.092 145.258C132.949 145.194 132.924 145.188 132.801 145.094C132.85 144.873 132.851 144.781 132.996 144.606C133.31 144.826 133.286 144.881 133.641 144.912C134.114 145.373 135.487 148.175 135.929 148.977C136.034 149.169 136.203 150.042 136.25 150.31C136.093 150.475 136.04 150.56 135.822 150.633C135.606 150.517 135.607 150.481 135.476 150.275L135.283 150.298C134.796 149.613 134.268 147.912 133.855 147.119C133.542 146.517 133.712 145.856 133.1 145.39Z" fill="#3C4657"/>
<path d="M176.085 184.432C176.487 184.371 176.565 184.649 176.957 184.641L177.039 184.698C176.21 185.656 173.97 186.369 172.867 187.307C172.582 187.55 170.085 188.798 169.715 188.878L169.621 188.814C169.533 188.617 169.635 188.463 169.712 188.208C170.743 187.681 171.917 187.128 172.925 186.571C173.444 186.284 174.456 185.194 175.053 184.899C175.179 184.837 175.715 184.864 175.991 184.791L176.085 184.432Z" fill="#3C4657"/>
<path d="M138.393 165.908C138.651 166.149 138.622 166.242 138.639 166.627C138.541 167.061 138.454 167.386 138.31 167.804C137.967 168.807 138.206 170.096 138.766 170.982C139.522 172.181 140.607 172.798 141.909 173.275L142.148 173.548L142.129 173.681C141.852 173.748 141.664 173.723 141.379 173.71C140.107 173.329 138.285 171.71 137.769 170.478C137.152 169.004 137.804 167.279 138.393 165.908Z" fill="#3C4657"/>
<path d="M157.262 190.253C156.15 190.469 155.047 190.736 153.932 190.937C153.592 190.999 153.242 191.073 153.007 190.789L153.048 190.579C153.264 190.28 153.516 190.073 153.863 189.949C154.052 189.78 154.83 190.162 154.87 190.127C155.21 189.818 155.938 189.706 156.327 189.588C157.294 189.298 158.153 189.043 159.139 188.861L159.132 188.93C159.087 189.369 159.252 189.572 159.027 189.959C158.879 190.212 158.313 190.33 158.077 190.261C158.133 190.194 158.109 190.239 158.115 190.118C157.896 190.075 157.498 190.197 157.262 190.253Z" fill="#3C4657"/>
<path d="M151.282 152.493C150.914 152.48 150.753 152.49 150.397 152.367L150.406 152.302C151.577 151.857 153.873 152.126 155.265 152.156C155.929 152.233 157.796 152.284 158.266 152.6C158.143 152.766 158.073 153.1 158.07 153.299C157.638 153.319 157.07 153.303 156.696 153.482C155.202 152.787 155.271 153.104 153.774 152.659C153.395 152.879 152.717 153.147 152.467 152.643C152.413 152.421 152.464 152.52 152.293 152.345C152.043 152.298 151.608 152.445 151.282 152.493Z" fill="#3C4657"/>
<path d="M65.294 161.884L65.3693 161.812C66.3701 160.853 66.8681 159.707 68.1997 159.018L68.3368 159.036C68.4129 159.321 68.3358 159.523 68.3739 159.63C68.5952 160.252 69.2016 160.93 69.6456 161.364C69.2644 161.247 68.7884 161.113 68.4238 160.971C67.7811 161.312 67.3347 161.786 67.1171 161.897C67.0034 162.021 66.9297 162.075 66.8794 162.234C66.5727 162.246 66.5028 162.261 66.2107 162.191C66.047 161.986 66.0968 162.061 66.0902 161.741L65.8878 161.643C65.6425 161.73 65.5928 161.768 65.3703 161.911L65.294 161.884Z" fill="#3C4657"/>
<path d="M66.0902 161.741C66.3108 161.457 66.2705 161.41 66.5506 161.313C66.7882 161.418 66.9514 161.684 67.1171 161.897C67.0034 162.021 66.9297 162.075 66.8794 162.234C66.5727 162.246 66.5028 162.261 66.2107 162.191C66.047 161.986 66.0968 162.061 66.0902 161.741Z" fill="#3C4657"/>
<path d="M141.797 168.942C141.893 168.906 142.089 168.8 142.19 168.75C144.62 169.288 145.023 171.204 147.52 171.005C148.78 170.904 149.022 170.851 150.133 170.244C151.159 169.683 151.181 170.251 151.69 168.9L151.807 168.943C151.713 169.279 151.614 169.66 151.384 169.927C150.257 171.233 147.658 171.843 146.032 171.36C144.36 170.864 143.626 169.334 141.797 168.942Z" fill="#3C4657"/>
<path d="M75.4912 159.407C75.8277 159.027 76.3914 157.87 76.0113 157.413C75.9919 157.914 75.7186 158.542 75.1244 158.359C75.2981 157.747 75.6529 157.312 75.7669 156.422L75.6986 156.361C74.6327 157.59 73.0507 158.417 72.0776 159.799C71.9373 159.998 71.7796 160.25 71.6412 160.457L71.621 160.408C72.4537 158.241 74.4784 157.677 75.34 156.193C75.5646 155.806 76.3731 155.775 76.774 155.571C76.9705 155.471 76.9835 155.273 77.047 155.073C77.3453 154.808 77.6472 154.839 78.0442 154.849L77.9969 155.077C77.8165 155.338 77.8317 155.239 77.8225 155.518C78.0395 155.797 78.5055 155.832 78.8666 155.899C74.3662 155.647 77.4582 156.93 75.6182 159.567L75.4912 159.407Z" fill="#3C4657"/>
<path d="M123.904 208.212C125.763 208.055 126.846 208.094 128.463 207.133C128.74 206.968 130.353 206.868 130.788 206.841C129.569 208.08 128.728 207.674 127.225 208.285C126.822 208.449 126.624 208.864 126.267 208.843C125.687 208.455 125.106 208.76 124.428 208.924C123.772 208.744 124.401 208.887 123.904 208.212Z" fill="#3C4657"/>
<path d="M136.627 216.572C137.489 217.75 138.413 219.224 139.937 219.544C139.523 219.946 139.085 219.734 138.706 219.943C138.586 219.935 138.052 219.897 137.972 219.859C137.272 219.525 136.23 218.096 135.908 217.462C136.178 217.593 136.293 217.638 136.57 217.466C136.714 217.147 136.644 216.948 136.627 216.572Z" fill="#3C4657"/>
<path d="M128.045 144.594C129.318 144.073 132.682 143.744 133.641 144.912C133.286 144.881 133.31 144.826 132.996 144.606C132.851 144.781 132.85 144.873 132.801 145.094C132.924 145.188 132.949 145.194 133.092 145.258L133.1 145.39C132.927 145.378 132.413 145.118 132.152 145.095C130.933 144.987 129.623 144.992 128.419 145.162L128.381 145.146C128.286 144.931 128.177 144.786 128.045 144.594Z" fill="#3C4657"/>
<path d="M145.919 218.244C145.941 217.833 146.521 218.001 146.811 217.708C146.742 217.19 146.777 216.579 146.518 216.149L146.565 216.019C147.376 216.923 147.833 217.744 148.407 218.801C147.15 219.994 146.567 219.943 145.071 220.49C145.527 219.449 147.313 219.791 147.068 218.216C146.74 217.804 146.328 218.054 145.919 218.244Z" fill="#3C4657"/>
<path d="M161.854 152.37C163.677 152.986 164.784 153.285 166.611 153.782C166.589 153.938 166.546 154.138 166.564 154.285C166.247 154.309 166.215 154.421 166.043 154.672L165.994 154.744C165.712 154.797 165.824 154.421 165.439 154.395C164.849 154.219 164.434 154.121 163.829 154.002C163.458 153.817 163.162 153.638 162.808 153.423C162.574 153.314 162.3 153.318 162.037 153.3L162.133 153.172L162.462 153.137L162.35 153.063C162.345 152.906 162.343 152.926 162.306 152.772C162.039 152.624 162.005 152.621 161.854 152.37Z" fill="#3C4657"/>
<path d="M115.75 210.684C115.962 210.804 116.193 210.97 116.397 211.109L115.986 211.205L115.941 211.282L115.761 211.253C115.286 211.66 115.25 212.662 114.468 213.454C114.209 214.259 113.876 214.172 113.991 214.894C113.82 214.585 113.695 214.393 113.361 214.344C113.454 214.059 113.467 213.721 113.501 213.419C113.664 211.984 114.656 211.509 115.75 210.684Z" fill="#3C4657"/>
<path d="M71.5557 156.213C72.488 156.534 72.5969 157.799 71.839 158.312C71.486 158.551 71.267 158.53 70.8326 158.882L70.7455 158.954C70.6725 159.217 70.6175 159.591 70.423 159.727C70.3455 159.35 68.3253 160.826 68.5 160.5C68.6426 160.29 67.9237 160.268 68 160C67.2408 160.428 68.4238 158.733 69.2492 158.328C70.6264 157.434 70.4733 156.646 71.5557 156.213Z" fill="#3C4657"/>
<path d="M118.072 208.845C119.145 208.605 120.235 208.451 121.333 208.384C122.136 208.341 123.14 208.374 123.904 208.212C124.401 208.887 123.772 208.744 124.428 208.924C123.543 209.004 121.618 209.457 120.889 209.225C119.903 209.031 120.348 208.509 118.784 208.963C118.466 208.969 118.324 209.009 118.072 208.845Z" fill="#3C4657"/>
<path d="M141.909 173.275C143.919 173.832 145.252 173.787 147.256 173.691C147.064 173.943 146.843 174.095 147.001 174.425C146.472 174.418 145.89 174.547 145.347 174.529C144.069 174.487 142.614 174.049 141.379 173.71C141.664 173.723 141.852 173.748 142.129 173.681L142.148 173.548L141.909 173.275Z" fill="#3C4657"/>
<path d="M99.2813 153.61C100.103 153.767 101.395 153.483 102.129 153.599L102.19 153.796C102.39 154.202 102.651 154.285 103.033 154.56C103.748 154.468 104.188 154.425 104.902 154.549C104.739 154.746 104.723 154.734 104.491 154.825C102.958 154.783 102.102 154.601 100.587 154.343C99.9226 154.229 99.2905 154.315 98.5315 154.155L98.5492 153.996C98.7307 153.903 98.8685 153.879 99.0639 153.831C99.1335 153.682 99.1374 153.695 99.2813 153.61Z" fill="#3C4657"/>
<path d="M128.045 144.594C128.177 144.786 128.286 144.931 128.381 145.146L128.419 145.162C128.801 145.441 128.996 145.843 128.837 146.306C128.641 146.493 128.646 146.478 128.37 146.515C128.079 146.313 128.396 146.145 127.985 146.232C127.728 146.287 127.289 146.497 127.008 146.407L126.881 146.269C126.662 146.335 126.703 146.35 126.519 146.541C126.184 146.388 126.15 146.476 125.835 146.22C126.151 145.814 126.756 145.46 127.198 145.169L128.045 144.594Z" fill="#3C4657"/>
<path d="M125.835 146.22C126.151 145.814 126.756 145.46 127.198 145.169C127.154 145.412 126.994 146.201 127.008 146.407L126.881 146.269C126.662 146.335 126.703 146.35 126.519 146.541C126.184 146.388 126.15 146.476 125.835 146.22Z" fill="#3C4657"/>
<path d="M145.567 142.71C145.644 143.045 145.761 143.456 145.768 143.792C145.978 144.556 145.948 145.828 146.126 146.807C146.076 146.858 146.024 146.875 145.957 146.911C145.644 146.729 145.606 146.678 145.263 146.697C145.33 145.767 145.203 145.324 145.009 144.415C144.977 143.914 144.95 143.747 144.831 143.258C145.118 142.944 145.154 142.855 145.567 142.71Z" fill="#3C4657"/>
<path d="M145.567 142.71C145.644 143.045 145.761 143.456 145.768 143.792C145.637 143.906 145.523 144.005 145.382 144.11L145.355 144.085C145.125 144.123 145.073 144.173 145.009 144.415C144.977 143.914 144.95 143.747 144.831 143.258C145.118 142.944 145.154 142.855 145.567 142.71Z" fill="#3C4657"/>
<path d="M60.7762 170.989C60.843 171.258 60.8287 171.381 60.8089 171.659L60.8732 171.771C61.0452 171.775 60.9805 171.783 61.1427 171.714L61.1779 171.825L61.022 171.9L61.1452 172.024C61.1747 172.307 61.2234 172.474 61.125 172.729L61.0332 172.769C60.6624 172.645 60.7387 172.61 60.4116 172.683C60.2659 172.9 60.2557 173.069 60.2992 173.345C60.2887 173.573 60.3455 173.692 60.4229 173.899C59.7165 174.297 59.3375 175.638 59.0675 176.276C58.9787 175.909 59.0621 176.016 58.7875 175.845C59.3285 174.389 59.9115 172.309 60.7762 170.989Z" fill="#3C4657"/>
<path d="M72.1148 164.742C72.3358 164.9 72.3247 164.84 72.3986 165.051C71.934 166.209 71.1963 167.902 70.7529 169.046C70.4143 169.92 69.145 175.335 68.854 175.618L68.8081 175.546C69.0594 174.835 69.1382 174.092 69.3178 173.373C69.9205 170.964 70.9659 166.895 72.1148 164.742Z" fill="#3C4657"/>
<path d="M154.03 168.234C153.74 168.328 153.429 168.477 153.147 168.459L153.114 168.339C153.377 167.978 154.099 167.542 154.413 167.915C154.746 168.31 155.122 169.889 155.214 170.416C154.872 171.28 154.609 171.594 153.776 172.019L153.561 172.004C154.161 169.923 155.23 171.11 154.03 168.234Z" fill="#3C4657"/>
<path d="M114.468 213.454C115.25 212.662 115.286 211.66 115.761 211.253L115.941 211.282L115.767 211.667C115.391 212.238 115.287 212.994 115.078 213.281L114.741 213.318L114.672 213.424C114.755 213.721 114.879 213.93 114.976 214.319C115.227 215.324 116.147 215.815 117.046 216.056L117.014 216.12C116.296 215.993 116.123 216.001 115.409 216.046C114.705 215.703 114.495 215.476 114.104 214.831C114.265 214.168 114.734 213.971 114.468 213.454Z" fill="#3C4657"/>
<path d="M147.256 173.691C148.574 173.474 149.897 173.297 151.226 173.162C151.098 173.457 151.077 173.479 151.071 173.793C150.771 173.861 150.258 173.9 149.922 173.939C149.136 174.031 147.732 174.409 147.001 174.425C146.843 174.095 147.064 173.943 147.256 173.691Z" fill="#3C4657"/>
<path d="M158.844 152.426L159.125 152.593C160.182 153.241 160.54 152.78 161.594 153.178C161.748 153.236 161.873 153.287 162.037 153.3C162.3 153.318 162.574 153.314 162.808 153.423C162.286 153.641 161.653 153.324 160.969 153.253L160.983 153.305C161.333 153.492 161.326 153.416 161.478 153.705L161.47 153.867C161.186 153.816 160.913 153.779 160.628 153.739C159.918 153.539 158.833 153.419 158.07 153.299C158.073 153.1 158.143 152.766 158.266 152.6C158.437 152.647 158.551 152.7 158.718 152.654L158.844 152.426Z" fill="#3C4657"/>
<path d="M63.3883 173.069C63.4568 173.374 63.428 173.525 63.6321 173.675L63.8735 173.625C64.2238 175.248 63.7769 177.323 64.2064 178.89C64.1478 179.053 64.1113 179.193 64.0068 179.331C63.5832 178.042 63.3166 174.413 63.3883 173.069Z" fill="#3C4657"/>
<path d="M80.435 156.319L80.866 156.365L80.9316 156.453C80.7913 156.593 80.7671 156.607 80.6004 156.717L80.0945 157.324C79.7831 157.005 79.6778 157.075 79.2457 157.234C79.2241 157.325 79.2091 157.333 79.2221 157.417C79.0937 157.408 79.14 157.415 79.0272 157.394L78.7248 157.34C78.1247 157.228 77.2757 157.637 76.6407 157.56L76.5734 157.451C76.8658 157.261 77.3264 157.591 77.5789 157.208C77.2943 157.001 77.0725 157.163 76.636 156.975L76.6439 156.876C77.5042 156.911 79.5301 156.475 80.435 156.319Z" fill="#3C4657"/>
<path d="M160.702 151.877C161.028 152.036 161.32 152.193 161.667 152.296L161.854 152.37C162.005 152.621 162.039 152.624 162.306 152.772C162.343 152.926 162.345 152.906 162.35 153.063L162.462 153.137L162.133 153.172L162.037 153.3C161.873 153.287 161.748 153.236 161.594 153.178C160.54 152.78 160.182 153.241 159.125 152.593C159.26 152.421 159.326 152.418 159.531 152.31L159.491 152.239C159.776 152.221 160.438 152 160.702 151.877Z" fill="#3C4657"/>
<path d="M161.667 152.296L161.854 152.37C162.005 152.621 162.039 152.624 162.306 152.772C162.343 152.926 162.345 152.906 162.35 153.063C162.023 153.005 161.625 152.931 161.428 152.656C161.463 152.409 161.432 152.498 161.667 152.296Z" fill="#3C4657"/>
<path d="M83.8818 155.299L84.0451 155.456L83.8882 155.57C84.0121 155.704 84.5747 155.778 84.7703 155.764L84.8345 155.692L84.9379 155.766L85.2145 156.064L85.1951 156.187C84.9617 156.153 84.1859 155.993 83.9988 156.019C82.6704 156.197 82.0099 156.675 80.6004 156.717C80.7671 156.607 80.7913 156.593 80.9316 156.453L80.866 156.365L80.435 156.319C81.0663 156.281 81.6975 156.24 82.3284 156.195C82.496 155.991 82.5975 155.882 82.7857 155.696C82.2614 155.683 80.689 155.619 80.2955 155.556C80.6681 155.337 82.876 155.519 83.7736 155.324L83.8818 155.299Z" fill="#3C4657"/>
<path d="M146.126 146.807C146.23 147.3 146.516 147.813 146.402 148.323C146.238 149.05 145.451 149.079 145.136 148.432C144.849 147.839 145.083 147.278 145.263 146.697C145.606 146.678 145.644 146.729 145.957 146.911C146.024 146.875 146.076 146.858 146.126 146.807Z" fill="#3C4657"/>
<path d="M103.016 206.848C104.816 206.593 106.637 206.955 108.434 207.086C108.452 207.139 108.471 207.192 108.49 207.244C108.213 207.39 107.801 207.397 107.456 207.46C106.613 207.465 104.965 207.53 104.223 207.348C104.112 207.207 104.073 207.149 103.934 207.035L103.842 206.961C103.903 206.931 103.875 206.955 103.912 206.877C103.588 206.879 103.339 206.87 103.016 206.848Z" fill="#3C4657"/>
<path d="M144.693 161.988L144.786 162.104C144.572 162.421 144.498 162.45 144.126 162.574C142.511 162.863 142.056 163.594 140.734 164.268C140.428 164.124 140.5 164.206 140.319 163.955C141.223 163.3 141.091 163.749 142.144 162.615C142.969 162.489 143.569 162.149 144.693 161.988Z" fill="#3C4657"/>
<path d="M75.4912 159.407L75.6182 159.567C75.0063 160.438 74.5129 161.428 73.9712 162.347C73.8162 162.61 73.7012 162.962 73.3792 163.046C73.2906 163.034 72.999 163.114 72.7709 163.099C72.5206 162.657 72.5416 162.581 72.0613 162.356C72.5203 162.321 72.6906 162.358 73.1436 162.427C73.0412 162.551 73.0481 162.551 72.9914 162.703C73.0839 162.723 73.1484 162.755 73.2281 162.647C73.9575 161.665 74.4402 160.057 75.4912 159.407Z" fill="#3C4657"/>
<path d="M83.8818 155.299C84.3313 155.067 87.9812 154.705 88.6393 154.658L88.8051 154.906C87.4774 155.03 86.5044 155.428 85.2603 155.861C85.4729 155.787 84.9564 155.764 84.9379 155.766L84.8345 155.692C84.6494 155.576 84.2823 155.518 84.0451 155.456L83.8818 155.299Z" fill="#3C4657"/>
<path d="M108.743 152.846L108.952 152.841C109.088 152.999 109.244 153.128 109.404 153.259C109.374 153.393 109.403 153.347 109.349 153.413C108.949 153.125 108.357 153.124 107.953 153.397L108.01 153.481C108.53 153.582 108.818 153.485 109.343 153.671L109.381 153.844C109.06 154.31 108.787 154.095 108.47 154.309C108.384 154.196 108.42 154.236 108.289 154.163L108.156 154.28C107.124 153.403 106.487 153.619 105.207 153.664C104.94 153.609 104.775 153.727 104.484 153.608L104.57 153.492C105.541 153.406 106.501 153.415 107.447 153.28C107.763 153.235 108.349 153.046 108.722 152.958L108.743 152.846Z" fill="#3C4657"/>
<path d="M144.693 161.988C145.655 161.752 146.928 162 148.125 161.777C147.965 162.007 147.804 162.235 147.639 162.461C147.218 162.625 146.98 162.763 146.535 162.737C146.519 162.633 146.514 162.655 146.454 162.557C145.921 162.46 144.726 162.543 144.126 162.574C144.498 162.45 144.572 162.421 144.786 162.104L144.693 161.988Z" fill="#3C4657"/>
<path d="M136.25 150.31C136.403 151.022 136.798 152.392 136.431 153.005C136.19 153.123 136.187 153.072 135.872 153.048C135.684 152.735 135.709 151.645 135.61 151.231C135.524 150.866 135.427 150.637 135.283 150.298L135.476 150.275C135.607 150.481 135.606 150.517 135.822 150.633C136.04 150.56 136.093 150.475 136.25 150.31Z" fill="#3C4657"/>
<path d="M108.743 152.846L108.734 152.596L108.873 152.508C109.259 152.634 110.395 154.046 110.772 153.97L110.842 153.794C111.112 153.773 111.282 153.936 111.501 154.12C110.473 154.429 109.469 154.432 108.786 154.643L108.485 154.453L108.47 154.309C108.787 154.095 109.06 154.31 109.381 153.844L109.343 153.671L109.349 153.413C109.403 153.347 109.374 153.393 109.404 153.259C109.244 153.128 109.088 152.999 108.952 152.841L108.743 152.846ZM109.575 154.236C109.824 154.191 109.976 154.209 110.142 154.071C110.069 153.911 110.108 153.959 109.962 153.854C109.702 153.972 109.606 153.961 109.467 154.158L109.575 154.236Z" fill="#3C4657"/>
<path d="M109.962 153.854C110.108 153.959 110.069 153.911 110.142 154.071C109.976 154.209 109.824 154.191 109.575 154.236L109.467 154.158C109.606 153.961 109.702 153.972 109.962 153.854Z" fill="#3C4657"/>
<path d="M62.6447 189.872C62.9028 189.613 62.7847 189.689 63.246 189.666L63.3476 189.725C63.2471 190.227 62.8781 191.508 62.656 191.973C62.5331 192.22 62.4381 192.421 62.1419 192.454C61.9353 192.276 61.985 192.211 61.9084 191.874C61.9079 191.672 61.9866 191.057 62.0108 190.829C62.3038 190.515 62.5485 190.289 62.6447 189.872Z" fill="#3C4657"/>
<path d="M108.49 207.244C109.07 206.978 116.265 207.109 116.77 207.416C114.951 207.632 114.729 207.461 112.927 207.246C111.516 207.077 108.879 207.772 107.456 207.46C107.801 207.397 108.213 207.39 108.49 207.244Z" fill="#3C4657"/>
<path d="M138.393 165.908C138.636 165.156 139.572 164.25 140.319 163.955C140.5 164.206 140.428 164.124 140.734 164.268C140.038 164.657 139.152 165.418 139.315 166.317C139.157 166.419 139.004 166.489 138.921 166.651L138.791 166.58L138.639 166.627C138.622 166.242 138.651 166.149 138.393 165.908Z" fill="#3C4657"/>
<path d="M61.8971 182.828C61.9376 182.728 61.9802 182.659 62.0323 182.565L62.4056 182.464C62.6736 183.563 62.9942 184.647 63.3662 185.716C63.418 185.965 63.4685 186.293 63.6206 186.494C63.7262 186.732 63.8219 186.866 63.7685 187.116L63.6447 187.058C62.8531 185.887 62.3766 184.202 61.8971 182.828Z" fill="#3C4657"/>
<path d="M166.66 189.048C167.78 188.466 168.995 188.631 169.712 188.208C169.635 188.463 169.533 188.617 169.621 188.814L169.715 188.878C168.794 189.16 167.661 189.538 166.681 189.539C166.664 189.445 166.679 189.193 166.66 189.048Z" fill="#3C4657"/>
<path d="M69.3275 214.375C69.9521 214.445 70.1853 214.392 70.5 215C70.4807 215.194 70.4806 215.24 70.4244 215.426C69.7699 215.825 68.1791 215.772 68.8519 214.467C69.0371 214.498 69.1489 214.437 69.3275 214.375Z" fill="#3C4657"/>
<path d="M70.4244 215.426C70.0684 215.336 69.7646 215.255 69.5613 214.943L69.6327 214.814C70.0091 214.745 70.0871 214.876 70.5 215C70.4807 215.194 70.4806 215.24 70.4244 215.426Z" fill="#3C4657"/>
<path d="M118.562 155.667C118.539 155.606 118.518 155.528 118.5 155.463C119.253 155.091 120.459 154.678 120.938 155.62C120.387 155.936 120.173 155.67 119.589 155.963L119.552 155.986C118.795 155.923 118.419 156.095 117.755 155.643L117.77 155.584C118.13 155.529 118.211 155.619 118.562 155.667Z" fill="#3C4657"/>
<path d="M138.921 166.651C139.004 166.489 139.157 166.419 139.315 166.317C140.065 167.583 140.858 168.114 142.19 168.75C142.089 168.8 141.893 168.906 141.797 168.942C141.399 168.79 140.962 168.65 140.555 168.512C140.335 168.202 139.263 167.051 138.921 166.651Z" fill="#3C4657"/>
<path d="M108.485 154.453L108.786 154.643C108.852 154.721 108.991 154.873 109.042 154.95C107.8 155.337 105.845 154.968 104.491 154.825C104.723 154.734 104.739 154.746 104.902 154.549C105.694 154.677 107.289 154.847 108.041 154.58C108.181 154.53 108.15 154.517 108.356 154.477L108.485 154.453Z" fill="#3C4657"/>
<path d="M60.5525 173.796C60.7915 173.988 60.8 174.006 61.0937 174.023C61.0919 174.136 61.1036 174.086 61.0685 174.174L61.3923 174.285C61.3091 174.519 61.253 174.657 61.1474 174.881L61.1968 175.374L61.2201 175.607L61.1137 175.7L60.9846 175.67C60.889 175.919 60.8924 175.944 60.8757 176.215L60.7832 176.079L60.7775 175.814L60.6852 175.734L60.3467 175.972L60.2375 175.879L60.2261 175.687C60.0715 175.575 60.0878 175.595 59.9588 175.456L60.2519 175.391C60.6434 174.873 60.1688 174.521 60.5264 173.912L60.5525 173.796Z" fill="#3C4657"/>
<path d="M61.1474 174.881C60.9975 174.994 61.0585 174.96 60.8732 175.009L60.7372 174.925C60.6377 174.714 60.5623 174.452 60.7338 174.268L61.0465 174.3L61.0685 174.174L61.3923 174.285C61.3091 174.519 61.253 174.657 61.1474 174.881Z" fill="#3C4657"/>
<path d="M100.656 207.011C100.919 207.011 101.313 206.997 101.564 207.018C101.688 207.523 101.833 207.311 102.272 207.402C102.58 207.722 102.793 207.596 103.218 207.504L103.633 207.645C102.944 207.858 102.004 207.799 101.048 207.959C100.77 207.671 100.407 207.511 100.226 207.184L100.258 207.085L100.656 207.011Z" fill="#3C4657"/>
<path d="M126.767 151.447C126.824 152.036 126.873 152.712 126.968 153.289L126.909 153.621C126.713 153.701 126.332 153.903 126.166 153.876C126.275 153.161 126.16 152.541 126.088 151.816C126.321 151.673 126.508 151.545 126.767 151.447Z" fill="#3C4657"/>
<path d="M92.4324 154.043C92.479 154.03 92.6302 153.956 92.6805 153.933C93.2727 152.958 93.8985 153.223 94.9366 153.302C94.6704 153.399 94.5399 153.337 94.3495 153.405C94.3891 153.559 94.426 153.656 94.4306 153.814C94.3218 153.615 94.3211 153.566 94.1238 153.456L93.9699 153.502C93.7539 153.967 93.8451 154.074 93.6929 154.438C93.4236 154.487 92.6642 154.479 92.3515 154.482L92.5667 154.196L92.4324 154.043Z" fill="#3C4657"/>
<path d="M57.0691 170.335C56.8812 170.413 56.8539 170.441 56.648 170.442C55.7943 169.875 55.8011 169.248 56.5683 168.622L56.6712 168.69C56.8134 168.783 56.8958 168.822 57.0485 168.895L57.108 169.015C57.0352 169.549 57.0092 169.664 57.0576 170.199L57.0691 170.335Z" fill="#3C4657"/>
<path d="M57.773 178.313L58.2132 178.518C57.9851 179.106 57.3615 181.218 57.2247 181.498L57.0087 181.248C56.978 180.21 57.338 179.238 57.773 178.313Z" fill="#3C4657"/>
<path d="M94.9366 153.302C95.6583 153.256 96.1685 153.23 96.9007 153.255C96.7977 153.445 96.7756 153.444 96.7768 153.655L96.7608 153.675C96.4497 153.856 96.2739 153.864 96.0412 153.977C95.3253 153.658 94.9994 153.439 94.5546 154.34L94.3633 154.364C94.3674 154.245 94.4137 153.946 94.4306 153.814C94.426 153.656 94.3891 153.559 94.3495 153.405C94.5399 153.337 94.6704 153.399 94.9366 153.302Z" fill="#3C4657"/>
<path d="M105.258 151.539C106.859 151.601 107.168 151.765 108.632 152.032L108.418 152.447C107.752 152.362 106.554 151.858 106.008 152.111L105.859 152.19L105.489 152.017L105.258 151.539Z" fill="#3C4657"/>
<path d="M161.47 153.867L161.478 153.705C161.326 153.416 161.333 153.492 160.983 153.305L160.969 153.253C161.653 153.324 162.286 153.641 162.808 153.423C163.162 153.638 163.458 153.817 163.829 154.002C163.45 154.222 163.302 154.288 162.866 154.262C162.607 154.14 161.765 153.917 161.47 153.867Z" fill="#3C4657"/>
<path d="M153.561 172.004L153.776 172.019C153.649 172.344 153.507 172.679 153.414 173.014C152.332 173.627 152.043 173.413 151.071 173.793C151.077 173.479 151.098 173.457 151.226 173.162C151.727 173.097 152.71 172.877 153.168 172.647C153.444 172.507 153.48 172.287 153.561 172.004Z" fill="#3C4657"/>
<path d="M88.6393 154.658C89.4193 154.433 90.9242 154.056 91.6949 154.162C91.8062 154.336 91.8361 154.34 91.8356 154.539C91.4711 154.601 89.0516 154.949 88.8051 154.906L88.6393 154.658Z" fill="#3C4657"/>
<path d="M168.089 156.538C168.32 156.625 168.394 156.634 168.567 156.816C168.539 156.924 168.535 156.979 168.521 157.089C168.856 157.555 169.437 158.462 169.37 159.043L169.237 159.102C168.608 158.87 168.045 157.161 168.089 156.538Z" fill="#3C4657"/>
<path d="M94.8462 208.698C94.8694 208.502 94.869 208.457 94.9319 208.265C95.2578 208.153 95.6008 208.277 96.0335 208.314C96.0984 208.705 95.9077 208.875 95.889 209.338C95.2367 209.359 95.1899 209.667 94.738 209.13L94.8462 208.698Z" fill="#3C4657"/>
<path d="M146.935 221.145L147.005 221.175C147.226 221.425 147.221 221.916 147.005 222.161C146.431 222.126 146.177 222.345 145.634 222.616C145.464 222.474 145.472 222.449 145.392 222.247C145.493 221.783 146.453 221.613 146.935 221.145Z" fill="#3C4657"/>
<path d="M149.114 163.591L149.359 163.378C150.249 165.16 151.091 165.012 151.84 166.475L151.838 167.108C151.399 166.265 149.814 164.568 149.114 163.591Z" fill="#3C4657"/>
<path d="M173.994 181.846C174.516 181.483 175.3 180.814 175.901 180.818L175.982 180.865C175.954 181.396 175.193 181.927 174.79 182.251C174.396 181.842 174.797 181.846 173.994 181.846Z" fill="#3C4657"/>
<path d="M58.7875 175.845C59.0621 176.016 58.9787 175.909 59.0675 176.276C58.7934 177.014 58.518 177.796 58.2132 178.518L57.773 178.313C57.9805 177.668 58.5075 176.512 58.7875 175.845Z" fill="#3C4657"/>
<path d="M118.784 208.963C120.348 208.509 119.903 209.031 120.889 209.225C120.859 209.229 119.297 209.725 119.288 209.729L119.217 209.694L119.084 209.572C119.11 209.393 119.127 209.475 119.036 209.326L118.648 209.401L118.557 209.324L119.164 209.063C118.974 209.068 118.945 209.064 118.784 208.963Z" fill="#3C4657"/>
<path d="M72.0613 162.356C71.7805 162.238 71.574 162.19 71.3955 161.951L71.4294 161.816C71.8874 161.556 72.563 161.565 73.0592 161.699C73.2823 161.907 73.2123 161.785 73.284 162.074C73.2357 162.266 73.2559 162.291 73.1436 162.427C72.6906 162.358 72.5203 162.321 72.0613 162.356Z" fill="#3C4657"/>
<path d="M101.855 151.755C102.496 151.693 103.341 151.571 103.966 151.648C104.198 151.676 104.131 151.698 104.39 151.671C104.218 151.393 104.049 151.112 103.885 150.829C104.398 151.286 104.576 151.517 105.258 151.539L105.489 152.017C104.284 151.847 103.179 152.007 101.855 151.755Z" fill="#3C4657"/>
<path d="M96.9007 153.255C97.2596 153.242 97.6187 153.234 97.9779 153.229L98.3179 154.155C97.9351 154.182 97.6297 154.199 97.2495 154.272C97.1354 153.838 97.1617 153.819 96.7608 153.675L96.7768 153.655C96.7756 153.444 96.7977 153.445 96.9007 153.255Z" fill="#3C4657"/>
<path d="M63.4585 172.333C63.5048 172.067 63.5551 171.802 63.6095 171.538L63.6867 171.537L63.6653 171.494L63.7386 171.796L63.8737 171.725C63.8775 171.52 63.8702 171.521 63.9353 171.33L64.0654 171.432C64.0227 172.025 64.0066 173.111 63.8735 173.625L63.6321 173.675C63.428 173.525 63.4568 173.374 63.3883 173.069C63.4512 172.829 63.4456 172.585 63.4585 172.333Z" fill="#3C4657"/>
<path d="M118.077 213.045C118.307 213.048 118.342 213.029 118.543 213.143L118.568 213.345C118.796 213.476 119.093 213.623 119.273 213.806C119.191 214.129 118.9 214.569 118.567 214.637C118.245 214.355 118.217 213.578 118.077 213.045Z" fill="#3C4657"/>
<path d="M72.7709 163.099C72.999 163.114 73.2906 163.034 73.3792 163.046C73.3025 163.251 73.2774 163.301 73.2772 163.52C73.2765 164.177 72.757 164.574 72.3986 165.051C72.3247 164.84 72.3358 164.9 72.1148 164.742C72.5521 164.116 72.7338 163.865 72.7709 163.099Z" fill="#3C4657"/>
<path d="M61.1968 175.374C61.3381 175.167 61.3216 175.272 61.3262 175.059L61.4066 174.989C61.4857 175.708 61.351 176.205 61.2262 176.92C61.0894 177.297 61.2494 177.788 61.0106 177.918C60.9968 177.769 60.9871 177.788 60.9248 177.643C60.687 177.559 60.7608 177.587 60.4573 177.701C60.5268 177.098 60.6253 176.661 60.7832 176.079L60.8757 176.215C60.8853 176.449 60.7742 177.014 60.9048 177.153C61.0789 176.486 61.0511 176.397 61.1137 175.7L61.2201 175.607L61.1968 175.374Z" fill="#3C4657"/>
<path d="M60.2375 175.879L60.3467 175.972L60.6852 175.734L60.7775 175.814L60.7832 176.079C60.6253 176.661 60.5268 177.098 60.4573 177.701C60.3505 177.718 60.2435 177.735 60.1364 177.751L60.1093 178.023L60.0521 178.445C60.0301 177.622 60.0164 176.664 60.2375 175.879Z" fill="#3C4657"/>
<path d="M156.696 153.482C157.07 153.303 157.638 153.319 158.07 153.299C158.833 153.419 159.918 153.539 160.628 153.739C159.911 154.125 158.54 153.637 157.807 153.493C157.396 153.413 157.363 153.754 156.696 153.482Z" fill="#3C4657"/>
<path d="M166.66 189.048C166.679 189.193 166.664 189.445 166.681 189.539C165.478 189.734 165.481 189.794 164.271 189.623C164.357 189.598 164.419 189.57 164.503 189.538L164.373 189.313C165.312 189.176 165.578 189.396 166.66 189.048Z" fill="#3C4657"/>
<path d="M111.501 154.12C111.498 154.292 111.477 154.422 111.527 154.58C110.915 154.783 109.753 154.65 109.042 154.95C108.991 154.873 108.852 154.721 108.786 154.643C109.469 154.432 110.473 154.429 111.501 154.12Z" fill="#3C4657"/>
<path d="M62.6447 189.872C62.7096 189.418 62.7775 188.692 62.9659 188.304L63.0964 188.225C63.3579 188.379 63.4505 188.754 63.5309 189.04L63.3476 189.725L63.246 189.666C62.7847 189.689 62.9028 189.613 62.6447 189.872Z" fill="#3C4657"/>
<path d="M86.4716 206.951C86.0484 206.784 85.3704 206.629 85.2044 206.191C85.6083 205.914 86.6235 206.276 87.0335 206.479C86.8621 206.645 86.6793 206.846 86.4716 206.951Z" fill="#3C4657"/>
<path d="M116.602 210.024C116.888 209.854 117.493 209.67 117.835 209.649C118.393 209.996 118.873 210.473 119.217 209.694L119.288 209.729C119.34 210.192 119.309 210.136 119.814 210.222C119.429 210.336 118.787 210.363 118.377 210.357L118.286 210.276C118.096 210.135 117.717 210.107 117.438 210.034C117.265 210.006 116.8 210.023 116.602 210.024Z" fill="#3C4657"/>
<path d="M143.071 204.265C143.272 203.844 143.446 203.63 143.723 203.255L144.021 203.634C143.731 204.22 143.439 204.804 143.08 205.352C143.035 204.767 143.292 204.638 143.071 204.265Z" fill="#3C4657"/>
<path d="M178.974 162.286C179.185 163.042 179.231 163.138 179.642 163.835L179.58 164.187C179.309 164.104 178.891 163.333 178.769 163.058L178.731 162.978C178.493 162.864 178.419 162.903 178.175 162.952L178.141 162.861C178.357 162.522 178.752 162.581 178.974 162.286Z" fill="#3C4657"/>
<path d="M76.666 211.845C78.0501 211.104 77.7949 211.797 78.9594 210.705L79.0138 210.791C78.828 211.3 78.308 211.752 77.8475 212.015C77.3836 211.718 77.2008 211.777 76.666 211.845Z" fill="#3C4657"/>
<path d="M122.361 216.035C122.578 216.042 122.69 216.022 122.865 216.148C123.08 216.59 122.815 216.752 122.434 216.904C122.192 216.904 122.198 216.91 121.954 216.825C121.761 216.601 121.806 216.727 121.809 216.437C122.023 216.12 121.961 216.218 122.361 216.035Z" fill="#3C4657"/>
<path d="M114.876 217.084L114.917 217.106C114.941 217.487 115.472 218.156 115.562 218.507L115.376 218.467C115.039 218.22 114.4 218.016 114.31 217.638C114.452 217.309 114.549 217.334 114.876 217.084Z" fill="#3C4657"/>
<path d="M64.2064 178.89C64.3002 180.117 64.7807 180.818 65.3918 181.867L65.3243 181.909C64.6245 181.276 64.0501 180.288 64.0068 179.331C64.1113 179.193 64.1478 179.053 64.2064 178.89Z" fill="#3C4657"/>
<path d="M61.1452 172.024L61.2946 172.146C61.2883 172.449 61.2103 173.641 61.3413 173.831L61.3972 173.797L61.3923 174.285L61.0685 174.174C61.1036 174.086 61.0919 174.136 61.0937 174.023C60.8 174.006 60.7915 173.988 60.5525 173.796C60.7319 173.389 60.9225 173.223 61.0332 172.769L61.125 172.729C61.2234 172.474 61.1747 172.307 61.1452 172.024Z" fill="#3C4657"/>
<path d="M122.201 210.482C122.874 210.53 123.672 210.777 124.145 210.496C124.102 210.758 124.109 210.746 123.963 210.966C123.728 211.026 123.632 211.143 123.45 211.304C123.081 210.924 122.809 210.78 122.287 210.736L122.167 210.574L122.201 210.482Z" fill="#3C4657"/>
<path d="M151.84 166.475C152.626 167.541 152.372 167.79 151.807 168.943L151.69 168.9C151.945 168.134 151.913 167.907 151.838 167.108L151.84 166.475Z" fill="#3C4657"/>
<path d="M94.5546 154.34C94.9994 153.439 95.3253 153.658 96.0412 153.977L96.3572 154.31C95.6541 154.279 95.2565 154.286 94.5546 154.34Z" fill="#3C4657"/>
<path d="M91.6562 153.618C91.9608 153.533 92.0349 153.459 92.3122 153.532C92.4308 153.74 92.4184 153.807 92.4324 154.043L92.5667 154.196L92.3515 154.482L91.8356 154.539C91.8361 154.34 91.8062 154.336 91.6949 154.162L91.6113 153.665L91.6562 153.618Z" fill="#3C4657"/>
<path d="M87.0335 206.479C87.3855 206.661 87.6834 206.825 88.0616 206.954C87.9004 207.06 87.7414 207.169 87.5848 207.282L87.731 207.379C87.3112 207.417 86.8771 207.144 86.4716 206.951C86.6793 206.846 86.8621 206.645 87.0335 206.479Z" fill="#3C4657"/>
<path d="M101.564 207.018C102.045 206.933 102.529 206.877 103.016 206.848C103.339 206.87 103.588 206.879 103.912 206.877C103.875 206.955 103.903 206.931 103.842 206.961L103.618 207.118C103.179 207.08 102.614 207.089 102.272 207.402C101.833 207.311 101.688 207.523 101.564 207.018Z" fill="#3C4657"/>
<path d="M178.769 163.058C178.891 163.333 179.309 164.104 179.58 164.187C179.293 164.413 179.248 164.394 178.872 164.444L178.618 164.377C178.6 163.971 178.617 163.827 178.666 163.432C178.766 163.3 178.746 163.241 178.769 163.058Z" fill="#3C4657"/>
<path d="M57.0087 181.248L57.2247 181.498C57.2984 182.033 57.2868 181.649 57.6544 182.155C57.6099 182.454 57.5771 182.58 57.282 182.701L57.111 182.627C56.8118 182.196 56.9413 181.78 57.0087 181.248Z" fill="#3C4657"/>
<path d="M97.9779 153.229C98.387 153.292 98.9642 153.346 99.2813 153.61C99.1374 153.695 99.1335 153.682 99.0639 153.831C98.8685 153.879 98.7307 153.903 98.5492 153.996L98.5315 154.155L98.3179 154.155L97.9779 153.229Z" fill="#3C4657"/>
<path d="M61.5846 181.965C61.7112 181.706 61.954 181.577 62.195 181.404L62.4056 182.464L62.0323 182.565C61.9802 182.659 61.9376 182.728 61.8971 182.828C61.8461 182.575 61.6852 182.214 61.5846 181.965Z" fill="#3C4657"/>
<path d="M102.272 207.402C102.614 207.089 103.179 207.08 103.618 207.118L103.674 207.202C103.9 207.252 103.813 207.196 103.955 207.35C103.746 207.48 103.6 207.497 103.362 207.436L103.218 207.504C102.793 207.596 102.58 207.722 102.272 207.402Z" fill="#3C4657"/>
<path d="M60.2992 173.345C60.2557 173.069 60.2659 172.9 60.4116 172.683C60.7387 172.61 60.6624 172.645 61.0332 172.769C60.9225 173.223 60.7319 173.389 60.5525 173.796L60.5264 173.912C60.4617 173.635 60.436 173.6 60.2992 173.345Z" fill="#3C4657"/>
<path d="M61.1452 172.024L61.022 171.9L61.1779 171.825L61.6345 171.955C61.495 172.614 61.5982 173.176 61.3972 173.797L61.3413 173.831C61.2103 173.641 61.2883 172.449 61.2946 172.146L61.1452 172.024Z" fill="#3C4657"/>
<path d="M102.129 153.599C103.139 153.54 103.518 153.443 104.57 153.492L104.484 153.608C104.775 153.727 104.94 153.609 105.207 153.664C104.648 153.858 102.818 153.478 102.19 153.796L102.129 153.599Z" fill="#3C4657"/>
<path d="M93.6929 154.438C93.8451 154.074 93.7539 153.967 93.9699 153.502L94.1238 153.456C94.3211 153.566 94.3218 153.615 94.4306 153.814C94.4137 153.946 94.3674 154.245 94.3633 154.364C94.054 154.357 93.9751 154.336 93.6929 154.438Z" fill="#3C4657"/>
<path d="M63.3662 185.716L63.4544 185.411C63.6726 185.363 63.5593 185.355 63.7962 185.507C63.9406 185.781 63.9403 185.765 63.9299 186.071C63.8091 186.31 63.7976 186.309 63.6206 186.494C63.4685 186.293 63.418 185.965 63.3662 185.716Z" fill="#3C4657"/>
<path d="M79.2221 157.417C79.2091 157.333 79.2241 157.325 79.2457 157.234C79.6778 157.075 79.7831 157.005 80.0945 157.324C79.7499 157.696 79.5746 157.727 79.0878 157.882C79.0723 157.805 79.1968 157.621 79.2221 157.417Z" fill="#3C4657"/>
<path d="M96.7608 153.675C97.1617 153.819 97.1354 153.838 97.2495 154.272C96.9461 154.293 96.6604 154.301 96.3572 154.31L96.0412 153.977C96.2739 153.864 96.4497 153.856 96.7608 153.675Z" fill="#3C4657"/>
<path d="M78.0442 154.849C78.6884 154.664 79.3714 154.485 79.9908 154.229C80.277 154.11 80.6112 153.825 80.8744 153.85L80.8613 153.922C79.9229 154.5 79.0103 154.698 77.9969 155.077L78.0442 154.849Z" fill="#3C4657"/>
<path d="M158.524 152.016C158.883 152.056 158.852 152.011 159.152 151.832C159.275 152.003 159.329 152.112 159.491 152.239L159.531 152.31C159.326 152.418 159.26 152.421 159.125 152.593L158.844 152.426C158.67 152.346 158.584 152.315 158.429 152.196L158.524 152.016Z" fill="#3C4657"/>
<path d="M78.6323 209.873C78.747 210.098 78.7624 210.163 78.9629 210.326C78.4505 210.539 77.9321 210.771 77.4215 210.993C77.7874 210.619 78.2402 210.227 78.6323 209.873Z" fill="#3C4657"/>
<path d="M179.642 163.835C179.779 164.098 179.965 164.384 179.983 164.669L179.926 164.791C179.623 164.732 179.305 164.645 179.004 164.569L178.872 164.444C179.248 164.394 179.293 164.413 179.58 164.187L179.642 163.835Z" fill="#3C4657"/>
<path d="M109.343 153.671C108.818 153.485 108.53 153.582 108.01 153.481L107.953 153.397C108.357 153.124 108.949 153.125 109.349 153.413L109.343 153.671Z" fill="#3C4657"/>
<path d="M180.398 175.56C180.424 175.253 180.414 175.211 180.549 174.944L180.661 174.92L180.892 175.165L180.884 175.27L180.986 175.359C180.94 175.769 180.967 175.644 180.684 176.016C180.54 175.864 180.492 175.744 180.398 175.56Z" fill="#3C4657"/>
<path d="M60.4573 177.701C60.7608 177.587 60.687 177.559 60.9248 177.643C60.9871 177.788 60.9968 177.769 61.0106 177.918C60.7488 178.121 60.6456 178.277 60.3644 178.287L60.1093 178.023L60.1364 177.751C60.2435 177.735 60.3505 177.718 60.4573 177.701Z" fill="#3C4657"/>
<path d="M119.084 209.572L119.217 209.694C118.873 210.473 118.393 209.996 117.835 209.649C118.439 209.689 118.498 209.729 119.084 209.572Z" fill="#3C4657"/>
<path d="M105.859 152.19L106.008 152.111C106.397 152.266 107.349 152.588 107.533 152.976C107.211 152.926 106.154 152.375 105.859 152.19Z" fill="#3C4657"/>
<path d="M117.438 210.034C117.717 210.107 118.096 210.135 118.286 210.276C118.018 210.357 117.392 210.634 117.208 210.591C117.162 210.358 117.22 210.377 117.387 210.1L117.438 210.034Z" fill="#3C4657"/>
<path d="M151.282 152.493C151.608 152.445 152.043 152.298 152.293 152.345C152.464 152.52 152.413 152.421 152.467 152.643L152.409 152.823C152.174 152.822 152.211 152.791 151.974 152.633L151.915 152.612C151.785 152.7 151.854 152.657 151.706 152.739C151.449 152.707 151.517 152.702 151.282 152.493Z" fill="#3C4657"/>
<path d="M60.8757 176.215C60.8924 175.944 60.889 175.919 60.9846 175.67L61.1137 175.7C61.0511 176.397 61.0789 176.486 60.9048 177.153C60.7742 177.014 60.8853 176.449 60.8757 176.215Z" fill="#3C4657"/>
<path d="M157.944 151.512C158.385 151.72 158.672 151.761 159.152 151.832C158.852 152.011 158.883 152.056 158.524 152.016C158.186 151.835 158.063 151.922 157.763 151.627L157.944 151.512Z" fill="#3C4657"/>
<path d="M86.0251 155.854C86.3443 155.86 87.126 155.834 87.3388 156.015C86.9641 156.049 86.2541 156.173 86.0251 155.854Z" fill="#3C4657"/>
<path d="M157.262 190.253C157.498 190.197 157.896 190.075 158.115 190.118C158.109 190.239 158.133 190.194 158.077 190.261C157.783 190.344 157.701 190.354 157.449 190.514L157.262 190.253Z" fill="#3C4657"/>
<path d="M84.0451 155.456C84.2823 155.518 84.6494 155.576 84.8345 155.692L84.7703 155.764C84.5747 155.778 84.0121 155.704 83.8882 155.57L84.0451 155.456Z" fill="#3C4657"/>
<path d="M90.3905 153.631C90.7555 153.501 91.0044 153.543 91.3922 153.559L91.6562 153.618L91.6113 153.665C91.2257 153.755 90.7946 153.674 90.3905 153.631Z" fill="#3C4657"/>
<path d="M90.3905 153.631C90.1897 153.648 90.1461 153.668 89.9561 153.6C90.5229 153.466 90.814 153.435 91.3922 153.559C91.0044 153.543 90.7555 153.501 90.3905 153.631Z" fill="#3C4657"/>
</svg>
