<svg width="240" height="240" viewBox="0 0 240 240" fill="none" xmlns="http://www.w3.org/2000/svg">
<path d="M85.9392 85.4344L86.2333 85.2712C87.2774 85.6146 87.3695 86.9075 88.9626 85.9912C90.3247 89.333 90.3684 95.4106 90.6876 99.0792C91.2987 106.105 91.0194 112.927 90.5691 119.941C90.4126 122.377 90.45 124.899 90.2858 127.339C89.9588 130.661 89.3458 134.238 88.9974 137.587C88.2497 145.144 87.6379 152.715 87.1622 160.295C86.4084 170.861 85.6018 181.643 86.7401 192.203C86.8517 193.237 86.6094 194.798 87.623 194.938C87.8351 195.187 87.7912 195.05 87.7933 195.35C86.9192 196.195 86.1283 197.535 86.9814 198.7C87.56 198.946 88.1264 198.673 88.8241 198.574C88.73 197.34 89.4477 188.518 89.8184 187.667C91.0225 186.132 90.5402 185.571 90.9437 183.721C91.0127 186.446 90.6314 188.516 90.2426 191.149C89.9099 193.402 89.9604 196.135 89.8194 198.419C89.8016 198.708 90.4692 198.609 90.5517 199C90.851 200.014 91.0956 203.144 90.8962 204.067L90.636 204.075C89.9826 203.728 89.3276 202.199 88.9079 201.443C88.5779 201.856 88.2146 202.255 87.8633 202.651C87.6137 203.806 88.0826 204.826 86.7057 204.894C86.3439 204.911 85.7947 205.224 85.4673 205.417C84.8228 205.022 84.3824 204.927 83.6736 204.665C83.4524 204.311 84.1421 203.137 84.2918 202.677C84.8473 200.821 85.3049 198.556 85.4675 196.627C85.6405 194.574 84.885 192.34 84.6994 190.346C84.6023 189.303 84.7715 187.849 84.7884 186.759C84.8359 183.701 85.0704 180.638 85.1474 177.583C85.1651 174.807 85.2564 172.218 85.3707 169.444C85.4415 167.727 85.1946 165.734 85.297 163.961C85.5129 160.223 85.7429 156.55 86.0764 152.82C86.2496 150.882 86.1754 148.757 86.3298 146.815C86.413 145.767 86.6095 144.539 86.734 143.458C87.4365 137.356 88.1896 131.257 88.7612 125.14C89.0087 122.492 88.6247 119.414 88.7403 116.707C88.8165 114.921 89.6686 112.962 89.6062 111.326C89.4577 107.429 88.8785 103.339 88.2487 99.4902C88.0127 98.0474 87.9552 96.3788 87.6761 94.9992C87.0284 91.7983 86.2995 88.6915 85.9392 85.4344ZM87.3166 201.627C87.4629 201.265 87.583 201.092 87.482 200.725C87.3269 200.58 87.3045 200.533 87.1008 200.475C87.0399 200.861 86.9322 201.226 87.0682 201.573C87.1334 201.59 87.257 201.628 87.3166 201.627Z" fill="#3C4657"/>
<path d="M87.1008 200.475C87.3045 200.533 87.3269 200.58 87.482 200.725C87.583 201.092 87.4629 201.265 87.3166 201.627C87.257 201.628 87.1334 201.59 87.0682 201.573C86.9322 201.226 87.0399 200.861 87.1008 200.475Z" fill="#3C4657"/>
<path d="M70.5009 130.411L70.5687 130.377C70.8364 130.592 70.9759 130.562 71.3254 130.569L71.4495 130.57C71.6193 130.959 71.4987 131.38 71.6793 131.917L71.8837 132.002C72.3034 131.901 72.4103 131.79 72.7415 131.532L72.6763 131.281C72.9683 131.025 72.8677 131.043 73.2031 130.976C73.3346 131.363 73.0996 132.025 72.9153 132.341C71.6146 134.563 71.7614 134.536 71.8182 137.13C72.1705 136.413 72.947 134.545 73.6987 134.294L73.8542 134.392C74.1616 136.151 71.4372 139.274 71.9899 140.685L72.1773 140.798C72.7893 140.379 74.5099 138.248 75.7303 137.311C75.1021 138.402 72.6392 141.906 72.9731 142.961C73.6674 143.276 74.6978 142.05 75.1782 141.577C74.6769 142.982 73.9688 143.825 73.2712 145.074C73.0573 145.456 71.9335 148.048 71.9077 148.407L72.0274 148.534C72.6618 148.139 72.9873 147.916 73.691 147.641L73.772 147.941C73.1808 148.825 72.807 149.419 72.0392 150.162C72.0796 152.185 72.3418 154.299 72.3338 156.284C72.3074 162.825 72.7412 169.309 73.1831 175.833C73.5865 181.787 73.8862 187.757 74.3918 193.707C74.579 195.865 74.5277 198.13 74.7598 200.293C75.1876 202.468 75.5859 207.324 77.0882 208.787C77.5303 209.217 78.082 209.62 78.7246 209.602C78.9247 209.596 79.1247 209.585 79.3243 209.569C79.7023 209.83 80.286 210.322 80.7607 210.159C81.0077 209.379 80.0506 208.392 79.9887 207.496C79.6315 202.326 79.5255 197.148 79.3115 191.973C78.9974 184.383 79.8286 176.813 79.8602 169.216C79.8691 165.785 79.7456 162.363 79.8069 158.933C79.8321 157.522 79.448 155.884 79.4135 154.514L79.5619 154.442C79.522 153.309 78.9147 150.138 79.2365 149.165C79.3335 149.233 79.4038 149.317 79.4822 149.406C79.6946 149.396 79.9067 149.378 80.1181 149.355C80.1258 149.39 80.3179 154.629 80.3092 154.67L80.4173 153.835C80.8045 156.599 80.6533 159.778 80.6448 162.541C80.6526 167.965 80.5422 173.388 80.3134 178.807C80.1654 181.969 79.6861 186.293 79.7986 189.393C79.957 193.756 80.1325 198.42 80.5805 202.742C80.6384 203.3 80.9109 206.167 81.0266 206.516C81.9977 209.438 82.878 208.865 83.2085 212.287C82.1419 212.029 81.3637 211.919 80.3985 211.391C79.9829 212.734 79.8595 213.258 78.8031 214.153C76.7633 214.476 75.659 214.808 73.8524 213.87C73.7951 213.718 73.7408 213.566 73.6896 213.413C73.0093 211.359 73.9914 209.482 74.8827 207.708C74.6795 205.902 74.0764 204.048 73.9155 202.343C73.6398 199.421 73.5716 196.403 73.3299 193.468C72.2437 180.193 71.4351 166.896 70.9049 153.587C70.8398 151.954 70.7148 149.406 70.7148 149.406C70.7148 149.406 70.7973 147.119 70.8144 146.369C70.8842 143.324 70.7096 140.267 70.5378 137.228C70.3592 135.531 70.7173 132.426 70.5009 130.411Z" fill="#3C4657"/>
<path d="M60.4285 42.797C59.2177 42.0551 58.2564 40.8013 58.5046 39.3682C58.7421 37.996 60.8014 34.049 61.7916 33.2747C62.518 33.4298 62.8283 35.3526 63.2552 35.953C65.0393 38.4617 67.3647 40.9439 70.0038 42.5507C70.9988 43.1565 75.4148 44.9818 75.4308 46.2246L75.2468 46.3276C74.0152 46.3217 72.7794 45.2062 71.5002 45.1436C70.2567 45.0827 68.1176 46.2071 67.0349 45.8395L66.931 45.6174C67.2312 44.158 68.9079 45.0949 69.5674 44.3121C69.4257 43.9879 69.539 44.0924 69.242 43.9623C68.5964 44.1386 65.4135 44.6479 65.1106 44.0376C65.4318 43.3294 66.6232 42.8848 67.2917 42.5826C65.9209 42.4444 64.6579 42.7057 63.3999 42.4541C63.3085 42.4358 63.2952 42.3194 63.2334 42.1808C63.2934 41.683 63.2166 41.8476 63.4791 41.4828C64.0205 41.1687 64.6084 41.3409 65.2234 41.4389C64.9064 40.9498 62.9138 38.6289 62.5136 38.2538C62.3308 38.4344 62.3359 38.4266 62.106 38.5438C61.8438 38.1904 61.9698 37.2942 61.8607 36.8048C61.7704 36.3993 61.6656 36.0273 61.5452 35.6324C58.5288 39.6919 58.8052 40.9318 63.2941 42.685C62.511 43.209 60.177 44.2986 60.1291 45.274C60.6398 46.4005 62.6208 45.8805 63.2454 46.4583C63.1347 46.7994 62.8719 47.1375 62.6556 47.4276C60.6858 50.0684 61.2489 51.0585 64.3592 51.5728C64.9357 51.6681 66.6335 50.9718 66.8017 51.8292C66.6245 52.0827 66.2952 52.2353 66.018 52.3989C64.9363 55.3605 65.138 56.9419 65.3806 60.0269C65.5627 62.3418 65.3434 64.4693 65.963 66.8326C66.3141 68.1715 66.6225 69.8758 66.8622 71.2455C67.8288 70.0111 68.3315 69.6049 69.7092 68.9689C69.5873 69.109 69.4674 69.2508 69.3495 69.3943C67.8624 71.2033 67.3402 72.3081 67.5539 74.5633C68.3114 73.7395 69.7674 70.7482 70.6616 70.8898C71.3791 72.4008 68.0921 74.4707 69.3141 75.7225C69.7853 75.5414 70.5593 74.756 71.1594 74.3886L71.2978 74.43C71.1203 75.5616 69.4373 76.7084 68.8771 77.7235C68.6028 78.2204 68.4122 79.1404 69.0254 79.4333C69.8592 79.3053 70.8705 78.0267 71.7406 77.441L71.8481 77.3697C71.118 78.7678 68.2702 81.0258 68.7404 82.3677C69.6577 82.7375 70.8386 81.6591 71.6829 81.8367C72.0582 82.9449 69.0292 84.332 69.1497 85.9239C69.1761 86.2735 69.0289 86.89 69.355 87.2807C69.9303 87.3997 70.6579 86.6686 71.361 86.2604C70.8211 87.2153 70.0757 88.0676 69.4068 88.951C69.383 89.7965 69.4052 90.743 69.4066 91.5967C69.1864 91.2174 69.3019 91.2969 68.9565 91.1208C68.3127 91.4353 68.8749 92.5916 68.0781 93.1632C67.7316 93.1754 67.29 92.9328 67.1402 92.6159L67.0613 92.708C66.962 92.5005 66.7937 92.1015 66.8228 91.8806C67.2876 88.357 66.5754 84.17 67.1712 80.6975C66.4659 79.4646 66.7147 79.2478 66.5376 77.8801C66.0808 74.5384 65.1641 71.0355 64.2271 67.796C63.3631 64.8092 63.5896 62.5894 63.7441 59.5589C63.8798 56.8983 64.0578 55.0549 64.9641 52.5176C60.7213 52.7301 59.8794 51.0285 61.1134 47.2817C60.7221 47.1621 60.0892 46.9975 59.7537 46.7821C58.2138 45.7937 59.775 43.758 60.4285 42.797Z" fill="#3C4657"/>
<path d="M141.225 45.3362C141.97 45.2224 143.594 45.3313 144.398 45.2964C144.757 45.2809 144.817 45.3096 145.007 45.5145C144.995 45.9246 145.155 46.5423 145.054 46.7897C144.071 47.6166 137.689 47.7768 136.143 47.9357C130.591 48.5066 124.897 48.9296 119.316 48.9552C115.895 48.9709 112.555 48.794 109.18 48.7642L97.9927 48.5781C95.6032 48.5537 93.1851 48.5866 90.7946 48.5357C89.2067 48.5019 87.6352 48.1837 86.0382 48.066C83.9498 47.9122 81.9087 48.0121 79.8255 47.9057C78.531 47.7585 76.0969 48.2143 76.0773 46.3364C76.3891 46.1556 77.4732 46.1153 77.8604 46.1211C80.4655 46.1469 83.1227 46.3988 85.7271 46.3544C88.9049 46.3002 92.073 46.0643 95.2533 46.3441C95.5335 46.3687 95.9738 46.4028 96.248 46.3917C99.7751 46.2473 103.182 46.8594 106.658 47.3651C108.738 47.6536 111.04 47.6011 113.144 47.7393C117.373 47.7415 121.674 47.518 125.885 47.1539C130.064 46.8293 134.101 47.0255 138.147 45.6898C138.711 45.5037 140.534 45.3976 141.225 45.3362Z" fill="#3C4657"/>
<path d="M94.8524 118.261C95.4033 115.429 95.2539 112.111 95.5304 109.252C96.024 104.151 95.1629 99.2195 94.7376 94.1443C94.6883 93.8381 94.2862 93.2322 94.2208 92.9889C93.6945 91.032 95.1217 80.734 96.5514 80.1222C96.9492 80.3278 97.0752 80.3123 97.5072 80.2922L97.6352 80.2856C98.134 80.5642 98.3015 81.3232 98.7643 81.7436C99.3151 82.2438 99.4118 81.5752 99.9018 81.5264L99.967 81.7879C99.8146 82.0962 99.7885 82.1386 99.719 82.4711C99.8953 82.8493 99.9174 82.7724 100.331 83.0011L100.886 82.8493C101.08 82.9888 101.017 82.8958 101.063 83.1492C101.273 83.5215 101.165 83.459 101.489 83.5963C101.952 83.4025 102.586 82.6727 102.973 82.286L103.079 82.6354C102.74 83.0772 102.326 83.5331 102.212 84.0692L102.318 84.2602C103.232 84.3112 104.756 82.793 105.636 82.6745C105.406 83.3693 104.547 83.6737 104.692 84.4528C105.486 84.807 106.303 83.1402 107.109 83.4148C106.902 83.8972 104.878 84.8458 106 86.3664C106.208 86.6486 106.292 86.783 106.647 86.8574C107.573 86.6756 107.636 85.9652 107.664 85.203C108.258 84.3945 108.603 84.0886 109.451 83.556C109.011 84.2887 108.598 84.8817 108.107 85.5788C108.667 85.1958 109.3 84.7394 109.875 84.3943C109.426 84.9164 109.004 85.3336 108.72 85.962C108.778 86.219 108.792 86.3922 108.951 86.6025C109.881 86.545 110.758 84.8643 111.453 84.7342L111.547 84.8884C111.443 85.2882 110.602 86.1535 110.265 86.571C114.166 86.5618 117.758 86.2801 121.58 85.5902C123.107 85.3145 126.437 85.1923 127.992 85.2553C127.558 85.303 127.132 85.2978 126.812 85.5869L126.85 85.6716L126.69 85.8685L126.746 86.0035C123.444 86.0655 120.344 86.5052 117.13 87.1783C115.925 87.3773 114.622 87.2795 113.425 87.4246C109.687 87.8781 106.284 88.1382 102.589 87.2252C99.5531 86.475 99.7268 86.3829 97.7607 83.9166C96.3223 88.7203 96.5973 96.5875 96.7869 101.621C96.8934 104.449 96.5956 107.386 96.4669 110.223C96.3525 112.746 96.2681 115.681 95.7481 118.143C95.5662 118.228 95.0772 118.243 94.8524 118.261Z" fill="#3C4657"/>
<path d="M171.725 92.1894C170.37 89.3653 169.434 86.9039 168.754 83.8551C168.424 82.5619 167.707 80.7954 167.775 79.4434C167.97 75.4699 168.546 71.4008 167.449 67.4845C166.654 64.6467 165.781 61.7011 164.71 58.9598C164.476 58.3606 163.691 57.0481 163.848 56.4961C164.137 56.3041 163.998 56.3407 164.371 56.3891C165.965 57.3709 167.727 62.2606 168.065 64.0852C168.73 67.6862 169.278 71.3522 169.336 75.0201C169.381 77.8479 169.15 81.0122 169.912 83.7704C170.471 85.7928 171.424 88.1968 172.174 90.1819C172.684 91.5333 173.729 92.9595 174.215 94.3596C174.946 96.2546 175.528 98.2175 176.36 100.079C177.195 101.947 177.335 103.947 177.776 105.914C178.079 107.265 178.568 108.613 178.817 109.984C179.365 113.278 179.317 116.747 178.663 120.022C178.542 120.633 178.386 121.403 178.154 121.974C176.54 125.95 174.605 129.823 172.457 133.535C172.081 134.216 171.29 134.967 170.864 135.641C170.059 136.816 169.327 137.92 168.388 138.998C167.834 139.634 167.039 140.255 166.568 140.828C166.111 141.384 165.466 142.402 165.02 143.042C164.147 144.275 163.245 145.487 162.313 146.676C161.032 148.28 159.462 149.619 158.143 151.245C157.529 152.003 156.485 153.77 155.867 154.342C155.57 154.007 155.702 154.115 155.164 153.984C156.653 151.181 160.219 147.821 162.261 145.39C163.518 143.892 164.637 141.925 165.933 140.367C166.566 139.53 167.594 138.851 168.24 138.059C172.336 133.052 175.412 127.212 177.506 121.092C178.243 118.938 178.245 114.27 177.953 111.966C177.765 110.318 177.436 109.112 177.139 107.52C176.139 102.167 174.766 96.8208 171.725 92.1894Z" fill="#3C4657"/>
<path d="M79.4135 154.514C78.8408 152.318 78.6969 145.711 78.9534 143.311C79.753 135.825 79.4457 128.524 79.2149 121.014C79.1641 119.362 79.3263 117.63 79.2656 115.977C79.1102 111.75 79.1018 107.511 79.2294 103.284C79.3157 102.255 79.5932 101.224 79.7277 100.206C80.1674 96.8784 79.76 93.5424 79.8619 90.2112C79.9214 88.265 80.6355 86.0997 81.0966 84.209C81.4108 82.9216 82.2241 82.0679 83.3481 81.4247C83.675 81.2322 84.3066 81.0704 84.6752 81.2234C87.3211 82.3209 87.8624 83.5868 88.9626 85.9912C87.3695 86.9075 87.2774 85.6146 86.2333 85.2712L85.9392 85.4344C85.7262 84.4955 84.9733 82.4795 83.7492 82.7676C81.4002 84.5817 80.3247 101.772 80.4974 105.45C80.7815 111.496 80.5855 118.134 80.858 124.242C81.0252 127.99 80.5138 131.861 80.573 135.611C80.678 141.711 80.3549 147.734 80.4173 153.835L80.3092 154.67C80.3179 154.629 80.1258 149.39 80.1181 149.355C79.9067 149.378 79.6946 149.396 79.4822 149.406C79.4038 149.317 79.3335 149.233 79.2365 149.165C78.9147 150.138 79.522 153.309 79.5619 154.442L79.4135 154.514Z" fill="#3C4657"/>
<path d="M127.992 85.2553C131.988 85.1912 135.689 86.2484 139.51 87.3692C141.054 87.822 140.787 88.5311 139.792 89.4593C139.452 91.2974 139.524 93.0162 139.984 94.8358C140.874 94.2237 141.448 93.5223 142.201 92.7583C142.582 93.3157 143.134 93.817 143.06 94.3946C142.913 95.55 140.348 98.5009 140.728 99.4782C141.762 99.3903 143.563 96.1234 144.345 95.6109L144.441 95.6812C143.674 97.0947 142.618 98.5481 142.102 100.065C142.088 100.092 142.074 100.119 142.06 100.146C141.747 100.484 141.552 100.865 141.37 101.287C141.424 101.73 141.352 101.577 141.609 101.897L141.909 101.93C142.004 102.052 142.064 102.119 142.139 102.251L142.1 102.343C141.489 103.731 140.226 104.646 140.367 106.422C140.395 106.78 140.435 107.539 140.717 107.776C141.188 107.617 141.717 106.659 142.051 106.218C141.613 107.343 140.271 109.638 140.486 110.615C140.922 110.925 141.628 110.273 141.975 109.948L142.278 109.84C142.164 110.358 141.398 111.049 141.222 111.668C140.836 113.021 140.571 114.408 140.206 115.769C140.097 116.177 140.21 116.503 140.033 117.063C140.819 116.611 141.718 115.208 141.916 114.326L142.414 114.161C142.411 114.397 141.824 115.189 141.685 115.568C141.307 116.592 141.072 117.678 140.749 118.71L140.596 118.981C140.456 119.431 139.9 120.507 139.874 120.787C139.302 126.935 138.825 133.112 138.484 139.278C138.46 139.698 138.459 140.303 138.496 140.718C138.147 145.761 138.41 150.703 138.156 155.739C138.108 156.68 138.353 157.771 138.26 158.363C138.449 158.155 138.555 157.935 138.722 157.753C138.798 158.27 138.716 158.375 139.288 158.59L139.184 158.689C138.578 158.784 138.527 158.689 138.153 159.038C137.958 159.514 138.192 160.38 138.212 161.008C137.863 161.17 137.988 161.125 137.501 160.958C137.392 158.416 137.477 155.552 137.527 152.983C137.619 148.237 137.594 143.272 137.815 138.544C138.11 132.211 138.755 125.86 139.153 119.537C139.342 116.536 139.413 113.45 139.355 110.449C139.348 109.675 139.512 108.761 139.54 107.937L138.906 106.971C139.863 104.103 139.385 102.208 139.275 99.3236C139.164 96.4293 139.084 93.5416 138.831 90.6453C138.748 89.6915 138.869 88.6882 138.09 88.0361C136.784 87.6958 135.66 87.1069 134.39 86.7125C133.174 86.3349 131.667 86.1817 130.401 86.0607C129.228 85.9755 127.933 86.0021 126.746 86.0035L126.69 85.8685L126.85 85.6716L126.812 85.5869C127.132 85.2978 127.558 85.303 127.992 85.2553Z" fill="#3C4657"/>
<path d="M141.916 114.326L142.414 114.161C142.411 114.397 141.824 115.189 141.685 115.568C141.307 116.592 141.072 117.678 140.749 118.71L140.596 118.981C140.39 118.434 140.909 117.856 140.935 117.042C140.706 116.781 140.55 117.355 140.079 117.321L140.033 117.063C140.819 116.611 141.718 115.208 141.916 114.326Z" fill="#3C4657"/>
<path d="M161.772 52.2819C162.801 52.4784 164.482 53.403 165.345 53.5471C167.795 53.9565 170.395 54.7824 172.599 55.5639C173.73 55.965 178.14 55.4156 179.282 54.8442C179.713 54.6289 180.518 52.9149 181.325 53.3586C181.798 54.9933 179.38 56.1728 178.116 56.3597C172.53 57.1854 166.532 56.1572 161.131 54.6858C159.961 54.3672 154.939 51.6511 153.951 50.8893C150.092 47.9126 146.195 43.1022 143.777 38.8154C143.071 37.4999 142.338 34.6326 142.044 33.2615C143.221 35.191 144.303 36.7518 145.803 38.4492C146.194 38.9807 146.369 39.9001 146.742 40.4106C149.098 43.6366 151.258 45.8855 154.573 48.0701C156.552 49.3032 159.736 51.4438 161.772 52.2819Z" fill="#3C4657"/>
<path d="M154.573 48.0701C156.552 49.3032 159.736 51.4438 161.772 52.2819C161.178 52.5983 160.481 51.6594 159.711 51.779C159.684 51.9522 159.871 52.2315 159.969 52.4239C158.559 52.2613 153.821 50.1902 154.248 48.2473L154.573 48.0701Z" fill="#3C4657"/>
<path d="M155.66 88.2491C156.69 87.9953 158.48 86.9961 159.414 86.4111C160.284 85.8651 163.026 83.2386 164.039 83.612C164.101 83.8779 163.878 84.5506 163.795 84.8576C164.321 85.7107 164.948 86.1431 165.32 87.2106C165.251 87.747 166.153 89.3529 166.4 89.8941C166.487 90.0845 166.168 90.7948 166.299 91.1142C166.88 91.1226 166.944 91.1456 167.51 90.9709C167.894 90.4076 168.243 89.7576 168.751 89.3449L168.835 89.4386C168.652 90.3713 166.812 93.5052 168.395 93.8132C168.778 93.5918 169.158 92.843 169.711 92.3175C169.515 93.033 168.955 94.3057 168.872 94.7894C169.09 95.0804 168.951 94.9994 169.288 95.0636C169.902 94.8411 170.19 94.3731 170.525 94.4008C170.647 95.5217 169.146 95.8985 169.324 97.0492C169.513 98.2774 170.153 99.439 170.398 100.659C170.603 101.816 170.624 103.19 170.77 104.359C171 106.205 171.181 107.989 171.326 109.843C171.681 110.253 172.197 110.785 172.393 111.268C172.318 111.92 171.281 113.144 170.92 114.101L170.893 114.172C170.624 114.89 170.745 116.328 170.625 117.122C170.308 119.218 170.102 121.341 169.847 123.426C169.632 125.189 169.722 127.662 169.184 129.218C169.212 128.722 169.245 128.381 168.996 127.952L168.821 127.965C168.552 128.34 168.583 128.74 168.549 129.219C168.554 128.087 168.594 127.595 168.19 126.549C168.147 126.05 168.154 125.744 167.804 125.399C168.74 122.759 168.982 119.306 169.232 116.451C169.4 114.527 169.944 111.179 169.942 109.434C169.941 107.495 168.933 103.279 168.522 101.25C168.285 100.209 167.633 98.9412 167.425 97.9287C166.88 95.2822 165.82 93.2328 164.646 90.8311C163.868 89.2374 163.745 86.579 162.024 85.5843C161.721 85.409 161.169 85.9667 160.951 86.1488C159.487 87.6894 157.659 88.1966 155.76 88.9399C155.847 88.7394 155.922 88.5744 155.987 88.3642L155.66 88.2491Z" fill="#3C4657"/>
<path d="M140.069 199.731C140.685 198.567 141.18 196.295 142.063 195.982L142.213 196.082C142.336 196.829 141.783 197.602 141.944 197.997C142.185 197.828 142.615 197.427 142.798 197.454C142.547 198.648 141.468 200.28 141.589 201.782L141.708 201.964C142.316 201.799 142.94 200.275 143.302 200.119C142.842 202.219 141.087 203.857 140.594 205.973C140.518 206.298 140.241 206.625 140.236 206.987C140.389 206.913 140.429 206.882 140.502 206.732C140.928 205.857 141.76 205.25 142.331 204.496L142.62 204.654C142.305 205.387 141.021 207.202 141.453 207.881C142.107 207.937 142.856 207.001 143.291 206.559C142.48 208.482 141.805 208.947 141.09 211.255C141.717 211.279 141.924 211.378 142.518 211.598C142.526 211.727 142.536 211.855 142.548 211.983C142.609 212.623 142.722 214.203 143.175 214.579C145.241 214.389 144.488 215.037 145.243 215.528C145.705 214.597 147.187 213.768 147.8 214.856C147.875 216.652 146.595 217.121 146.262 218.33C145.621 220.654 146.034 221.018 143.369 220.397C142.887 220.284 141.007 221.456 140.458 220.522C139.535 218.951 140.971 216.571 141.26 214.918C141.387 214.184 141.384 213.358 141.411 212.647L139.27 212.577C139.225 212.204 139.219 211.809 139.197 211.432C138.981 207.744 138.606 203.993 138.629 200.295C139.428 199.309 138.661 199.449 138.841 198.341C138.892 198.033 138.936 197.724 138.975 197.415C139.076 197.849 139.25 200.069 139.418 200.183C139.453 200.948 139.495 201.712 139.546 202.477C140.491 201.408 141.246 200.94 140.069 199.731ZM140.164 204.573C140.414 204.23 140.622 204.003 140.699 203.58C140.559 203.066 140.4 203.076 139.881 202.929C139.66 203.432 139.66 204.08 139.805 204.602L139.943 204.722L140.164 204.573Z" fill="#3C4657"/>
<path d="M67.0613 92.708L67.1402 92.6159C67.29 92.9328 67.7316 93.1754 68.0781 93.1632C68.8749 92.5916 68.3127 91.4353 68.9565 91.1208C69.3019 91.2969 69.1864 91.2174 69.4066 91.5967C69.4974 92.733 69.5914 93.9055 69.7311 95.0366C70.4019 100.467 69.9204 106.036 70.1504 111.454C70.3336 115.298 70.6156 119.136 70.9965 122.965C71.2176 125.278 71.5574 127.536 71.5905 129.868C71.5975 130.364 71.591 131.221 71.8525 131.626C72.2399 131.747 72.3879 131.547 72.6763 131.281L72.7415 131.532C72.4103 131.79 72.3034 131.901 71.8837 132.002L71.6793 131.917C71.4987 131.38 71.6193 130.959 71.4495 130.57L71.3254 130.569C70.9759 130.562 70.8364 130.592 70.5687 130.377L70.5009 130.411C70.6461 131.763 71.2149 133.888 70.5687 135.174C70.3592 133.567 70.4057 131.852 70.3694 130.401C70.2983 127.566 69.9378 124.782 69.6713 121.965C69.5179 120.343 69.1618 118.859 68.9062 117.262C68.4796 114.574 68.149 111.871 67.9149 109.158C67.6436 105.711 67.626 102.007 67.3659 98.5274C67.2225 96.6083 67.2841 94.6651 67.0613 92.708Z" fill="#3C4657"/>
<path d="M68.8165 98.0895C68.8292 97.6492 68.8559 97.3667 68.909 96.9343L69.028 96.8827C69.153 99.5276 69.3383 102.453 69.4255 105.075L69.2048 105.007C68.9629 102.588 68.8899 100.516 68.8165 98.0895Z" fill="#3C4657"/>
<path d="M68.6673 94.8538C68.5357 94.3519 68.632 92.67 68.7306 92.1017C68.8031 92.7174 68.8649 93.1235 68.8294 93.7404C68.7773 94.0951 68.7082 94.5022 68.6673 94.8538Z" fill="#3C4657"/>
<path d="M68.7638 95.4931L68.9503 95.4369C68.9735 95.8491 69.0302 96.4886 69.028 96.8827L68.909 96.9343C68.8559 97.3667 68.8292 97.6492 68.8165 98.0895C68.7317 97.1968 68.7346 96.3863 68.7638 95.4931Z" fill="#3C4657"/>
<path d="M69.2048 105.007L69.4255 105.075C69.4581 105.379 69.5344 106.008 69.3095 106.232C69.1177 105.872 69.1892 105.436 69.2048 105.007Z" fill="#3C4657"/>
<path d="M68.8294 93.7404C68.8566 94.1779 69.0156 95.1338 68.9503 95.4369L68.7638 95.4931L68.6673 94.8538C68.7082 94.5022 68.7773 94.0951 68.8294 93.7404Z" fill="#3C4657"/>
<path d="M128.846 16.5026C129.963 16.4433 131.163 16.3724 132.264 16.3965C136.138 16.4815 140.907 18.1806 143.852 20.7043C144.646 21.3848 146.479 24.4942 146.48 25.5084L146.323 25.6607C145.697 25.4294 145.288 23.5615 144.764 22.8426C144.353 22.2793 143.439 20.9604 142.922 20.5221C142.267 19.9682 139.905 18.7904 139.08 18.8171C138.895 19.0603 138.95 19.5197 138.951 19.8523L139.168 20.2191C138.962 20.3808 138.966 20.3916 138.707 20.4815L138.497 20.3323C138.287 19.9128 138.3 19.2069 138.274 18.7153C137.684 18.2098 136.639 17.3595 135.778 17.8021C134.699 18.357 136.754 20.4445 135.67 21.033L135.432 20.9093C134.673 19.8421 135.559 18.4682 134.669 17.5684C134.299 17.4726 134.455 17.457 134.115 17.6231C133.136 18.8324 134.372 20.218 134.288 20.6699L133.947 20.834C133.533 20.6972 133.496 20.4515 133.235 19.9928L132.995 19.9296C132.719 20.1152 132.632 20.2007 132.316 20.2754C131.485 19.5766 131.93 17.8707 131.639 17.4639C131.33 17.3827 131.342 17.3695 131.051 17.478C130.428 18.2644 131.66 20.1962 130.936 20.8989L130.681 20.8872C130.163 20.284 130.659 18.5278 130.164 17.6906L129.992 17.6528C128.703 18.3052 129.909 19.6019 129.574 20.3794C129.032 20.3953 128.229 20.4461 127.691 20.3933C127.593 20.3837 127.44 20.0175 127.372 19.8868C127.329 19.9216 127.278 19.9556 127.259 20.0093C126.69 21.6767 127.066 21.9182 127.68 23.3844C127.857 23.8058 128.026 24.4699 128.203 24.9133C128.54 25.7629 129.043 26.5358 129.683 27.1861C131.219 28.7522 135.257 31.0199 137.454 31.6369C138.555 31.9461 140.309 32.0707 141.42 32.4854C141.723 32.5986 141.78 32.7007 141.876 32.9441L141.729 33.0321C138.449 33.14 136.903 32.7579 133.953 31.2105C133.026 30.7241 132.292 30.4077 131.373 29.7854C128.879 28.1161 127.164 25.5032 126.62 22.5428C126.066 19.573 127.428 18.6068 128.846 16.5026ZM133.192 19.5105C133.256 18.9962 133.417 18.2489 133.216 17.8081C132.855 17.4557 132.788 17.5309 132.229 17.384C132.267 17.7379 132.299 18.1005 132.327 18.4545C132.392 19.2852 132.315 19.5447 133.192 19.5105ZM128.805 20.149C128.885 19.6476 129.075 18.9281 128.951 18.485C128.675 18.2016 128.799 18.2879 128.358 18.2087C128.086 18.9043 128.359 19.5703 128.805 20.149Z" fill="#3C4657"/>
<path d="M163.993 25.0864C165.889 25.5492 166.533 27.1296 167.825 28.2791C169.493 29.7631 170.777 31.2616 172.257 32.9007C173.544 34.3254 174.976 35.4509 176.095 37.0926C176.968 38.3763 177.72 39.5837 178.279 41.0498C178.799 42.3364 179.15 43.6913 179.913 44.8604C180.569 45.8795 181.999 48.2737 181.563 49.4315L181.387 49.4859C181.311 49.4392 180.716 49.0778 180.643 49.1401C179.47 50.1283 178.663 50.9089 177.161 51.3447C175.692 51.1871 174.508 49.3072 175.444 48.0932C176.233 47.0699 178.59 47.0476 179.876 46.9126C177.754 44.1983 177.676 41.5025 175.706 38.5123C174.204 36.2334 172.739 35.1173 171.028 33.1722C169.217 31.1149 167.402 28.9896 165.547 26.9668C164.949 26.3154 164.337 26.2041 163.846 25.695C163.778 25.3281 163.769 25.4753 163.993 25.0864Z" fill="#3C4657"/>
<path d="M146.032 160.681C146.207 161.177 146.153 161.668 146.138 162.196C146.036 162.983 145.557 165.403 145.852 165.852C146.432 165.745 146.748 165.023 147.373 164.886C147.947 165.324 147.35 166.573 147.929 167.141C148.318 167.157 148.175 167.173 148.548 166.953C148.812 166.23 150.142 162.959 150.483 162.458C150.851 162.362 150.902 162.324 151.255 162.415C151.468 162.651 151.415 162.521 151.469 162.795C150.545 164.847 149.803 166.575 149.853 168.89C149.896 170.889 149.467 172.533 150.182 174.483C149.138 174.401 146.432 174.572 145.875 173.953C145.872 173.715 146.425 172.291 146.543 171.625C146.265 171.345 145.913 171.01 145.665 170.711C145.896 170.206 146.344 169.34 146.401 168.824L146.306 168.576C145.965 168.495 145.877 168.448 145.545 168.514C145.187 168.863 145.113 170.078 145.046 170.624L144.918 170.474L144.714 170.818C144.914 168.053 145.432 163.405 146.032 160.681Z" fill="#3C4657"/>
<path d="M155.566 19.7937C155.652 19.5608 155.904 18.8784 156.057 18.7146C159.391 15.1517 166.49 11.9445 171.351 14.0519L171.342 14.3445L171.395 14.3515C169.983 14.6151 164.974 13.8982 163.78 15.2486C163.473 16.2073 163.695 17.6265 163.556 18.7048C163.014 18.866 162.171 19.2632 161.762 19.2615C161.02 18.8244 161.293 16.2892 161.559 15.9756C161.984 16.1804 162.044 17.0097 162.563 17.2548C162.906 16.9545 162.95 15.9812 163.08 15.368C161.561 15.569 158.781 16.3392 157.969 17.756L158.006 17.9125C158.336 18.1048 158.414 18.143 158.507 18.6131C158.619 19.1751 158.988 21.4576 158.891 21.8452L158.629 21.9467C158.038 21.5983 158.221 20.8357 157.783 20.6224C157.609 20.8086 157.597 20.867 157.499 21.0945C157.129 21.2395 157.284 21.2424 156.921 21.0847C156.486 20.527 156.515 20.1418 156.085 19.729L155.566 19.7937Z" fill="#3C4657"/>
<path d="M146.032 160.681C147.643 153.657 146.768 146.444 147.724 139.302C148.671 132.222 149.244 125.061 150.204 117.987C150.716 114.223 151.942 110.151 152.461 106.381C153.172 101.213 153.853 96.0405 154.724 90.891C154.833 90.2715 154.704 88.8333 154.889 88.4295C155.26 88.2006 155.168 88.2735 155.66 88.2491L155.987 88.3642C155.922 88.5744 155.847 88.7394 155.76 88.9399C154.951 89.2289 153.683 100.87 153.208 102.375C153.073 102.804 152.953 105.165 152.833 105.828C152.076 110.011 151.209 114.174 150.482 118.36C150.229 119.816 150.151 121.308 149.991 122.777L149.248 129.268C149.002 131.499 148.643 133.603 148.383 135.732C147.828 140.541 147.52 145.317 147.46 150.154C147.444 151.418 147.164 154.39 147.351 155.418L147.469 155.972C146.76 156.371 146.783 157.13 147.193 157.749C146.555 158.727 146.309 160.984 146.138 162.196C146.153 161.668 146.207 161.177 146.032 160.681Z" fill="#3C4657"/>
<path d="M90.9693 162.134L91.0833 162.094C91.354 161.521 91.4904 158.475 92.0058 156.918L92.1982 157.053C91.8825 161.701 91.3232 166.473 91.0836 171.091C90.8668 175.271 91.2163 179.459 90.9437 183.721C90.5402 185.571 91.0225 186.132 89.8184 187.667C90.2657 182.081 90.0163 176.485 90.1954 170.905C90.2832 168.17 90.7429 164.935 90.9693 162.134Z" fill="#3C4657"/>
<path d="M107.249 50.0819C110.649 49.5249 112.363 52.6051 107.813 54.4799C107.648 54.5247 107.482 54.5625 107.314 54.5937C106.578 54.7266 106.11 54.6651 105.481 54.2186C104.92 53.8124 104.544 53.198 104.435 52.5119C104.132 50.5552 105.809 50.2092 107.249 50.0819ZM107.063 53.6147C107.984 53.4424 109.854 52.8225 109.639 51.5829C109.411 51.1532 108.656 50.7077 108.185 50.6199C107.124 50.8361 105.155 51.4394 105.345 52.879C105.679 53.5194 106.416 53.6084 107.063 53.6147Z" fill="#3C4657"/>
<path d="M167.804 125.399C168.154 125.744 168.147 126.05 168.19 126.549C167.672 127.46 164.684 132.773 164.71 133.385C165.01 133.604 165.421 133.548 165.771 133.475L165.911 133.876C165.171 133.99 164.854 133.993 164.098 133.935C163.492 134.844 161.349 138.174 160.787 138.763L160.844 138.912C161.52 139.102 163.298 138.24 164.061 137.925C162.544 139.21 161.818 139.707 159.894 140.159C159.539 140.571 158.603 141.55 158.459 141.961L158.542 142.133C159.452 142.417 161.327 141.549 162.197 141.294C161.98 141.712 160.25 142.85 159.736 142.996C159.019 143.199 158.555 143.158 157.84 142.983C157.529 143.359 156.309 144.79 156.125 145.125C155.964 144.99 155.7 144.825 155.517 144.704C156.263 143.54 157.167 142.506 158.008 141.408C162.018 136.179 165.194 131.53 167.804 125.399Z" fill="#3C4657"/>
<path d="M93.3061 127.734L93.6905 127.602C94.054 127.854 94.0036 128.173 94.0575 128.622C93.6067 131.895 93.3248 135.19 93.2129 138.492C93.1802 139.623 93.2083 140.806 93.2216 141.943C93.2714 146.201 92.6874 150.336 92.3728 154.567C92.0441 154.818 91.8589 154.999 91.5687 155.284C91.6402 153.314 92.0245 151.241 92.1538 149.259C92.3274 147.363 92.3345 145.462 92.4402 143.563C92.737 138.229 92.4172 133.028 93.3061 127.734Z" fill="#3C4657"/>
<path d="M142.82 50.5233C146.541 50.0198 146.684 53.3167 142.815 54.0429C141.95 53.8637 138.813 53.0782 139.841 51.4288C140.325 50.6516 141.941 50.6048 142.82 50.5233ZM143.167 53.1622C143.866 52.8755 144.39 52.7602 144.757 52.1014C144.812 50.9374 142.995 51.1646 142.209 51.2897C141.536 51.3617 140.75 51.3402 140.654 52.1547C140.996 52.956 142.397 53.2816 143.167 53.1622Z" fill="#3C4657"/>
<path d="M139.117 170.553C139.195 170.912 139.231 171.058 139.673 171.076C139.37 171.569 138.933 172.326 138.71 172.855C139.298 172.493 139.772 172.192 140.336 171.783C139.985 172.799 138.595 175.924 138.508 176.594C138.159 179.255 138.638 183.417 138.681 186.21C138.65 186.55 138.674 186.64 138.469 186.889L138.293 186.871C138.011 186.498 138.032 186.075 137.995 185.602C137.764 182.779 137.966 179.764 137.709 176.914C137.545 175.089 137.436 173.033 137.701 171.222L138.378 170.989L138.624 170.958C138.831 170.744 138.862 170.698 139.117 170.553Z" fill="#3C4657"/>
<path d="M83.0257 49.7597C83.4173 50.1917 82.9659 50.3491 83.2588 51.1096C83.3335 51.161 83.4082 51.2123 83.4829 51.2636C84.5353 50.6881 85.4042 49.9996 86.6649 50.0276C86.9555 50.0268 87.3672 50.1292 87.5457 50.3882C87.9699 51.0033 87.8656 51.8481 87.7517 52.5282C86.4945 53.2714 86.2397 53.343 84.8605 53.6527C84.7978 53.629 84.7355 53.6042 84.6736 53.5786C82.7558 52.7783 82.1363 51.7225 83.0257 49.7597ZM83.4914 51.8993C83.8444 52.0706 84.2227 52.243 84.5595 52.4406C85.4532 52.5102 86.6472 52.3705 86.9783 51.3597C86.8937 50.8508 86.5264 50.7929 86.0333 50.8188C84.9839 51.0772 84.4309 51.3561 83.4914 51.8993Z" fill="#3C4657"/>
<path d="M95.8327 50.768L96.135 51.1347C97.0461 51.3901 98.7599 50.4769 99.4722 51.4789C99.8183 51.9656 99.8306 52.9211 99.7476 53.4983C99.7179 53.7043 99.3491 53.9391 99.1846 54.0502C98.3078 54.4142 97.9531 54.4317 97.0002 54.4329C95.7306 53.7405 93.8147 51.8857 95.8327 50.768ZM95.8266 52.4784C96.5686 53.1458 96.6185 53.2646 97.5837 53.3737C98.2903 53.201 98.8939 53.1293 98.8877 52.2382C98.6079 51.7347 98.165 51.5798 97.5872 51.6891C96.796 51.9195 96.5469 52.0656 95.8266 52.4784Z" fill="#3C4657"/>
<path d="M67.3858 203.846C68.8421 204.583 71.5645 213.33 70.7475 214.54C70.683 214.51 70.2917 214.32 70.2767 214.291C69.4109 212.612 69.219 210.372 68.4488 208.622C67.8579 207.281 66.2225 205.305 67.3858 203.846Z" fill="#3C4657"/>
<path d="M156.016 32.7448C157.116 32.7769 157.592 33.1997 158.353 33.9387C158.596 34.752 158.933 36.5183 157.795 36.8158L157.715 36.6264C158.101 35.529 157.51 35.5931 157.367 34.0479C155.46 33.9835 154.306 34.1744 152.753 35.3025C152.379 35.6515 151.718 36.5714 151.392 37.0206C151.674 37.2019 151.762 37.2535 152.001 37.4834L151.999 37.7308L151.768 37.8982C150.073 38.0554 150.472 36.2941 151.234 35.4069C152.543 33.8825 154.036 32.9879 156.016 32.7448Z" fill="#3C4657"/>
<path d="M150.085 211.202C150.485 211.257 150.366 211.187 150.649 211.422C150.548 212.85 150.891 216.015 151.002 217.617C150.384 217.669 150.137 217.701 149.537 217.848C149.174 217.921 149.149 217.934 148.791 217.874C148.58 217.565 148.818 213.137 148.872 212.353C149.581 211.901 149.601 211.869 150.085 211.202Z" fill="#3C4657"/>
<path d="M161.43 204.329C162.653 204.692 162.544 206.374 162.639 207.393C162.92 210.412 162.349 212.947 161.516 215.836C161.473 215.876 161.273 216.007 161.212 216.048L161.03 215.964C160.839 215.431 161.355 213.492 161.426 212.68C161.524 211.605 161.548 210.525 161.493 209.447C161.423 208.038 161.173 205.609 161.43 204.329Z" fill="#3C4657"/>
<path d="M98.7419 194.966L99.0027 195.089C99.024 195.151 99.0454 195.214 99.0668 195.275C97.9559 197.601 96.8215 200.155 95.8349 202.509C95.4819 203.351 95.5602 203.561 95.4432 204.025C95.2153 204.932 95.6738 205.871 95.576 206.687L95.2916 206.837C93.4514 204.808 95.0469 202.01 95.9227 199.925C96.6012 198.308 97.1845 195.876 98.7419 194.966Z" fill="#3C4657"/>
<path d="M118.957 54.7552C119.397 54.7775 120.189 55.0231 120.643 55.1248C122.594 55.5618 122.939 57.223 121.018 58.0488C120.064 58.2997 119.782 58.218 118.791 58.0264C117.742 56.8095 117.565 55.7619 118.957 54.7552ZM120.089 57.1935C120.499 57.1014 120.742 57.0874 121.03 56.7728C121.344 55.7997 120.052 55.9021 119.477 55.9358C119.16 56.1686 118.984 56.2542 118.811 56.6069C118.91 57.2951 119.514 57.2422 120.089 57.1935Z" fill="#3C4657"/>
<path d="M144.714 170.818L144.918 170.474L145.046 170.624C145.149 178.712 145.075 186.798 146.458 194.785C146.628 195.768 146.946 197.173 146.997 198.137L146.674 198.277C145.003 189.226 144.346 180.016 144.714 170.818Z" fill="#3C4657"/>
<path d="M133.47 50.0599C134.177 50.0417 134.37 50.1166 135.061 50.319C135.181 50.9199 135.204 51.5244 135.244 52.1358C134.226 52.3106 133.007 52.6641 131.955 52.8957C130.942 52.8921 129.954 52.1804 130.33 51.139C130.761 50.5739 132.588 50.3074 133.47 50.0599Z" fill="#3C4657"/>
<path d="M138.722 157.753C139.459 156.892 139.645 155.612 140.619 154.789L140.73 154.855C140.652 155.424 140.583 155.62 140.418 156.154C140.221 156.793 139.504 157.547 139.78 158.108L140.272 158.211C140.335 158.46 140.327 158.533 140.235 158.781C139.746 160.115 139.156 161.395 138.734 162.758C138.708 162.841 138.254 163.261 138.163 163.349C138.2 163.944 138.247 164.469 138.188 165.068L138.087 165.697C138.036 166.019 138.053 166.08 138.186 166.383C137.915 166.439 137.8 166.343 137.549 166.217C137.611 164.712 137.518 162.513 137.501 160.958C137.988 161.125 137.863 161.17 138.212 161.008C138.683 160.883 139.307 159.207 139.184 158.689L139.288 158.59C138.716 158.375 138.798 158.27 138.722 157.753Z" fill="#3C4657"/>
<path d="M172.228 15.0925C173.185 15.5448 172.51 17.2566 172.445 18.2286C172.213 21.6995 169.849 23.3023 167.272 25.2049C167.139 25.1768 167.094 25.1231 166.967 25.04C166.837 24.098 169.177 22.6752 169.956 21.6672C171.591 19.5501 171.75 17.5677 172.228 15.0925Z" fill="#3C4657"/>
<path d="M137.995 185.602C138.032 186.075 138.011 186.498 138.293 186.871L138.469 186.889C138.674 186.64 138.65 186.55 138.681 186.21C138.785 189.516 139.126 192.717 139.243 196.015C139.279 197.019 139.553 199.312 139.418 200.183C139.25 200.069 139.076 197.849 138.975 197.415C138.936 197.724 138.892 198.033 138.841 198.341C138.661 199.449 139.428 199.309 138.629 200.295C138.376 197.226 138.427 194.081 138.176 191.008C138.025 189.166 137.978 187.446 137.995 185.602Z" fill="#3C4657"/>
<path d="M102.199 195.782C102.587 195.847 102.449 195.774 102.744 196.029C102.828 196.717 101.79 197.288 101.508 197.864C100.613 199.692 99.7229 202.425 100.449 204.443C100.585 204.821 100.769 205.257 100.66 205.642C98.7677 204.357 99.3169 201.352 99.6742 199.419C99.953 197.908 100.902 196.589 102.199 195.782Z" fill="#3C4657"/>
<path d="M155.517 144.704C155.7 144.825 155.964 144.99 156.125 145.125C155.861 145.663 154.861 147.559 154.754 147.978L154.887 148.138C154.782 148.454 154.867 148.319 154.604 148.549C153.969 148.574 153.835 148.737 153.413 149.22C152.778 149.946 150.796 152.234 150.459 153.019C150.24 152.511 150.124 152.574 149.613 152.51C150.456 150.92 152.905 148.407 154.091 146.927C154.619 146.268 155.085 145.435 155.517 144.704Z" fill="#3C4657"/>
<path d="M62.4955 203.276C63.6344 203.595 64.4362 205.275 64.8558 206.291C65.7482 208.448 65.9919 211.141 64.8834 213.264C64.8221 213.354 64.7793 213.362 64.6782 213.429C64.3101 212.871 64.7802 211.141 64.7315 210.282C64.6648 209.11 64.5467 208.765 64.2504 207.733C63.952 206.694 62.3809 204.066 62.4955 203.276Z" fill="#3C4657"/>
<path d="M147.269 23.1463C148.82 22.1568 150.46 21.0264 152.322 20.9332C153.156 20.8914 154.192 20.9161 154.981 20.7436L155.102 20.7162C155.306 20.8528 155.407 20.8918 155.511 21.1156C155.706 21.7277 156.339 22.0884 156.869 22.4855C156.183 22.3858 154.37 21.9818 153.818 22.0413C152.286 22.2061 148.659 22.7482 147.269 23.1463Z" fill="#3C4657"/>
<path d="M132.514 213.746C134.576 214.35 134.731 220.117 134.735 221.864C134.737 222.489 134.802 223.502 134.63 224.096C133.832 223.168 133.801 218.62 133.303 217.181C133.059 216.478 132.318 214.313 132.514 213.746Z" fill="#3C4657"/>
<path d="M155.164 153.984C155.702 154.115 155.57 154.007 155.867 154.342C154.468 156.703 152.389 160.252 151.469 162.795C151.415 162.521 151.468 162.651 151.255 162.415C150.902 162.324 150.851 162.362 150.483 162.458C151.355 161.168 152.168 158.81 153.037 157.337C153.709 156.199 154.611 155.11 155.164 153.984Z" fill="#3C4657"/>
<path d="M63.4352 43.3773C63.7826 43.4952 64.1312 43.7306 64.4508 43.9233C65.2653 47.0236 65.99 46.9618 68.1187 49.1386C68.2257 49.248 68.0083 49.6256 67.9445 49.7665C65.9664 49.335 63.7097 46.2885 63.1766 44.3774C63.0597 43.9584 63.2118 43.7097 63.4352 43.3773Z" fill="#3C4657"/>
<path d="M155.438 205.57C157.584 206.001 158.884 212.775 158.321 214.758C157.924 214.744 158.029 214.808 157.812 214.583C157.417 212.234 157.297 210.117 156.314 207.896C156.014 207.221 155.405 206.281 155.438 205.57Z" fill="#3C4657"/>
<path d="M94.8524 118.261C95.0772 118.243 95.5662 118.228 95.7481 118.143C95.3663 119.944 95.0386 121.757 94.7653 123.578C94.5246 125.242 94.3683 126.979 94.0575 128.622C94.0036 128.173 94.054 127.854 93.6905 127.602L93.3061 127.734C93.857 125.971 93.9047 124.141 94.1673 122.31C94.3639 120.938 94.6184 119.624 94.8524 118.261Z" fill="#3C4657"/>
<path d="M168.517 34.6638C168.933 34.7342 169.624 34.944 169.869 35.2883C170.634 36.3605 169.106 37.3548 168.465 37.8358C168.022 37.7142 167.203 37.5428 166.916 37.2244C166.713 36.4692 167.893 34.957 168.517 34.6638Z" fill="#3C4657"/>
<path d="M99.1499 216.59C100.601 216.838 99.6944 219.215 99.4503 220.208C99.0737 221.742 98.7331 223.265 98.3783 224.802C98.2227 224.843 98.2062 224.812 98.0244 224.778C97.4428 223.929 99.0767 218.229 99.1499 216.59Z" fill="#3C4657"/>
<path d="M134.38 23.201C136.03 23.0948 139.979 25.6277 139.881 27.1365C139.563 27.1842 139.544 27.0856 139.213 26.8731C136.791 24.9853 136.125 23.8102 132.768 24.5445C133.268 23.9778 133.751 23.6048 134.38 23.201Z" fill="#3C4657"/>
<path d="M55.1584 220.279L55.2731 220.298C56.3093 220.451 57.6364 223.144 58.3295 224.062C58.9964 224.945 60.7515 226.84 60.8293 227.881C59.9236 227.72 55.0811 221.29 55.1584 220.279Z" fill="#3C4657"/>
<path d="M146.674 198.277L146.997 198.137C147.475 200.879 147.746 203.585 148.232 206.33C148.368 207.103 149.277 209.534 149.052 210.029C147.54 209.556 147.171 202.678 147.054 201.187C146.979 200.248 146.805 199.211 146.674 198.277Z" fill="#3C4657"/>
<path d="M188.691 216.943C190.346 217.405 190.438 221.548 190.093 222.835C189.952 223.356 189.808 223.69 189.553 224.162C189.23 224.263 189.244 224.264 188.91 224.239C188.605 223.908 188.822 223.267 188.942 222.823C189.607 220.366 189.328 219.297 188.691 216.943Z" fill="#3C4657"/>
<path d="M92.4762 217.076C94.6813 216.985 97.9316 220.597 96.8992 222.813C96.4117 222.621 96.4642 222.065 96.3381 221.614C95.7839 219.626 94.155 218.735 92.5122 217.747C92.3268 217.401 92.3666 217.549 92.4762 217.076Z" fill="#3C4657"/>
<path d="M141.636 163.751C141.543 164.15 141.448 164.56 141.293 164.939C140.858 166 139.49 167.803 139.754 168.962L139.941 169.205C140.348 169.065 141.007 168.32 141.461 167.993C141.085 168.791 140.243 170.423 139.673 171.076C139.231 171.058 139.195 170.912 139.117 170.553C139.307 170.206 139.416 170.061 139.424 169.656C139.227 169.198 139.053 169.196 138.558 169.058L138.607 169.016C139.216 168.495 139.158 167.259 139.733 166.341C140.284 165.462 140.922 164.507 141.636 163.751Z" fill="#3C4657"/>
<path d="M156.427 37.8991C157.012 37.8926 157.349 37.8524 157.744 38.3524C158.062 39.2486 157.177 40.2877 156.485 40.7574C154.352 40.8122 154.981 38.8155 156.427 37.8991Z" fill="#3C4657"/>
<path d="M149.613 152.51C150.124 152.574 150.24 152.511 150.459 153.019C149.962 154.107 149.184 155.013 148.508 155.997C148.109 156.58 147.833 157.494 147.193 157.749C146.783 157.13 146.76 156.371 147.469 155.972C148.08 155.365 148.345 154.769 148.714 154.011C148.806 153.909 149.066 153.428 149.15 153.28L149.613 152.51Z" fill="#3C4657"/>
<path d="M81.0654 62.9388C84.081 62.9406 82.8567 66.7507 80.6525 66.5834L80.6561 66.4624C81.2553 66.2156 81.3209 66.1472 81.7788 65.6808C81.9045 65.2162 82.0144 64.6386 82.1181 64.1596C82.0037 63.811 81.5814 63.4484 81.1876 63.6369C80.5366 63.9485 79.8156 65.1845 80.0656 65.9091C80.1231 66.0757 80.1589 66.0177 80.13 66.2427C79.8232 66.2457 79.7974 66.2081 79.5225 66.042C79.0218 65.0461 80.2465 63.4709 81.0654 62.9388Z" fill="#3C4657"/>
<path d="M138.412 164.801C139.297 163.175 139.389 162.357 140.886 161.277C140.362 163.181 139.213 164.217 139.486 166.163C139.2 166.303 139.08 166.278 138.752 166.287C138.488 166.293 138.426 166.273 138.213 166.432L138.186 166.383C138.053 166.08 138.036 166.019 138.087 165.697L138.188 165.068L138.412 164.801Z" fill="#3C4657"/>
<path d="M138.412 164.801C138.96 165.434 138.898 165.439 138.752 166.287C138.488 166.293 138.426 166.273 138.213 166.432L138.186 166.383C138.053 166.08 138.036 166.019 138.087 165.697L138.188 165.068L138.412 164.801Z" fill="#3C4657"/>
<path d="M90.4587 57.881C91.3208 57.8046 93.1658 58.007 93.223 59.1543C92.9143 60.2233 91.0115 61.0509 89.9736 61.05L89.8657 60.9274C90.1122 60.6356 90.5056 60.5458 90.881 60.4084C91.5499 60.0988 93.5399 59.1536 91.5378 58.2879C90.8169 57.9761 90.2388 59.4364 89.7167 59.8507L89.5828 59.6905C89.4345 58.7891 89.7975 58.4056 90.4587 57.881Z" fill="#3C4657"/>
<path d="M166.576 19.5741C166.895 19.5501 167.373 19.5585 167.627 19.7664C167.046 20.7393 164.663 20.4576 165.312 22.9565L165.379 23.0822L165.277 23.2336L165.068 23.2217C163.23 21.6834 165.132 20.2199 166.576 19.5741Z" fill="#3C4657"/>
<path d="M91.5687 155.284C91.8589 154.999 92.0441 154.818 92.3728 154.567C92.3134 155.136 92.3063 156.608 92.1982 157.053L92.0058 156.918C91.4904 158.475 91.354 161.521 91.0833 162.094L90.9693 162.134C91.1218 159.88 91.401 157.572 91.5687 155.284Z" fill="#3C4657"/>
<path d="M137.549 166.217C137.8 166.343 137.915 166.439 138.186 166.383L138.213 166.432C138.256 167.86 138.256 169.593 138.378 170.989L137.701 171.222C137.76 169.752 137.571 167.769 137.549 166.217Z" fill="#3C4657"/>
<path d="M71.8924 46.2064C72.152 46.1569 72.1973 46.1347 72.4623 46.1978L72.5015 46.3956C71.9133 47.0878 70.4094 47.5676 69.5371 47.8082C69.3689 47.9328 69.2956 47.9208 69.0869 47.9507L68.9433 47.7964C69.0893 46.6936 71.0167 46.3672 71.8924 46.2064Z" fill="#3C4657"/>
<path d="M153.797 24.7423C154.407 24.759 154.838 24.954 154.873 25.6577C154.738 26.0594 154.842 25.9178 154.437 26.172C153.859 26.1142 153.259 26.0939 153.177 25.3912C153.327 25.0094 153.444 24.9669 153.797 24.7423Z" fill="#3C4657"/>
<path d="M160.029 17.0661L160.276 17.2037C160.544 17.7918 160.731 19.4862 160.39 20.0413C159.337 19.4759 159.782 18.0683 160.029 17.0661Z" fill="#3C4657"/>
<path d="M165.32 87.2106C165.778 87.7279 166.33 89.3598 166.726 90.043C166.988 90.4921 167.289 90.6369 167.51 90.9709C166.944 91.1456 166.88 91.1226 166.299 91.1142C166.168 90.7948 166.487 90.0845 166.4 89.8941C166.153 89.3529 165.251 87.747 165.32 87.2106Z" fill="#3C4657"/>
<path d="M154.887 148.138C156.239 147.814 157.234 146.939 158.446 146.439C157.52 147.316 155.927 148.873 154.604 148.549C154.867 148.319 154.782 148.454 154.887 148.138Z" fill="#3C4657"/>
<path d="M142.139 102.251C142.064 102.119 142.004 102.052 141.909 101.93L141.609 101.897C141.352 101.577 141.424 101.73 141.37 101.287C141.552 100.865 141.747 100.484 142.06 100.146L142.091 100.229C142.283 100.725 142.518 100.874 142.521 101.412C142.391 101.722 142.295 101.952 142.139 102.251Z" fill="#3C4657"/>
<path d="M155.062 27.9222C155.968 28.0243 156.18 28.6133 155.916 29.4516C155.554 29.2475 155.202 29.0932 154.982 28.7388C154.883 28.2374 154.877 28.4472 155.062 27.9222Z" fill="#3C4657"/>
<path d="M159.295 27.1797C159.811 27.197 159.922 27.1844 160.268 27.4797C160.394 27.8398 160.288 28.1159 160.208 28.5009C159.806 28.3971 159.559 28.2916 159.309 27.9687C159.188 27.6002 159.192 27.5545 159.295 27.1797Z" fill="#3C4657"/>
<path d="M168.549 129.219C168.583 128.74 168.552 128.34 168.821 127.965L168.996 127.952C169.245 128.381 169.212 128.722 169.184 129.218C168.991 129.604 169.018 129.696 168.69 129.92C168.48 129.639 168.554 129.659 168.549 129.219Z" fill="#3C4657"/>
<path d="M136.88 18.6358C137.06 18.754 137.018 18.7391 137.158 18.9203C137.291 19.5184 137.409 20.471 137.173 21.0452C137.115 21.0099 136.965 20.8721 136.917 20.8306C136.786 20.1522 136.738 19.3143 136.88 18.6358Z" fill="#3C4657"/>
<path d="M110.355 58.6887C111.061 58.9342 110.987 59.6665 110.769 60.2586C110.001 59.934 109.975 59.358 110.355 58.6887Z" fill="#3C4657"/>
<path d="M100.331 83.0011L100.427 82.9361C101.241 82.3793 101.282 82.0873 102.326 81.4537C101.833 82.1088 101.488 82.403 101.063 83.1492C101.017 82.8958 101.08 82.9888 100.886 82.8493L100.331 83.0011Z" fill="#3C4657"/>
<path d="M165.771 133.475C166.502 133.044 166.867 132.82 167.679 132.522C167.122 133.044 166.588 133.511 165.911 133.876L165.771 133.475Z" fill="#3C4657"/>
<path d="M102.973 82.286C103.408 81.8257 103.716 81.5581 104.359 81.4114C104.296 81.7265 103.386 82.2732 103.079 82.6354L102.973 82.286Z" fill="#3C4657"/>
<path d="M73.691 147.641C73.9637 147.254 74.2799 146.694 74.6883 146.522C74.8599 146.907 74.0517 147.682 73.772 147.941L73.691 147.641Z" fill="#3C4657"/>
<path d="M138.951 19.8523C139.478 19.7417 140.073 19.7586 140.18 20.4642L140.032 20.6365L139.846 20.619C139.624 20.3383 139.572 20.1278 139.168 20.2191L138.951 19.8523Z" fill="#3C4657"/>
<path d="M155.102 20.7162L155.566 19.7937L156.085 19.729C155.674 20.2243 155.571 20.4386 155.511 21.1156C155.407 20.8918 155.306 20.8528 155.102 20.7162Z" fill="#3C4657"/>
<path d="M142.331 204.496C142.476 204.148 142.542 203.974 142.745 203.648L142.897 203.59C142.916 204.009 142.776 204.262 142.62 204.654L142.331 204.496Z" fill="#3C4657"/>
</svg>
