<svg width="240" height="240" viewBox="0 0 240 240" fill="none" xmlns="http://www.w3.org/2000/svg">
<path d="M170.08 70.2626C166.331 69.7024 163.688 68.6417 160.203 67.7111C157.928 67.3149 155.366 66.1968 153.152 65.8536C143.628 64.3774 134.759 61.1955 124.938 62.0047C123.658 62.1102 121.993 61.8034 120.662 61.8627C119.606 61.8066 118.316 62.0421 117.283 61.9486C112.613 61.5255 108.016 61.34 103.322 61.4304C101.176 61.4399 99.0408 61.4946 96.8945 61.5964C91.0556 61.8733 85.328 60.0715 79.5224 59.7554C77.9608 59.6703 76.374 59.6615 74.8123 59.6837C73.6028 59.7008 72.3835 59.8672 71.1739 59.7753C69.178 59.6078 68.7924 58.8869 67.7416 57.5552C65.8973 55.2177 67.4646 53.3296 67.8362 50.8018C68.1104 48.926 68.045 46.4543 67.4507 44.5979C65.9349 41.4649 64.4289 38.1824 62.7252 35.1501C62.5596 34.854 60.9993 34.5468 60.7139 34.2192C59.1634 33.0132 57.9232 31.5149 56.5258 30.2411C55.2953 29.1198 53.2187 27.9812 51.9312 26.9209C49.7181 25.0984 44.5987 24.7405 41.7885 25.1559C41.1441 25.2918 41.2304 25.1723 40.8977 25.5542C40.9353 26.2569 41.6827 26.5036 41.918 27.3744C38.4035 28.5459 33.1728 35.3708 31.8046 38.4918C30.794 39.8198 29.6137 41.3718 28.5058 42.6189C26.8968 44.4303 25.5884 45.6085 24.2606 47.6662C22.2103 49.4706 18.9547 54.5543 17.0798 56.8871C17.0297 58.0794 16.6664 60.4462 18.0514 61.0405C18.4341 61.588 18.4063 61.652 18.4467 62.2917L18.494 63.0215C19.1259 63.7411 19.3723 63.9461 20.1935 64.4868L21.1915 64.9673L21.3905 65.1134C27.0123 67.0904 28.5893 63.1697 32.5576 60.2818C35.2773 58.3021 40.9061 54.9924 44.763 55.9857C47.6163 57.3497 50.3235 60.7197 51.4607 63.4219C52.744 66.4684 53.3495 69.6161 54.6718 72.5303C56.825 77.1834 58.2545 82.0545 60.1071 86.805C61.8622 91.0311 63.2903 95.0265 64.447 99.4389C65.509 102.893 65.4116 106.541 65.9794 109.998C66.7269 114.547 67.3031 118.496 67.2878 123.15C67.2781 125.908 67.8348 128.118 67.5773 131.027C67.3003 132.415 67.6789 132.882 67.768 134.184C67.9685 137.128 66.8285 140.394 66.5084 143.298L63.6675 169.789C63.1595 174.697 62.5025 186.017 60.6235 190.322C58.9713 191.098 57.045 191.442 55.2606 191.913C54.5632 192.098 52.8735 192.335 52.2972 192.668C50.3319 193.808 45.4687 196.987 46.5334 199.603C46.8257 200.321 48.6923 201.376 49.5121 201.544C50.1537 201.72 50.943 201.701 51.5596 202.017C54.0524 203.291 55.4345 204.988 58.5913 204.904C61.9708 205.173 63.7497 207.867 67.6233 208.037C70.9749 208.183 71.6082 207.304 74.5465 206.455C76.3295 205.995 79.5447 205.751 80.8684 204.363C83.8874 201.198 83.2388 195.303 83.6229 191.551C84.4316 183.641 85.0385 175.995 84.8645 168.06C84.8116 165.635 84.5193 163.203 84.3258 160.799L83.4837 148.783C83.3084 145.909 83.3195 143.022 83.2082 140.137C83.2527 136.642 82.5582 132.993 82.5094 129.545C82.4245 123.476 82.2088 117.327 82.1281 111.264C82.0807 107.773 81.6826 103.875 81.9318 100.452C82.2004 96.7903 82.2645 92.0233 84.1519 88.8105C84.5959 88.0868 86.1771 87.0134 86.8953 86.4038C87.452 86.58 88.0547 86.7308 88.6226 86.8841C91.5135 86.1789 94.1539 85.486 97.1632 85.395C102.154 85.2439 107.167 85.2946 112.148 84.9891C113.328 84.8921 114.516 84.4913 115.682 84.359C117.234 84.1827 118.845 84.2041 120.394 83.9881C122.679 83.7115 125.028 83.3989 127.304 83.0982C130.39 82.6904 134.531 81.3081 137.645 81.6784C142.033 82.2 146.574 83.4272 151.037 83.7193C152.026 83.784 153.186 84.1388 154.197 84.2307C156.162 84.3655 158.215 83.7914 160.19 84.1409C161.602 84.3928 163.807 84.807 165.658 84.9993C168.355 85.2056 171.724 85.3741 172.968 86.8823C174.599 88.8593 174.526 91.9772 175.098 94.2942C175.54 96.0848 176.599 97.8461 176.89 99.6999C177.989 103.776 177.754 107.804 178.003 111.892C178.327 117.216 178.242 121.306 177.445 126.577C176.669 131.702 176.565 137.325 176.134 142.509C175.907 145.238 176.285 148.594 176.178 151.374C176.095 152.659 176.771 155.193 176.563 156.329C175.863 160.15 176.067 163.794 175.878 167.623C175.61 172.297 175.232 176.962 174.743 181.62L175.067 181.835C175.505 181.74 175.536 181.708 175.922 181.518L176.124 181.622C176.214 182.092 176.493 187.145 176.442 187.612C176.732 188.847 177.062 190.019 177.272 191.269C177.69 193.742 177.624 196.154 177.518 198.59C177.354 202.392 175.797 203.218 173.232 205.799C172.277 206.761 172.22 207.747 170.709 208.428L169.813 208.571C169.817 208.934 168.621 209.954 168.267 210.196C168.3 210.777 168.325 211.056 168.445 211.624C168.579 212.097 168.835 212.667 169.027 213.133C170.064 213.443 171.496 213.576 172.59 213.734C175.639 214.169 178.565 214.567 181.653 214.677C182.967 214.724 184.453 215.014 185.826 214.999C186.68 214.99 187.528 214.871 188.348 214.647C189.143 214.415 190.304 213.934 190.834 213.294C193.031 210.637 193.823 206.343 194.182 203.054C194.334 200.652 194.119 198.143 194.383 195.751C194.868 191.368 195.395 186.997 195.496 182.584C195.531 181.059 195.841 179.371 195.769 177.855C195.325 168.412 195.298 158.966 195.327 149.517C195.409 144.396 194.101 139.315 193.884 134.274C193.54 126.302 193.729 118.251 193.416 110.268C193.278 106.742 193.95 103.03 194.173 99.5145C194.357 96.6268 194.236 93.7134 195.539 91.007C197.187 88.1673 201.323 85.5513 203.756 83.1977C205.378 81.6638 206.697 79.8031 208.237 78.2817C209.649 76.9766 211.15 75.9213 212.482 74.5257C213.929 73.0104 214.658 71.6638 215.618 69.896C217.257 66.8789 219.654 64.0726 221.758 61.3276C223.539 59.0055 226.284 54.75 220.546 56.1191C220.283 56.1821 218.654 55.6646 218.266 55.7532C213.793 56.9279 210.019 59.3847 207.421 63.0532C206.59 64.2114 205.373 66.0351 204.356 66.9601C202.242 68.9569 199.676 70.4148 197.291 72.0443C195.235 73.4488 193.567 74.6095 191.161 75.5208C190.295 75.8487 188.826 76.6604 187.853 76.4083C187.199 76.2384 186.638 75.7223 185.884 75.5111C183.902 74.6237 182.39 73.3752 180.638 72.6558C177.365 71.3122 173.715 71.1159 170.08 70.2626ZM58.8071 197.67C58.107 198.953 57.8773 199.532 57.8341 201.024L57.6824 201.462C56.1416 202.033 52.861 199.151 52.0578 197.972C55.3566 197.352 55.9607 196.112 58.8614 194.983C59.8677 194.592 63.0217 194.42 63.8387 193.609C66.127 191.195 65.8375 186.373 66.5432 183.62C68.8105 174.756 68.6463 166.216 68.8147 157.191C68.8398 155.866 68.8272 154.01 69.0499 152.708C69.3895 151.526 69.6791 150.332 69.9212 149.129C70.0521 148.438 69.9727 147.876 70.2344 147.276C70.4028 149.282 69.8113 151.007 69.7514 152.916C70.0493 154.942 70.2818 156.837 70.3806 158.883C70.5267 161.888 70.4084 164.859 70.4293 167.862C70.4418 169.674 71.0027 171.616 71.0849 173.451C71.1545 175.017 70.7257 176.452 70.581 177.999C70.4696 181.25 70.8274 183.929 69.9908 187.2C69.3617 189.664 67.9879 191.971 66.4443 194.035C64.9147 196.082 61.2025 196.809 58.8071 197.67ZM63.7316 56.6959C64.5152 57.9195 65.7553 60.5855 66.262 61.2718C67.7861 61.8446 69.377 62.7357 70.8427 63.148C71.3396 63.2877 73.8575 62.8557 74.5618 62.8032C76.0288 62.7012 77.5014 62.7201 78.9643 62.8595C84.2994 63.3678 89.743 64.5632 95.1477 64.78C97.1019 64.8398 99.0547 64.6344 101.008 64.5968C106.297 64.4948 111.562 64.585 116.839 64.7311C121.079 64.8486 125.327 64.9297 129.539 64.6779C132.508 64.5003 135.969 64.9976 138.664 66.1072C143.873 68.2152 149.657 68.2383 155.072 69.6884C160.816 71.2269 166.473 72.997 172.002 75.1213C175.355 76.4052 179.528 76.5379 182.053 79.2497C182.521 79.7521 183.272 80.4295 183.494 81.0646C185.806 87.6754 187.368 94.3203 187.7 101.288C187.787 103.127 187.833 104.986 187.975 106.784C189.226 120.973 189.552 135.221 188.953 149.447C188.649 155.242 187.255 161.031 187.226 166.838C187.215 169.184 187.577 171.564 187.513 173.919C187.329 182.033 187.24 190.221 187.897 198.318C188.103 199.677 188.847 201.486 188.758 202.844C188.619 204.971 188.761 209.181 186.08 209.942C183.214 210.756 180.318 211.072 177.412 210.2C176.557 209.945 175.174 209.985 174.879 209.05C175.361 208.065 177.608 207.739 178.677 207.54C179.423 206.33 179.6 205 180.189 203.815C182.9 198.362 180.676 192.929 180.53 187.08C180.389 182.477 180.386 177.87 180.522 173.268C180.559 171.888 181.002 170.053 180.89 168.778C180.462 163.902 180.615 158.975 180.391 154.114C180.241 150.836 180.056 147.957 180.099 144.661C180.194 140.41 180.44 136.162 180.836 131.926C180.948 130.708 180.947 128.955 181.192 127.852C182.102 124.33 183.261 122.988 183.16 119.177C183.094 116.662 182.729 114.308 182.618 111.88C182.292 104.792 181.05 97.9172 179.815 90.9196C179.453 88.8669 180.751 86.322 178.374 85.3703C174.97 84.289 174.431 82.4044 171.681 80.5519C170.733 80.1913 169.022 79.8847 167.108 79.0468C166.133 78.6201 164.982 78.3644 163.93 78.1559C161.786 77.7192 159.547 78.061 157.374 77.9298C155.719 77.8299 154.06 77.4311 152.404 77.319C150.625 77.2397 148.832 77.7116 147.013 77.6867C141.574 77.6123 136.107 77.319 130.674 77.6313C129.426 77.7031 128.194 77.8371 126.946 77.8816C124.463 77.9124 121.982 77.8523 119.503 78.0696C110.968 79.3928 102.38 80.4369 93.8352 81.7938C91.9394 82.0949 90.0813 82.5352 88.1897 82.8551C85.4741 83.2403 82.5999 82.2924 80.5065 84.6047C79.6547 85.5454 80.3172 86.9351 80.6721 87.9822C79.9971 89.313 79.8607 90.0011 79.4167 91.3709C77.7241 96.7409 76.8138 102.302 76.7108 107.903C76.5717 112.786 76.9029 117.77 76.9043 122.67C76.9043 124.477 77.5349 126.603 77.539 128.459C77.5891 133.762 78.0429 138.762 78.6999 144.015C79.1119 147.307 79.1508 151.446 79.3039 154.771C79.5572 160.31 78.8182 165.601 80.0723 171.108C80.3882 172.501 79.7939 175.68 80.0027 177.19C80.2295 181.757 79.78 186.127 79.3262 190.664C79.0993 192.885 79.3512 195.467 78.8098 197.639C78.3797 199.357 77.411 202.298 75.3412 202.769C71.4398 203.659 69.5343 204.305 65.6913 203.14L65.5758 203.146C64.9216 203.092 62.9938 202.232 62.4733 201.709C62.3369 201.555 62.2422 201.518 62.0585 201.399C61.6493 200.908 61.428 200.772 61.6368 200.154C62.2548 199.64 67.5091 198.572 68.553 198.342C69.306 197.39 69.8113 196.189 70.5142 195.293C71.2241 194.391 72.3111 193.508 73.0669 192.59C73.8269 191.68 74.3447 190.611 74.5771 189.474C75.3273 185.793 74.4964 182.447 74.495 178.899C74.495 174.773 73.831 170.574 73.6918 166.579C73.5318 161.967 73.4664 157.773 73.1337 153.146C72.6995 147.121 73.2325 140.875 72.5797 134.811C72.2192 130.966 71.8267 127.128 71.3744 123.294C71.3479 121.079 70.9164 118.97 70.7856 116.77C70.3485 109.477 68.6811 102.171 67.9698 94.8587C67.768 92.7906 67.5829 90.8681 67.324 88.8577L65.7971 89.6634C64.987 87.8332 64.8367 85.6949 64.209 84.1052C63.2082 81.5786 62.1643 79.0358 61.1649 76.4858C60.0848 73.7324 58.1849 70.7751 56.974 67.9475C55.6517 64.8628 55.2105 61.0195 53.3272 58.3646C51.8532 56.2846 48.6658 55.1116 46.9635 53.2181L46.8146 53.0516C41.989 52.0804 39.9164 52.2852 35.5042 54.5433C34.4449 55.085 33.1769 55.6522 32.1539 56.1993C30.9165 56.8615 30.7091 57.4049 29.2574 57.9832L29.0584 58.0613C28.8844 56.4229 28.3513 55.1772 27.0248 54.0781C26.4458 53.4848 25.729 52.8426 25.4325 52.1029C25.9503 51.742 26.5335 50.4334 26.8481 50.272C29.8267 48.7437 31.3926 46.282 33.3843 43.7494C35.9496 40.4887 37.734 36.8065 40.0723 33.381L40.3688 33.3935C40.7488 35.1865 43.179 41.3441 44.5486 42.8169C47.4869 45.9757 47.1862 49.2192 49.3993 52.4054C50.137 53.9857 54.4839 56.9576 56.3977 57.6319C58.5899 58.4043 61.0076 57.1193 63.7316 56.6959ZM62.3619 50.3446C60.4745 51.1637 59.3416 51.9036 57.5711 52.8941C56.001 51.7151 55.7171 50.7921 54.7859 50.0393C54.6078 49.7019 51.9896 46.6158 51.451 45.8441C51.2951 45.4974 50.8135 44.7616 50.5797 44.4149C49.7251 43.1442 49.2086 41.8111 48.5266 40.4798C47.3338 37.8252 45.9851 35.8064 45.7484 32.9739C46.7381 32.4444 47.7096 31.9017 48.7466 31.4607C50.4154 32.1671 52.2583 33.0992 53.7852 34.0408C55.0309 34.8085 55.7296 35.9275 56.6705 36.9674C57.8063 38.0632 59.9108 39.1272 60.5831 40.6789C61.0689 41.8006 61.1357 43.2296 61.3807 44.4149C61.8344 46.6054 62.4218 48.0835 62.3619 50.3446ZM214 63.5C214 63.5 213.8 63.851 213.523 64.3325C213.472 64.4212 213.345 64.948 213.274 65C213.027 65.5131 212.707 66.7861 212.633 66.9018C210.178 70.7292 205.646 75.9308 202.172 78.9092C200.57 80.2826 196.8 81.7571 195.069 82.4256C194.454 82.3369 193.104 82.1621 192.964 81.6692C192.753 80.922 191.421 79.6461 191.193 79.2245C192.952 78.4046 195.036 77.6792 196.825 76.7884C198.067 76.346 199.649 76.0131 200.837 75.524C204.973 73.8215 206.808 70.5628 209.051 67.1433C209.495 66.4668 211.184 65.1382 211.907 64.3255C212.293 63.9314 212.785 63.1957 213.274 63.1037C214.141 62.4522 214.61 61.984 215.382 61.2202C214.985 62.0141 214.5 63 214 63.5ZM65.8959 202.78C66.9454 201.633 67.1333 201.439 67.5523 199.991C65.9057 200.492 65.4742 200.582 64.1268 201.599C64.4122 201.932 65.1749 202.157 65.8959 202.78Z" fill="#3C4657"/>
<path d="M70.2273 147.668C69.9656 148.268 70.0449 148.831 69.9141 149.521C69.6719 150.724 69.3824 151.918 69.0428 153.1L69.3462 153.37L69.6149 153.26L69.7443 153.309C69.8042 151.399 70.3957 149.675 70.2273 147.668Z" fill="#3C4657"/>
<path d="M70.2273 147.668C71.1028 145.875 70.1075 143.121 69.953 141.188C69.7484 138.613 69.715 135.989 69.1902 133.455C69.0427 132.742 68.3969 132.292 67.9222 131.679C67.9403 131.232 67.9876 131.379 67.8304 130.991L67.7775 131.294L67.5701 131.42C67.2931 132.807 67.6717 133.274 67.7608 134.577C67.9612 137.52 66.8212 140.786 66.5011 143.69L63.6603 170.182C63.1522 175.09 62.4953 186.409 60.6162 190.714C58.9641 191.49 57.0377 191.835 55.2533 192.305C54.556 192.49 52.8662 192.727 52.29 193.06C50.3246 194.2 45.4614 197.379 46.5262 199.995C46.8185 200.714 48.685 201.769 49.5048 201.936C50.1465 202.112 50.9357 202.094 51.5523 202.409C54.0452 203.683 55.4273 205.38 58.5841 205.297C58.8457 205.164 58.9446 205.114 59.2424 205.097C59.4638 204.354 58.527 201.944 57.8269 201.416L57.6752 201.854C56.1344 202.425 52.8537 199.543 52.0506 198.364C55.3493 197.744 55.9534 196.504 58.8541 195.376C59.8604 194.984 63.0144 194.812 63.8315 194.001C66.1197 191.587 65.8302 186.765 66.5359 184.012C68.8033 175.149 68.639 166.608 68.8075 157.583C68.8325 156.258 68.8201 154.403 69.0428 153.1C69.3824 151.918 69.6719 150.724 69.9141 149.521C70.0449 148.831 69.9656 148.268 70.2273 147.668Z" fill="#3C4657"/>
<path d="M185.877 75.9017C183.895 75.0143 182.383 73.7659 180.631 73.0464C177.358 71.7028 173.707 71.5065 170.073 70.6532L169.772 70.9C169.834 71.1894 169.856 71.2331 170.13 71.4097C171.413 72.2371 184.431 76.3181 185.534 76.0468C185.678 76.0115 185.753 75.9651 185.877 75.9017Z" fill="#3C4657"/>
<path d="M31.7973 38.8841C30.7868 40.2121 29.6065 41.7641 28.4986 43.0112C26.8896 44.8226 25.5812 46.0008 24.2534 48.0585L24.6472 48.1036C26.3871 47.3804 30.4249 42.5289 31.2837 40.7855C31.6832 39.9762 32.0618 39.7335 31.7973 38.8841Z" fill="#3C4657"/>
<path d="M21.3832 65.5042C21.9525 65.1246 22.338 64.786 22.7848 64.2888C22.3992 63.5834 19.4331 62.2922 18.701 61.5948C18.5229 61.425 18.3837 61.4731 18.044 61.4313C18.4268 61.9788 18.399 62.0428 18.4393 62.6824L18.4867 63.4123C19.1186 64.1319 19.3649 64.3369 20.1861 64.8776L21.1841 65.3581L21.3832 65.5042Z" fill="#3C4657"/>
<path d="M21.1841 65.3581C21.5975 65.0717 21.631 65.0878 21.8607 64.639C21.8426 64.1118 21.9191 64.3554 21.5753 63.8965C21.0297 63.6949 21.3039 63.7223 20.7207 63.8172C20.2294 64.1946 20.3768 64.1471 20.1861 64.8776L21.1841 65.3581Z" fill="#3C4657"/>
<path d="M41.7812 25.5492C41.1368 25.6851 41.2231 25.5656 40.8904 25.9475C40.928 26.6502 41.6754 26.8969 41.9107 27.7677C42.4034 27.8123 42.6539 27.705 42.9365 27.3498C42.949 26.6768 42.2503 26.0576 41.7812 25.5492Z" fill="#3C4657"/>
<path d="M170.702 208.822L169.806 208.964C169.809 209.327 168.613 210.347 168.26 210.589C168.293 211.17 168.318 211.449 168.438 212.017C168.528 211.958 169.105 211.686 169.108 211.681C169.372 211.175 169.597 210.486 169.864 209.985C170.091 209.559 170.411 209.182 170.702 208.822Z" fill="#3C4657"/>
<path d="M39.8147 43.0737C39.1939 43.1252 38.434 43.2119 37.8257 43.2671C34.7427 43.5467 35.1616 45.9291 37.1103 47.4005C37.5348 47.721 38.1584 47.8125 38.6998 47.9266C39.2816 47.6825 39.759 47.5129 40.2796 47.1623C42.2352 45.8629 42.1586 43.968 39.8147 43.0737Z" fill="#3C4657"/>
<path d="M39.8147 43.0737C39.3094 43.2752 39.5363 43.1251 39.1911 43.629C39.3178 44.6571 40.0597 45.0256 40.2796 47.1623C42.2352 45.8629 42.1586 43.968 39.8147 43.0737Z" fill="#3C4657"/>
<path d="M46.2493 42.1276C45.719 40.5067 42.7947 33.6729 41.1049 33.2679L40.3617 33.7843C40.7417 35.5773 43.1719 41.7349 44.5415 43.2077C47.4798 46.3665 47.1791 49.61 49.3922 52.7962C49.5384 51.9305 46.9328 47.5114 46.8687 45.9845C47.1234 45.8279 47.2209 45.7158 47.4129 45.4923C46.8534 44.7057 46.4261 43.0522 46.2493 42.1276Z" fill="#3C4657"/>
<path d="M48.5194 40.8716C47.5158 40.5185 48.28 39.8164 47.0356 40.5884L46.9632 40.5087L46.9827 40.2909C46.2047 40.755 46.4539 41.3773 46.2493 42.1276C46.4261 43.0522 46.8534 44.7057 47.4129 45.4923C48.0156 46.5674 48.2716 47.5723 49.3656 48.0545C51.5759 47.7975 50.5307 47.2611 51.4437 46.2359C51.2878 45.8892 50.8062 45.1534 50.5724 44.8067C49.7178 43.5359 49.2014 42.2029 48.5194 40.8716Z" fill="#3C4657"/>
<path d="M67.545 200.381C65.8984 200.881 65.4669 200.972 64.1196 201.989C64.4049 202.321 65.1677 202.547 65.8887 203.169C66.9382 202.023 67.126 201.829 67.545 200.381Z" fill="#3C4657"/>
<path d="M51.4437 46.2359C50.5307 47.2611 51.5759 47.7975 49.3656 48.0545L49.5202 48.0567C50.2105 48.065 50.7269 48.1228 51.2308 47.6823C51.3881 47.3248 51.4117 47.3175 51.4465 46.9388C51.9894 48.0182 50.3915 48.8591 53.7626 49.5353C54.0563 49.9471 54.2358 50.3324 54.659 50.5481L54.7787 50.4307C54.6005 50.0932 51.9824 47.0076 51.4437 46.2359Z" fill="#3C4657"/>
<path d="M25.4253 52.4951C24.9242 52.815 24.373 53.4828 24.2533 54.0538C24.5762 55.2901 25.7593 54.9385 26.7782 54.7203L27.0176 54.4703C26.4386 53.877 25.7217 53.2348 25.4253 52.4951Z" fill="#3C4657"/>
<path d="M62.0513 201.79C61.972 202.053 61.8286 202.21 61.9915 202.423C62.583 203.197 64.1127 204.012 65.151 204.014C65.3584 203.825 65.4002 203.761 65.5686 203.537C64.9144 203.483 62.9867 202.623 62.4661 202.1C62.3297 201.946 62.235 201.909 62.0513 201.79Z" fill="#3C4657"/>
<path d="M64.1197 201.99C63.4739 202.194 63.1537 202.209 62.4661 202.1C62.9867 202.623 64.9144 203.483 65.5686 203.537L65.6842 203.531L65.8888 203.171C65.1678 202.548 64.405 202.323 64.1197 201.99Z" fill="#3C4657"/>
<path d="M25.7608 58.5665C25.0467 58.5765 24.5651 58.5503 23.9304 58.8621L23.826 59.1779C23.9694 59.322 24.0543 59.3423 24.2436 59.4465L24.4162 59.4574C24.9897 59.4904 25.6425 59.5584 26.0934 59.1836C26.099 58.7453 26.163 58.958 25.7608 58.5665Z" fill="#3C4657"/>
<path d="M176.435 188.004C176.485 187.537 176.207 181.484 176.117 181.015L175.915 180.91C175.529 181.1 175.498 181.133 175.06 181.227L174.735 181.012C174.497 183.873 173.205 187.729 172.411 190.521C171.719 192.95 169.658 198.56 167.683 200.141C167.496 200.29 167.302 200.432 167.101 200.567C163.288 201.074 159.666 201.613 158.814 205.791C158.085 209.363 160.533 210.127 163.569 211.009C163.825 210.26 163.676 209.789 163.548 209.024C159.025 206.97 163.159 203.086 166.476 203.033C166.915 203.027 168.944 202.495 169.315 202.205C171.306 200.66 172.584 197.792 173.845 195.677C174.795 193.378 175.795 190.321 176.435 188.004Z" fill="#3C4657"/>
<path d="M169.806 208.962C167.129 209.28 166.233 209.808 163.548 209.022C163.676 209.787 163.825 210.258 163.569 211.007C165.614 211.486 166.303 211.296 168.26 210.587C168.614 210.344 169.809 209.325 169.806 208.962Z" fill="#3C4657"/>
</svg>
