<svg width="240" height="240" viewBox="0 0 240 240" fill="none" xmlns="http://www.w3.org/2000/svg">
<path d="M138.734 114.172C139.269 114.143 139.792 114.06 140.276 114.241C140.434 114.512 140.406 114.387 140.301 114.759C139.786 114.796 139.5 114.975 138.992 114.869C138.703 114.565 138.793 114.667 138.734 114.172Z" fill="#3C4657"/>
<path d="M148.184 145.386C149.169 145.257 150.486 145.157 151.472 145.468C154.372 146.383 152.542 149.314 150.782 150.243C150.414 150.437 149.653 149.986 149.307 149.801L148.214 150.073C147.607 150.226 146.992 150.402 146.385 150.513C144.904 150.785 141.823 148.835 143.858 147.449C144.46 147.038 145.028 146.658 145.669 146.305C146.612 145.784 147.095 145.463 148.184 145.386Z" fill="#3C4657"/>
<path d="M99.2994 162.216C98.3772 162.218 97.0389 161.688 96.9763 160.672C97.4294 159.633 98.6233 159.7 98.9195 159.261C100.031 157.615 100.399 157.763 102.438 158.07C103.812 158.277 105.388 159.087 106.239 160.271C106.724 160.946 106.476 161.466 106.305 162.259C104.641 162.751 103.946 162.869 102.375 162.138C101.489 162.154 100.111 162.276 99.2994 162.216Z" fill="#3C4657"/>
<path d="M99.2994 162.216C99.979 161.447 101.059 160.812 102.113 161.267C102.417 161.552 102.408 161.623 102.523 162.036L102.375 162.138C101.489 162.154 100.111 162.276 99.2994 162.216Z" fill="#3C4657"/>
<path d="M135.166 135.973C136.258 135.922 137.281 136.479 138.17 137.033C140.277 138.347 140.616 139.686 138.239 140.836C136.322 140.904 133.206 139.794 133.524 137.322C133.604 136.698 134.593 136.224 135.166 135.973Z" fill="#3C4657"/>
<path d="M120.033 154.077C122.822 153.888 126.146 157.183 119.575 157.852C118.899 157.836 117.391 157.478 116.902 157.026C114.57 154.869 118.49 154.234 120.033 154.077Z" fill="#3C4657"/>
<path d="M160.234 150.651C162.257 150.641 164.137 152.557 163.221 154.596C163.062 154.947 162.373 155.037 161.986 155.119C158.333 155.158 157.025 151.462 160.234 150.651Z" fill="#3C4657"/>
<path d="M126.658 134.012C126.87 134.02 128.024 134.467 128.326 134.561C129.3 134.865 130.539 135.787 130.854 136.762C131.192 137.807 130.322 137.941 129.581 138.051C128.184 138.169 125.062 137.861 125.046 135.94C125.038 135.084 126.03 134.512 126.658 134.012Z" fill="#3C4657"/>
<path d="M82.2323 156.176C83.6689 156.092 85.272 157.207 84.599 158.776C84.4844 159.043 83.9276 159.121 83.6298 159.188C81.727 159.082 79.611 157.156 82.2323 156.176Z" fill="#3C4657"/>
<path d="M148.242 140.512C149.084 140.433 150.126 140.863 150.85 141.244C150.793 141.643 150.679 142.126 150.596 142.529L149.645 143.229C149.432 143.384 149.377 143.384 149.125 143.462C147.678 143.326 146.915 141.533 148.242 140.512Z" fill="#3C4657"/>
<path d="M140.603 133.844C142.536 133.7 142.47 135.255 141.594 136.376C140.876 136.332 140.379 136.34 139.962 135.684C139.551 135.04 140.019 134.206 140.603 133.844Z" fill="#3C4657"/>
<path d="M139.928 150.02C141.697 150.401 142.098 150.921 142.05 152.653C140.203 152.789 139.513 151.675 139.928 150.02Z" fill="#3C4657"/>
<path d="M128.396 146.412C129.201 146.264 130.682 146.949 131.045 147.639C130.969 148.405 129.338 148.298 128.592 148.566C128.444 148.177 129.13 147.914 129.412 147.491C129.196 146.628 128.854 147.266 128.259 146.812L128.396 146.412Z" fill="#3C4657"/>
<path d="M128.592 148.566L128.501 148.597C127.768 148.493 127.389 147.928 127.524 147.235C127.61 146.794 128.029 146.614 128.396 146.412L128.259 146.812C128.854 147.266 129.196 146.628 129.412 147.491C129.13 147.914 128.444 148.177 128.592 148.566Z" fill="#3C4657"/>
<path d="M109.096 148.37C110.345 148.521 110.14 149.618 109.158 150.132C108.732 150.038 108.687 150.047 108.38 149.771C108.083 149.028 108.517 148.77 109.096 148.37Z" fill="#3C4657"/>
<path d="M152.479 106.839C153.064 106.649 156.536 105.053 157.252 104.97C157.435 104.949 158.493 102.495 158.832 101.937C159.956 100.084 161.4 98.622 162.949 97.0814C163.421 96.6068 165.398 94.8375 166.024 94.4893C166.979 93.958 167.663 92.8957 168.819 93.0083C170.967 93.5026 169.434 96.1316 169.399 97.1297C169.307 99.8436 169.534 102.847 168.517 105.423C167.804 107.23 165.957 108.88 165.375 110.824C165.166 111.456 166.13 111.611 166.565 111.632C168.106 111.707 169.841 111.242 171.342 111.295C173.953 111.388 176.545 111.655 179.17 111.491C181.264 111.352 181.84 110.69 184.15 110.929C185.563 111.369 186.518 111.952 186.851 113.449C187.312 115.709 186.658 116.458 185.52 118.378C184.27 120.04 183.184 121.128 181.608 122.466C181.215 122.748 180.817 123.052 180.395 123.288C179.317 123.983 178.074 124.853 177.08 125.644C176.213 126.333 173.944 127.407 173.432 128.224C173.479 129.199 177.445 131.456 174.613 135.696C174.205 136.333 173.731 137.436 173.25 137.987C172.648 138.676 171.288 139.401 170.302 139.305C167.927 139.074 167.251 138.226 167.186 141.441C167.181 141.682 167.181 141.925 167.187 142.167C167.243 142.635 167.162 142.599 167.419 142.914C167.971 143.07 168.67 143.04 169.264 143.101C172.024 143.384 174.244 145.734 173.814 148.447C173.537 150.192 169.749 149.895 169.52 150.107C169.484 151.105 169.881 152.105 169.866 153.067C169.799 157.546 170.057 163.527 170.257 166.656C170.541 169.929 170.567 171.022 170.64 174.204C170.775 180.198 172.06 185.744 172.555 191.71C172.68 193.221 173.26 194.803 173.241 196.329C172.929 198.504 172.4 201.396 170.596 202.887C169.159 204.077 164.692 205.304 166.719 202.026L166.805 202.09L167.101 201.906C167.724 201.547 169.09 200.987 169.463 200.406C171.197 197.704 169.962 191.5 169.508 188.597C168.256 180.623 168.344 172.765 167.629 164.843C166.02 164.875 164.537 163.678 164.013 162.199C163.799 161.596 164.179 161.031 164.495 160.517C164.959 160.232 167.128 159.527 167.181 159.107C167.606 155.758 167.833 152.01 167.058 148.709C164.657 146.724 164.202 147.092 164.648 143.794C163.236 143.47 158.957 143.545 158.108 142.42L157.958 142.403L158.036 142.806C157.758 143.142 157.075 143.525 156.676 143.776C154.655 143.189 155.004 143.082 154.916 141.219C150.518 139.252 146.245 135.22 143.475 131.411C142.551 130.141 141.679 129.893 141.242 128.176C139.217 127.954 137.33 128.32 135.413 128.942C133.336 129.616 131.294 131.736 129.024 132.541C126.282 133.513 123.415 134.161 120.584 134.871C118.893 135.295 118.472 135.15 116.666 135.81C115.592 136.033 114.822 136.314 113.793 136.666C113.042 136.879 110.054 137.747 109.457 137.753C108.754 137.514 108.484 137.707 107.938 138.126C107.232 138.67 106.369 138.181 106.261 139.301C106.086 140.169 106.318 140.802 106.237 141.492L106.352 141.758C105.994 142.103 105.8 142.288 105.495 142.681L105.084 143.125C103.881 144.125 103.222 144.652 102.289 145.939C101.99 146.351 101.021 147.789 100.739 148.073C100.044 149.039 99.0056 150.453 97.9151 150.946C97.6654 151.034 97.1928 151.184 96.9697 151.283C96.5625 151.441 96.1003 151.63 95.6927 151.77C95.0792 151.189 94.4473 151.31 94.0919 152.067C94.1304 152.124 94.221 152.27 94.266 152.31C93.0814 152.979 91.2328 151.151 90.4034 150.537C88.1005 150.432 85.9353 150.722 83.6156 150.558C81.3362 150.396 81.2337 149.39 79.9005 147.917C79.6584 147.65 79.2235 147.685 78.8519 147.676C78.3582 147.488 78.4279 147.806 77.9508 147.434C77.962 146.932 78.0612 145.932 77.83 145.549C78.2065 145.384 78.4258 145.387 78.8329 145.344L79.4516 145.288L79.4223 144.813C79.988 145.171 79.9663 145.104 80.6457 144.9C81.0227 145.047 81.029 145.247 81.1573 145.624L81.255 145.954C81.5289 145.944 81.6231 145.92 81.8755 146.031C82.0803 146.352 82.383 146.844 82.7642 146.946C83.0933 146.697 82.9708 146.708 83.1383 146.273C83.2314 146.031 82.6941 145.668 82.5746 145.375C82.3766 144.891 82.6446 144.358 82.8302 143.917L82.834 143.968C83.1451 143.593 83.1366 143.309 83.2062 142.829C83.3038 142.686 83.3575 142.59 83.4402 142.438C83.2095 141.428 82.4465 141.502 81.5774 141.232C80.6057 140.6 81.5558 139.868 81.4573 139.211C81.3898 138.761 80.6704 137.788 80.858 137.26C81.188 137.133 81.3315 137.066 81.6163 136.864C83.9867 137.745 85.5693 136.49 87.3992 137.087C87.9338 137.15 88.5786 137.243 89.106 137.281C90.5649 137.309 92.7745 137.254 94.0371 137.338C94.8217 137.415 96.6127 137.259 97.6643 137.287C99.3146 137.18 100.711 137.053 102.37 137.077C103.482 137.01 104.471 136.767 105.563 136.544C106.201 136.257 106.938 136.273 107.694 136.03C111.572 134.782 115.643 133.886 119.589 132.837C120.662 132.552 121.601 132.176 122.647 131.864C123.653 131.564 124.973 131.456 125.961 131.091C127.491 130.526 129.25 129.63 130.592 128.741C131.703 128.005 132.585 127.083 133.861 126.592C136.028 125.759 139.012 126.15 140.666 124.269C143.91 120.581 142.212 118.377 140.869 114.47C140.65 113.827 140.285 111.203 140.26 110.354C140.203 108.323 140.075 105.15 140.945 103.268C141.163 102.795 141.884 102.396 142.225 102.059C142.619 101.67 142.933 101.004 143.355 100.598C143.539 100.42 143.925 100.05 144.198 100.108C147.071 100.728 150.742 104.919 152.479 106.839ZM146.616 117.473C146.455 117.689 146.16 118.082 145.965 118.239C145.35 118.734 144.822 118.71 144.847 119.602C144.861 120.105 144.946 120.673 144.955 121.161C144.936 121.973 144.867 122.465 144.469 123.198C143.483 125.021 143.302 127.192 144.895 128.758C145.302 129.158 145.959 129.666 146.301 130.104C147.099 130.94 147.69 131.501 148.647 132.208C148.973 132.444 150.972 133.797 151.131 133.98C151.931 134.45 154.038 135.619 154.852 135.907C154.993 135.418 154.797 135.068 155.065 134.474C155.349 134.172 155.42 134.186 155.857 134.093C157.18 133.985 157.94 135.11 157.126 136.069C157.039 136.323 156.997 136.505 156.936 136.768C156.969 136.836 157.002 136.905 157.035 136.974C159.04 137.843 162.861 139.195 164.596 140.211C164.843 140.019 165.19 139.847 165.472 139.694C165.535 138.603 165.79 137.915 165.879 136.873C165.929 136.301 165.355 135.872 165.163 135.378C164.979 134.907 164.979 134.111 164.742 133.635C163.961 132.344 162.763 132.213 161.594 131.14C160.684 130.305 160.239 127.519 161.999 127.402C162.83 127.347 163.087 128.702 163.623 129.205C164.192 129.739 164.59 129.654 165.391 129.669C166.122 129.63 166.61 129.462 167.258 129.151C167.759 128.911 168.234 128.069 168.672 127.823C169.42 127.403 170.196 126.998 170.949 126.578C171.685 126.166 172.367 125.637 173.084 125.226C174.117 124.635 175.18 124.078 176.198 123.459C176.831 123.069 177.333 122.327 177.92 121.908C178.538 121.467 179.4 121.083 180.081 120.685C180.706 120.261 180.959 120.151 181.676 120L181.683 119.946C180.045 118.758 180.119 117.026 180.306 115.281C180.358 114.788 180.256 114.728 179.946 114.394C178.786 114.34 177.625 114.295 176.464 114.26C173.478 114.431 170.519 113.909 167.55 114.393C166.437 114.574 166.026 115.758 164.749 115.324C163.843 115.017 162.045 113.344 161.324 113.902L161.09 114.511C160.733 115.275 159.571 115.527 158.994 114.674C158.79 114.374 158.719 114.007 158.798 113.656C158.919 113.102 159.217 112.871 159.686 112.589C160.252 112.312 160.394 111.986 160.717 111.471C161.402 111.399 162.087 111.318 162.77 111.228C163.139 110.128 163.434 108.765 164.291 108.023C164.678 107.582 166.078 105.535 166.024 105.023C165.307 105.262 164.386 107.016 164.034 107.674C163.708 108.121 163.374 108.563 163.033 108.998C161.862 109.377 161.412 109.507 160.136 109.203C159.719 109.104 159.038 108.882 158.825 109.408C157.733 112.109 155.912 109.334 155.259 108.206C154.914 108.625 155.006 108.893 154.429 109.079C153.779 109.289 153.024 109.217 152.439 109.535C152.349 109.713 152.276 109.754 152.35 109.908C152.613 110.458 154.508 112.287 154.934 112.562C152.745 116.763 150.405 111.122 149.259 110.62C149.019 112.711 148.587 112.059 148.084 113.433C147.448 115.175 149.936 116.438 146.616 117.473ZM173.631 131.421L173.121 131.46C172.753 131.294 172.565 130.902 172.335 130.552C171.97 130.231 172.098 130.25 171.68 130.18C171.344 130.277 171.308 130.27 171.112 130.529C171.184 131.597 172.872 132.221 172.351 133.396C171.933 133.745 171.272 133.875 170.73 133.863C169.866 133.844 169.461 132.432 169.031 131.825C168.824 131.745 168.11 131.451 167.938 131.406C166.776 133.152 166.717 133.719 167.76 135.555C168.348 136.158 169.322 136.569 170.123 136.823C172.542 136.347 172.697 135.591 173.368 133.394C173.448 133.13 173.705 131.621 173.631 131.421ZM153.569 136.67C153.249 136.38 152.787 135.889 152.401 135.792C152.016 136.2 152.509 136.51 151.839 137.162C151.412 137.488 151.315 137.872 151.66 138.303C152.285 138.288 152.658 137.153 153.569 136.67ZM167.306 138.182C167.734 137.656 167.562 136.769 167.296 136.206C167.243 136.851 167.129 137.568 167.306 138.182ZM144.439 118.36L144.617 118.182C144.558 117.662 144.565 117.066 144.029 116.858C143.443 117.416 143.798 118.037 144.439 118.36ZM147.517 132.844C147.53 132.422 147.586 132.372 147.252 132.012C147.224 132.372 147.139 132.589 147.302 132.851L147.517 132.844ZM171.329 147.554C171.775 146.248 169.914 145.587 168.957 145.228C168.05 146.709 169.943 147.643 171.329 147.554Z" fill="#3C4657"/>
<path d="M154.547 116.655C159.046 115.938 156.908 120.806 155.481 121.6C153.191 121.897 152.334 120.954 152.696 118.649C152.857 117.626 153.673 117.153 154.547 116.655Z" fill="#3C4657"/>
<path d="M155.518 111.192C156.235 111.313 157.128 111.077 157.594 111.965C157.867 112.485 157.696 113.434 157.542 113.989C156.673 114.15 155.872 114.3 155.551 113.266C155.453 112.951 155.483 111.523 155.518 111.192Z" fill="#3C4657"/>
<path d="M167.918 117.043C168.578 117.094 169.237 117.141 169.897 117.184C169.447 118.194 169.364 118.458 168.592 119.268C168.307 119.302 167.799 119.331 167.527 119.238C167.254 119.146 167.031 118.952 166.908 118.7C166.497 117.863 167.247 117.346 167.918 117.043Z" fill="#3C4657"/>
<path d="M150.356 126.288C151.856 126.485 152.442 128.228 150.754 128.733C148.83 128.693 149.08 127.024 150.356 126.288Z" fill="#3C4657"/>
<path d="M151.839 137.162C152.509 136.51 152.016 136.2 152.401 135.792C152.787 135.889 153.249 136.38 153.569 136.67C152.658 137.153 152.285 138.288 151.66 138.303C151.315 137.872 151.412 137.488 151.839 137.162Z" fill="#3C4657"/>
<path d="M164.034 107.674C164.386 107.016 165.307 105.262 166.024 105.023C166.078 105.535 164.678 107.582 164.291 108.023L164.034 107.674Z" fill="#3C4657"/>
<path d="M167.306 138.182C167.734 137.656 167.562 136.769 167.296 136.206C167.243 136.851 167.129 137.568 167.306 138.182Z" fill="#3C4657"/>
<path d="M180.081 120.685C180.706 120.261 180.959 120.151 181.676 120C181.843 120.518 181.66 121.854 181.608 122.466C181.215 122.748 180.817 123.052 180.395 123.288C179.317 123.983 178.074 124.853 177.08 125.644C176.213 126.333 173.944 127.407 173.432 128.224C173.479 129.199 177.445 131.456 174.613 135.696C174.205 136.333 173.731 137.436 173.25 137.987C172.648 138.676 171.288 139.401 170.302 139.305C167.927 139.074 167.251 138.226 167.186 141.441C167.181 141.682 167.181 141.925 167.187 142.167C167.114 142.055 167.022 141.917 166.914 141.751C166.923 140.819 167.136 139.085 166.976 138.223C166.721 137.92 166.874 138.016 166.524 137.893C166.358 138.028 166.339 138.058 166.144 138.142L166.074 137.986C166.283 137.745 166.218 137.82 166.592 137.718C167.083 137.843 166.901 137.758 167.306 138.182C167.734 137.656 167.562 136.769 167.296 136.206L167.38 136.162C167.394 135.773 167.479 135.772 167.76 135.555C168.348 136.158 169.322 136.569 170.123 136.823C172.542 136.347 172.697 135.591 173.368 133.394C173.448 133.13 173.705 131.621 173.631 131.421L173.121 131.46C172.753 131.294 172.565 130.902 172.335 130.552C171.97 130.231 172.098 130.25 171.68 130.18C171.344 130.277 171.308 130.27 171.112 130.529C171.184 131.597 172.872 132.221 172.351 133.396C171.933 133.745 171.272 133.875 170.73 133.863C169.866 133.844 169.461 132.432 169.031 131.825C168.824 131.745 168.11 131.451 167.938 131.406C166.741 131.176 164.494 132.014 165.391 129.669C166.122 129.63 166.61 129.462 167.258 129.151C167.759 128.911 168.234 128.069 168.672 127.823C169.42 127.403 170.196 126.998 170.949 126.578C171.685 126.166 172.367 125.637 173.084 125.226C174.117 124.635 175.18 124.078 176.198 123.459C176.831 123.069 177.333 122.327 177.92 121.908C178.538 121.467 179.4 121.083 180.081 120.685Z" fill="#3C4657"/>
<path d="M180.081 120.685C180.706 120.261 180.959 120.151 181.676 120C181.843 120.518 181.66 121.854 181.608 122.466C181.215 122.748 180.817 123.052 180.395 123.288C180.047 122.69 180.71 121.758 180.081 120.685Z" fill="#3C4657"/>
<path d="M172.335 130.552C172.866 130.442 173.464 130.853 173.659 131.335L173.631 131.421L173.121 131.46C172.753 131.294 172.565 130.902 172.335 130.552Z" fill="#3C4657"/>
<path d="M179.946 114.394C180.548 113.707 181.386 113.952 182.41 113.751C182.788 113.395 183.473 112.82 184.038 112.924C184.15 113.163 184.113 113.846 184.113 114.147C184.777 113.988 186.249 113.648 186.851 113.449C187.312 115.709 186.658 116.458 185.52 118.378C184.27 120.04 183.184 121.128 181.608 122.466C181.66 121.854 181.843 120.518 181.676 120L181.683 119.946C180.045 118.758 180.119 117.026 180.306 115.281C180.358 114.788 180.256 114.728 179.946 114.394Z" fill="#3C4657"/>
<path d="M181.683 119.946L181.872 119.652C181.638 118.537 181.944 117.757 183.047 117.434C184.325 117.061 185.077 116.966 185.52 118.378C184.27 120.04 183.184 121.128 181.608 122.466C181.66 121.854 181.843 120.518 181.676 120L181.683 119.946Z" fill="#3C4657"/>
<path d="M97.6643 137.287C99.3146 137.18 100.711 137.053 102.37 137.077L102.345 137.142L101.83 137.188C101.418 137.707 101.786 138.216 102.099 138.731C101.456 138.826 101.023 138.645 100.595 138.791L100.776 138.907L100.62 139.051C100.256 139.043 99.8203 138.728 99.4307 139.125C98.8995 139.666 98.9202 141.024 98.8846 141.717C98.0988 141.278 97.9533 141.145 97.4177 140.398C96.7491 140.693 96.4485 140.839 95.8365 141.224C94.8842 141.047 94.2581 140.933 93.4092 140.469C93.2183 140.484 93.26 140.454 93.034 140.344C92.7507 139.778 93.3994 139.122 93.6642 138.308C93.5025 137.941 93.4822 137.913 93.4481 137.523L94.0371 137.338C94.8217 137.415 96.6127 137.259 97.6643 137.287Z" fill="#3C4657"/>
<path d="M94.0371 137.338C94.8217 137.415 96.6127 137.259 97.6643 137.287L97.5926 137.479C97.3539 137.503 97.206 137.514 96.962 137.518C97.2958 137.885 97.9847 137.78 98.491 137.78L98.5529 137.868C97.8077 138.253 95.5684 137.032 94.9932 138.545C94.7147 139.277 94.9417 139.58 95.4449 140.085C95.2183 140.013 95.0197 139.838 94.8212 139.7C94.0831 139.876 93.9151 139.957 93.2367 140.304L93.4092 140.469C93.2183 140.484 93.26 140.454 93.034 140.344C92.7507 139.778 93.3994 139.122 93.6642 138.308C93.5025 137.941 93.4822 137.913 93.4481 137.523L94.0371 137.338Z" fill="#3C4657"/>
<path d="M93.2367 140.304C93.2197 139.652 93.8616 138.773 94.6155 138.903C94.8773 139.256 94.792 139.187 94.8212 139.7C94.0831 139.876 93.9151 139.957 93.2367 140.304Z" fill="#3C4657"/>
<path d="M97.6643 137.287C99.3146 137.18 100.711 137.053 102.37 137.077L102.345 137.142L101.83 137.188C101.418 137.707 101.786 138.216 102.099 138.731C101.456 138.826 101.023 138.645 100.595 138.791C100.375 138.785 98.1888 138.809 98.2352 138.819C98.2351 138.367 98.901 138.163 98.8521 137.609C98.4859 137.407 98.037 137.472 97.5926 137.479L97.6643 137.287Z" fill="#3C4657"/>
<path d="M184.15 110.929C185.563 111.369 186.518 111.952 186.851 113.449C186.249 113.648 184.777 113.988 184.113 114.147C184.113 113.846 184.15 113.163 184.038 112.924C183.473 112.82 182.788 113.395 182.41 113.751C181.386 113.952 180.548 113.707 179.946 114.394C178.786 114.34 177.625 114.295 176.464 114.26C176.148 114.047 175.501 114.366 175.132 114.055C175.046 113.699 175.011 113.801 175.157 113.552C175.994 113.074 178.411 113.805 178.985 113.523C179.823 113.11 183.278 112.364 183.581 111.907C183.483 111.592 183.45 111.538 183.466 111.218C183.743 110.932 183.665 111.021 184.15 110.929Z" fill="#3C4657"/>
<path d="M79.4223 144.813C79.988 145.171 79.9663 145.104 80.6457 144.9C81.0227 145.047 81.029 145.247 81.1573 145.624L81.255 145.954C81.0085 147.425 81.5728 147.762 82.2892 148.978C82.7055 149.684 82.7505 150.35 83.7813 150.4C85.2922 150.474 86.8868 150.315 88.4 150.279C88.9988 150.265 89.9094 150.156 90.4163 150.4L90.4034 150.537C88.1005 150.432 85.9353 150.722 83.6156 150.558C81.3362 150.396 81.2337 149.39 79.9005 147.917C79.6584 147.65 79.2235 147.685 78.8519 147.676C78.3582 147.488 78.4279 147.806 77.9508 147.434C77.962 146.932 78.0612 145.932 77.83 145.549C78.2065 145.384 78.4258 145.387 78.8329 145.344L79.4516 145.288L79.4223 144.813Z" fill="#3C4657"/>
<path d="M77.83 145.549C78.2065 145.384 78.4258 145.387 78.8329 145.344C79.8603 146.501 79.8235 147.587 77.9508 147.434C77.962 146.932 78.0612 145.932 77.83 145.549Z" fill="#3C4657"/>
<path d="M79.4223 144.813C79.988 145.171 79.9663 145.104 80.6457 144.9C81.0227 145.047 81.029 145.247 81.1573 145.624C81.0311 145.939 81.1337 145.821 80.8499 146C80.1675 146.052 79.5278 146.037 79.4516 145.288L79.4223 144.813Z" fill="#3C4657"/>
<path d="M100.739 148.073C100.655 146.596 101.926 146.118 102.506 144.919C102.825 144.259 102.521 142.446 103.255 142.113C103.616 142.237 104.656 142.875 105.084 143.125C103.881 144.125 103.222 144.652 102.289 145.939C101.99 146.351 101.021 147.789 100.739 148.073Z" fill="#3C4657"/>
<path d="M155.857 134.093C157.18 133.985 157.94 135.11 157.126 136.069C156.685 135.965 156.544 137.036 156.161 137.473C155.879 137.538 156.021 137.549 155.73 137.381C155.229 136.648 155.314 135.548 155.265 134.649C155.432 134.422 155.637 134.275 155.857 134.093Z" fill="#3C4657"/>
<path d="M159.686 112.589C159.806 112.874 159.812 112.948 160.078 113.126C160.146 112.959 160.228 112.807 160.323 112.653L160.548 112.652L160.652 112.795L160.401 113.179C161.073 113.403 161.08 113.84 161.09 114.511C160.733 115.275 159.571 115.527 158.994 114.674C158.79 114.374 158.719 114.007 158.798 113.656C158.919 113.102 159.217 112.871 159.686 112.589Z" fill="#3C4657"/>
<path d="M151.131 133.98C151.931 134.45 154.038 135.619 154.852 135.907C154.743 136.406 154.069 136.493 153.569 136.67C153.249 136.38 152.787 135.889 152.401 135.792C152.016 136.2 152.509 136.51 151.839 137.162C151.831 136.537 152.289 135.999 151.705 135.511C151.246 135.127 151.114 134.55 151.131 133.98Z" fill="#3C4657"/>
<path d="M146.301 130.104C147.099 130.94 147.69 131.501 148.647 132.208C148.242 132.472 147.869 132.836 147.508 133.161C146.266 133.302 146.011 130.695 146.301 130.104ZM147.517 132.844C147.53 132.422 147.586 132.372 147.252 132.012C147.224 132.372 147.139 132.589 147.302 132.851L147.517 132.844Z" fill="#3C4657"/>
<path d="M147.252 132.012C147.586 132.372 147.53 132.422 147.517 132.844L147.302 132.851C147.139 132.589 147.224 132.372 147.252 132.012Z" fill="#3C4657"/>
<path d="M96.9697 151.283C96.425 150.545 94.7694 149.973 95.2822 149.256C96.3241 148.799 97.4935 150.131 97.9151 150.946C97.6654 151.034 97.1928 151.184 96.9697 151.283Z" fill="#3C4657"/>
<path d="M102.345 137.142C102.876 137.203 102.792 137.086 103.083 137.46C103.363 137.818 103.652 137.781 103.855 138.27C103.714 138.962 103.15 138.917 102.493 139.019L102.099 138.731C101.786 138.216 101.418 137.707 101.83 137.188L102.345 137.142Z" fill="#3C4657"/>
<path d="M87.3992 137.087C87.9338 137.15 88.5786 137.243 89.106 137.281C88.7137 137.649 88.215 137.422 87.7081 137.344L87.5796 137.451C87.5381 138.016 87.6404 138.892 87.6895 139.482L87.811 139.563C88.1315 139.343 88.2114 139.139 88.4043 138.811C88.368 138.427 88.2684 138.016 88.4694 137.68L88.6507 137.66C88.6537 139.062 88.6547 139.222 87.5275 139.967C87.3537 140.499 87.2797 141.08 86.7254 141.312C86.3604 141.265 86.3168 141.279 86.045 141.063C85.9541 140.396 87.0416 140.288 87.3787 139.675C87.7416 139.014 87.1095 137.586 87.3992 137.087Z" fill="#3C4657"/>
<path d="M102.37 137.077C103.482 137.01 104.471 136.767 105.563 136.544L105.752 136.669C105.224 137.019 104.02 136.909 103.291 137.3C103.861 138.708 105.349 138.097 105.873 138.368C105.363 138.388 104.49 138.354 104.112 138.607C103.76 139.12 103.795 139.395 103.39 139.66C102.998 139.63 102.719 139.307 102.493 139.019C103.15 138.917 103.714 138.962 103.855 138.27C103.652 137.781 103.363 137.818 103.083 137.46C102.792 137.086 102.876 137.203 102.345 137.142L102.37 137.077Z" fill="#3C4657"/>
<path d="M105.495 142.681C104.959 141.65 104.778 141.728 103.962 141.04L104.022 140.855C104.404 140.684 104.928 140.552 105.304 140.79C105.597 141.254 105.642 141.489 106.237 141.492L106.352 141.758C105.994 142.103 105.8 142.288 105.495 142.681Z" fill="#3C4657"/>
<path d="M141.846 114.207C141.518 113.995 141.209 113.757 141.061 113.402C141.321 112.35 143.057 113.378 142.211 111.418C142.092 111.142 141.955 110.49 142.111 110.207C142.305 110.125 142.382 110.093 142.585 110.038C142.861 110.112 143.084 110.44 143.312 110.683C143.869 111.158 143.941 111.429 144.351 111.972C144.293 112.759 144.242 113.288 144.31 114.082C144.423 114.558 144.907 115.051 144.91 115.24L144.715 115.354C144.695 115.349 143.999 115.154 143.999 115.154C143.559 115.188 142.791 115.926 142.318 115.485C142.203 115.376 142.198 115.046 142.186 114.867C142.147 114.749 141.918 114.341 141.846 114.207Z" fill="#3C4657"/>
<path d="M142.805 112.598C142.654 112.083 142.503 111.685 142.618 111.15L142.849 111.15L142.821 111.095C143.392 111.672 144.295 114.258 143.908 114.868C143.538 115.023 143.18 114.834 142.631 114.943C142.493 114.453 142.738 113.205 142.805 112.598Z" fill="#3C4657"/>
<path d="M142.805 112.598C142.738 113.205 142.493 114.453 142.631 114.943L142.186 114.867C142.147 114.749 141.918 114.341 141.846 114.207L141.851 114.051C141.63 113.783 141.502 113.683 141.452 113.36C141.732 112.653 142.26 113.025 142.805 112.598Z" fill="#3C4657"/>
<path d="M143.312 110.683C143.869 111.158 143.941 111.429 144.351 111.972C144.293 112.759 144.242 113.288 144.31 114.082C143.996 113.065 143.519 111.684 143.312 110.683Z" fill="#3C4657"/>
<path d="M97.5912 147.154C97.6221 146.451 97.846 145.814 97.8518 145.38L97.7184 145.336C97.1047 145.535 96.94 145.643 96.4199 145.412C96.1877 145.105 96.1972 145.077 96.1476 144.687C96.5289 143.9 97.7087 144.526 98.4127 144.588C98.7287 144.616 99.2091 144.705 99.5151 144.793C99.6709 145.445 99.227 145.567 98.9668 146.172C98.6096 146.972 98.4804 147.299 97.8971 147.971C97.3604 147.917 97.374 147.861 97.2608 147.415L97.5912 147.154Z" fill="#3C4657"/>
<path d="M97.5912 147.154C98.0882 146.629 98.2654 146.156 98.7154 145.733L98.8883 145.783L98.9668 146.172C98.6096 146.972 98.4804 147.299 97.8971 147.971C97.3604 147.917 97.374 147.861 97.2608 147.415L97.5912 147.154Z" fill="#3C4657"/>
<path d="M143.648 104.708C143.735 104.805 143.931 104.971 143.917 105.085C143.774 106.314 145.202 105.608 145.173 106.542C145.145 107.521 143.602 108.05 142.803 107.497C142.393 106.884 142.664 105.911 142.975 105.293L142.994 105.07C143.24 104.748 143.16 104.849 143.648 104.708Z" fill="#3C4657"/>
<path d="M142.942 105.993C143.328 105.832 143.436 105.757 143.845 105.747C144.104 106.201 144.122 106.23 144.045 106.644C143.746 107.019 143.219 107.184 142.75 107.39C142.79 106.928 142.811 106.436 142.942 105.993Z" fill="#3C4657"/>
<path d="M142.975 105.293L142.994 105.07C143.24 104.748 143.16 104.849 143.648 104.708C143.827 105.157 143.821 105.278 143.845 105.747C143.436 105.757 143.328 105.832 142.942 105.993L142.975 105.293Z" fill="#3C4657"/>
<path d="M87.5024 141.485C87.8978 141.389 88.2453 141.305 88.6346 141.179C88.7312 141.672 88.5851 142.098 88.3901 142.54L88.2079 142.575C87.2245 143.034 87.6706 143.688 87.0374 144.229C85.9748 144.626 85.3184 143.694 85.4746 142.998C85.6699 143.03 85.8286 143.078 86.0173 143.131C86.3285 143.002 86.845 142.01 87.5024 141.485Z" fill="#3C4657"/>
<path d="M87.5024 141.485C87.8978 141.389 88.2453 141.305 88.6346 141.179C88.7312 141.672 88.5851 142.098 88.3901 142.54L88.2079 142.575C88.2214 142.039 87.9259 141.777 87.5024 141.485Z" fill="#3C4657"/>
<path d="M101.315 141.972C101.62 141.803 101.823 141.88 102.09 142.046C102.202 142.576 101.859 143.027 101.361 143.236C100.795 143.125 100.609 143.106 100.031 143.166C99.5166 143.193 99.0235 143.312 98.6609 142.924C98.7005 142.548 99.082 142.268 99.3814 141.973L101.315 141.972Z" fill="#3C4657"/>
<path d="M97.8971 147.971C97.5041 148.24 96.073 147.971 95.4678 148.196C94.9457 148.053 94.204 147.216 94.0862 146.704L94.2455 146.531C94.4974 146.587 94.8746 147.032 95.2287 147.279C96.1722 147.391 95.9724 146.751 96.6986 146.416C97.0837 146.738 96.6583 146.928 97.2608 147.415C97.374 147.861 97.3604 147.917 97.8971 147.971Z" fill="#3C4657"/>
<path d="M167.532 101.146L167.733 101.234C168.096 101.816 167.055 104.102 166.562 104.504C165.265 103.224 166.578 102.194 167.532 101.146Z" fill="#3C4657"/>
<path d="M89.7758 144.282C90.0342 143.69 89.5502 143.096 90.138 142.743C90.9131 142.941 90.6371 144.311 90.727 145.008C90.6364 145.268 90.3798 145.44 90.0953 145.431C89.8109 145.422 89.5659 145.235 89.4923 144.971C89.4187 144.706 89.5339 144.426 89.7758 144.282Z" fill="#3C4657"/>
<path d="M89.7758 144.282C90.007 144.144 90.3032 144.161 90.5164 144.323C90.7295 144.486 90.8138 144.76 90.727 145.008C90.6364 145.268 90.3798 145.44 90.0953 145.431C89.8109 145.422 89.5659 145.235 89.4923 144.971C89.4187 144.706 89.5339 144.426 89.7758 144.282Z" fill="#3C4657"/>
<path d="M92.4715 146.325C92.8648 146.433 92.9322 146.486 93.1248 146.761C93.2066 147.35 92.9804 147.596 92.6286 148.068C92.4228 148.062 92.2829 148.039 92.0797 148.011L91.9383 147.818C91.8398 147.266 92.1601 146.77 92.4715 146.325Z" fill="#3C4657"/>
<path d="M86.4282 147.198C86.8997 147.357 87.8046 147.525 87.8727 148.015L87.6308 148.189C87.1484 148.308 86.653 148.535 86.2613 148.198C86.1807 147.837 86.3146 147.563 86.4282 147.198Z" fill="#3C4657"/>
<path d="M101.804 143.908C102.042 143.812 101.92 143.828 102.185 143.873L102.184 144.029C101.912 144.52 101.724 144.655 101.305 145.036C100.896 144.691 100.644 144.445 100.981 144.025C101.302 143.93 101.466 143.932 101.804 143.908Z" fill="#3C4657"/>
<path d="M91.032 140.132C91.7104 140.393 91.9655 140.538 91.8096 141.263C91.3715 141.324 91.2489 141.332 90.927 141.136C90.8009 140.815 90.9419 140.487 91.032 140.132Z" fill="#3C4657"/>
<path d="M93.7513 142.663C94.1654 142.756 94.1904 142.763 94.2746 143.126C94.117 143.495 94.043 143.532 93.7079 143.775C93.3867 143.544 93.2036 143.39 93.1181 143.045C93.3369 142.736 93.3058 142.825 93.7513 142.663Z" fill="#3C4657"/>
<path d="M144.029 116.858C144.565 117.066 144.558 117.662 144.617 118.182L144.439 118.36C143.798 118.037 143.443 117.416 144.029 116.858Z" fill="#3C4657"/>
<path d="M86.4902 138.113C86.6698 138.069 86.8598 138.123 86.9863 138.253C87.1127 138.383 87.1556 138.569 87.0984 138.739C87.0411 138.908 86.8926 139.034 86.7107 139.068C86.4408 139.118 86.1786 138.952 86.119 138.693C86.0593 138.435 86.2238 138.178 86.4902 138.113Z" fill="#3C4657"/>
<path fill-rule="evenodd" clip-rule="evenodd" d="M91.1747 190.914C91.2694 190.377 91.3632 189.846 91.3986 189.357C91.581 186.841 91.7184 184.389 91.7424 181.869C91.7411 181.588 91.7403 181.31 91.7395 181.033C91.7245 175.796 91.7118 171.399 88.2362 166.967C87.8694 166.499 87.4843 166.155 86.8942 165.998C86.777 167.468 86.5312 168.966 86.2874 170.451C86.1643 171.201 86.0418 171.948 85.9365 172.687C85.6587 174.635 85.4179 176.581 85.177 178.526C84.9402 180.439 84.7034 182.351 84.4316 184.267C84.2288 185.696 84.1616 187.197 84.0944 188.701C84.0308 190.122 83.9672 191.545 83.7887 192.911C82.8434 198.121 82.9783 202.372 82.833 204.975C82.6432 208.376 82.5774 211.451 82.7367 214.885C82.7782 215.778 82.9621 216.678 83.1451 217.573C83.4204 218.92 83.6938 220.257 83.4775 221.551C83.2554 222.881 81.901 224.421 80.9354 225.337C80.1474 226.083 78.9809 226.386 77.9275 226.66L77.8763 226.674C75.1507 223.989 75.3491 218.759 75.5274 214.06C75.6096 211.896 75.6874 209.844 75.4733 208.206C75.4047 207.386 75.3404 206.852 75.2792 206.344C75.2104 205.772 75.1456 205.234 75.0829 204.359C74.8413 200.977 74.8783 197.601 74.9154 194.219C74.9256 193.29 74.9358 192.36 74.9402 191.43C74.9428 190.881 74.9327 190.322 74.9225 189.76C74.8962 188.305 74.8695 186.824 75.06 185.413C75.3612 185.072 75.3822 184.034 75.4054 182.893C75.4357 181.4 75.4696 179.729 76.1385 179.209C76.4323 179.116 76.5862 179.088 76.8679 179.214C78.089 179.762 77.8665 180.227 77.6261 180.73C77.4831 181.029 77.3337 181.342 77.4778 181.693C77.4819 184.37 77.3732 187.094 77.2639 189.835C77.0316 195.662 76.7963 201.563 77.6344 207.234C77.9704 209.508 77.9354 211.938 77.9004 214.365C77.8498 217.878 77.7993 221.385 78.8742 224.4C78.9518 224.31 79.0381 224.21 79.1305 224.104C79.879 223.243 81.0259 221.923 81.1131 220.987C81.201 220.043 80.9285 218.902 80.6636 217.793C80.4501 216.9 80.2417 216.027 80.2306 215.295C80.1864 212.375 80.3413 209.389 80.4944 206.436C80.5435 205.491 80.5924 204.548 80.6345 203.613C80.7211 201.688 80.9236 199.773 81.1262 197.857C81.2633 196.561 81.4004 195.265 81.5016 193.965C81.5879 192.858 81.655 191.755 81.722 190.654C81.8491 188.566 81.9757 186.485 82.2321 184.396C82.3691 183.279 82.5653 182.169 82.7613 181.06C82.9264 180.126 83.0913 179.193 83.2209 178.257C83.773 174.335 84.1682 170.395 84.4058 166.445C84.5939 166.304 84.5965 166.074 84.5988 165.861C84.5993 165.818 84.5998 165.776 84.6017 165.735C84.6204 165.46 84.719 165.076 84.8178 164.691C84.902 164.363 84.9864 164.035 85.0214 163.772C85.151 162.802 85.5135 161.587 86.5339 161.166C87.9163 161.359 87.2622 164.071 86.9511 165.362C86.9136 165.517 86.8812 165.652 86.8578 165.759C86.9022 165.716 86.9484 165.671 86.9962 165.623C87.4413 165.185 88.028 164.606 88.6874 164.675C90.0511 164.816 90.7756 166.214 91.3683 167.357C91.5036 167.619 91.6322 167.866 91.7599 168.083C93.4245 170.908 93.8674 173.749 93.9396 176.957C93.9515 177.485 93.9701 178.019 93.9889 178.556C94.0275 179.659 94.0665 180.776 94.0483 181.881C94.0307 182.119 94.005 182.422 93.9763 182.76C93.8786 183.913 93.7467 185.469 93.786 186.21C96.5567 187.334 96.5299 187.612 96.2853 190.15C96.2681 190.329 96.2498 190.519 96.2313 190.721L96.2033 190.746C95.962 190.961 95.4975 191.374 95.3665 191.609C95.1032 192.081 94.9685 192.498 94.8524 192.858C94.5839 193.691 94.4148 194.215 92.9867 194.381C92.8094 195.208 92.4956 197.411 92.8537 198.141L93.1756 198.316C93.8733 198.043 94.4152 197.697 95.0166 197.313C95.1094 197.253 95.2037 197.193 95.3001 197.132C96.0388 197.918 96.6413 198.885 95.9969 199.938C95.2047 200.842 93.9084 201.002 92.781 201.029C92.5157 203.327 92.4018 210.59 93.3467 212.52C93.307 211.436 93.7864 209.125 94.6499 208.875C96.3713 209.035 96.4933 212.118 96.5634 213.886C96.5751 214.182 96.5853 214.44 96.6013 214.643C96.6519 214.631 96.7151 214.618 96.7882 214.602C97.5134 214.446 99.2124 214.081 99.2647 213.668C99.638 210.979 99.5484 208.203 99.4594 205.443C99.4032 203.701 99.3472 201.965 99.408 200.262C99.6531 193.392 99.3847 186.704 98.7283 179.867C98.6827 179.393 98.6531 178.843 98.6221 178.269C98.5558 177.038 98.4834 175.696 98.2359 174.752C98.2926 174.651 98.3241 174.62 98.3834 174.559C98.4013 174.541 98.4219 174.52 98.4464 174.494L98.9617 174.503C99.5804 174.463 100.2 174.441 100.821 174.438C100.804 175.211 100.871 175.737 100.943 176.293C100.988 176.639 101.034 176.997 101.062 177.433C101.153 180.275 101.288 183.116 101.468 185.953C101.518 186.758 101.574 187.558 101.642 188.362C101.852 190.876 101.827 193.407 101.803 195.936C101.787 197.491 101.772 199.045 101.812 200.596C101.818 200.855 101.825 201.116 101.832 201.376C101.91 204.376 101.989 207.412 101.814 210.4C101.798 210.664 101.789 210.933 101.781 211.204C101.735 212.608 101.688 214.063 100.7 215.112C99.6416 216.237 98.3003 216.387 96.9279 216.54C96.0346 216.64 94.3483 216.54 93.3923 216.363C91.8627 215.627 91.9402 215.281 90.7154 213.886C90.4105 206.433 90.6623 202.096 90.7157 199.272C90.7572 197.076 90.8217 194.86 90.9351 192.665C90.9637 192.11 91.0698 191.509 91.1747 190.914Z" fill="#3C4657"/>
<path d="M86.8578 165.759C87.3161 165.316 87.9573 164.599 88.6874 164.675C90.3627 164.848 91.0732 166.918 91.7599 168.083C93.4245 170.908 93.8674 173.749 93.9396 176.957C93.9759 178.569 94.0754 180.237 94.0483 181.881C93.0897 181.634 92.7208 181.705 91.7424 181.869C91.7162 176.259 91.8951 171.633 88.2362 166.967C87.8694 166.499 87.4843 166.155 86.8942 165.998L86.8578 165.759Z" fill="#3C4657"/>
<path d="M98.9617 174.503C99.5804 174.463 100.2 174.441 100.821 174.438C100.793 175.692 100.988 176.295 101.062 177.433C100.788 176.991 100.456 176.796 100.129 176.374C99.6739 175.788 99.3252 175.144 98.9617 174.503Z" fill="#3C4657"/>
<path d="M95.3001 197.132C96.0388 197.918 96.6413 198.885 95.9969 199.938C96.0291 199.18 96.1912 198.246 95.3187 197.893C94.3227 197.86 93.6377 198.777 92.6594 198.379L93.1756 198.316C93.9811 198 94.5787 197.588 95.3001 197.132Z" fill="#3C4657"/>
<path d="M63.9993 108.876C64.6406 108.189 65.2397 107.144 65.8896 106.471C68.0011 104.284 70.2642 101.855 72.9308 100.304C73.1043 100.203 74.1435 99.8791 74.4277 99.776C74.3896 100.454 74.2274 101.32 74.5523 101.862C73.8009 102.6 72.7059 103.268 71.8944 103.962C71.5469 104.26 71.1566 104.649 70.8189 104.92C64.3845 110.097 62.2315 119.945 67.0411 126.801C68.4018 128.741 70.0369 131.07 72.1245 132.403C75.0462 133.952 78.5433 135.639 81.6163 136.864C81.3315 137.066 81.188 137.133 80.858 137.26C80.6704 137.788 81.3898 138.761 81.4573 139.211C81.5558 139.868 80.6057 140.6 81.5774 141.232C82.4465 141.502 83.2095 141.428 83.4402 142.438C83.3575 142.59 83.3038 142.686 83.2062 142.829C83.1366 143.309 83.1451 143.593 82.834 143.968L82.8302 143.917C82.6446 144.358 82.3766 144.891 82.5746 145.375C82.6941 145.668 83.2314 146.031 83.1383 146.273C82.9708 146.708 83.0933 146.697 82.7642 146.946C82.383 146.844 82.0803 146.352 81.8755 146.031C81.6231 145.92 81.5289 145.944 81.255 145.954L81.1573 145.624C81.029 145.247 81.0227 145.047 80.6457 144.9C79.9663 145.104 79.988 145.171 79.4223 144.813C79.5092 144.536 79.6438 142.934 79.7527 142.405C80.0159 141.127 80.3651 140.15 80.7448 138.914C79.0958 138.365 75.3802 136.774 73.979 135.893C72.6881 136.437 71.7721 136.65 71.0738 137.84L69.4887 137.28C68.6696 136.962 67.6066 137.034 67.0099 136.432C66.4108 135.826 67.6907 134.658 68.1393 134.304L68.2232 134.295C68.7375 133.976 69.1837 133.87 69.6561 133.449C69.674 133.797 69.6065 133.66 69.7997 133.896C70.2646 133.973 71.2834 134.054 71.5122 133.581C70.9412 132.783 69.6144 132.974 68.9195 132.561L68.7175 132.61C67.7286 132.015 66.3821 130.033 65.6159 129.068C63.9712 126.804 62.3217 123.086 61.9787 120.313C61.8574 119.331 61.9769 118.373 62.0984 117.396L60.7848 117.477C59.6287 116.502 59.6802 116.394 59.5087 114.935C59.0034 116.242 58.9068 116.705 58.8096 118.098C59.2927 119.185 59.8839 119.567 60.6465 120.386C61.4625 121.262 61.7556 124.9 59.764 124.404C58.4807 124.085 58.2981 123.962 57.5721 122.924C57.029 122.81 56.2935 122.747 55.7245 122.684C56.0481 123.105 56.301 123.603 56.6217 124.065C57.3162 125.067 58.1847 126.129 58.7938 127.169C59.4378 127.99 60.111 128.856 60.8025 129.625C62.374 131.374 62.8028 129.869 64.2515 130.28C64.6266 130.687 65.1486 130.722 65.5426 131.163C65.4684 131.669 64.9343 131.805 64.4829 131.999C63.8445 132.253 63.7781 132.396 63.1159 132.067C62.8905 132.227 62.9666 132.216 62.8644 132.425C62.0464 134.092 59.5554 133.193 60.4299 135.352C60.2539 135.665 60.2662 135.649 60.2914 136.01C59.8519 136.686 59.6024 136.596 59.2877 136.965C58.9675 136.651 58.7864 136.379 58.5261 136.022C58.3511 135.732 58.1551 135.325 57.9945 135.017C58.3732 133.089 58.8064 132.803 60.6149 132.032C59.8084 130.625 59.2618 130.644 58.226 129.499C57.8723 129.228 54.4592 124.82 54.2843 124.35C53.2561 121.587 51.1536 117.042 56.4876 119.21C57.3025 116.974 57.1733 114.661 58.3429 112.28C58.0295 112.099 57.6812 111.932 57.6385 111.571C57.8462 111.461 58.1508 111.331 58.3386 111.215C60.3665 109.971 59.8491 104.671 61.9724 103.651C63.3635 103.711 62.897 107.23 63.0619 108.109C63.2904 108.494 63.6125 108.642 63.9993 108.876ZM60.0369 112.67C60.5986 113.135 61.1202 113.454 61.7335 113.844L62.3957 114.402C63.2163 111.995 62.4272 112.388 61.7168 110.393C61.9905 109.953 62.3915 109.466 62.2291 108.941C61.6422 109.699 60.8834 111.435 60.0369 112.67Z" fill="#3C4657"/>
<path d="M62.0969 130.772C60.768 130.182 59.4415 128.58 58.7287 127.381L58.7938 127.169C59.4378 127.99 60.111 128.856 60.8025 129.625C62.374 131.374 62.8028 129.869 64.2515 130.28C64.6266 130.687 65.1486 130.722 65.5426 131.163C65.4684 131.669 64.9343 131.805 64.4829 131.999C63.8445 132.253 63.7781 132.396 63.1159 132.067C62.8905 132.227 62.9666 132.216 62.8644 132.425C62.0464 134.092 59.5554 133.193 60.4299 135.352C60.2539 135.665 60.2662 135.649 60.2914 136.01C59.8519 136.686 59.6024 136.596 59.2877 136.965C58.9675 136.651 58.7864 136.379 58.5261 136.022C58.3511 135.732 58.1551 135.325 57.9945 135.017C58.3732 133.089 58.8064 132.803 60.6149 132.032C59.8084 130.625 59.2618 130.644 58.226 129.499L58.3253 129.34C59.2543 130.361 60.5715 130.66 60.7867 132.188C61.259 131.589 61.5391 131.308 62.0969 130.772Z" fill="#3C4657"/>
<path d="M58.5261 136.022C58.8506 135.569 58.8653 135.383 59.3479 135.191C59.851 135.217 60.1384 135.557 60.2914 136.01C59.8519 136.686 59.6024 136.596 59.2877 136.965C58.9675 136.651 58.7864 136.379 58.5261 136.022Z" fill="#3C4657"/>
<path d="M68.1393 134.304L68.2232 134.295C68.663 134.329 69.1239 134.375 69.5632 134.374C69.5849 135.188 69.8508 136.6 69.4887 137.28C68.6696 136.962 67.6066 137.034 67.0099 136.432C66.4108 135.826 67.6907 134.658 68.1393 134.304Z" fill="#3C4657"/>
<path d="M83.2062 142.829C82.3491 143.527 82.8145 143.407 82.3755 144.076C82.0413 144.249 82.168 144.242 81.8402 144.198C81.2269 143.458 82.164 142.524 81.3435 141.635L81.2474 141.532L81.2944 141.365L81.5774 141.232C82.4465 141.502 83.2095 141.428 83.4402 142.438C83.3575 142.59 83.3038 142.686 83.2062 142.829Z" fill="#3C4657"/>
<path d="M140.041 165.125C140.469 165.054 140.988 164.967 141.417 164.976C142.401 164.997 145.646 165.322 146.261 164.571C146.621 163.344 146.1 161.283 148.196 162.028C149.975 163.927 149.36 173.346 150.267 176.075C150.358 176.952 150.183 178.015 150.287 178.874C150.679 182.102 150.968 185.332 151.182 188.574C151.23 189.294 151.244 190.037 151.302 190.751C151.551 193.762 151.327 197.061 152.061 200.004C151.704 200.578 151.369 200.758 150.779 201.123C150.364 201.274 150.324 201.311 149.898 201.267C149.611 201.08 149.405 200.911 149.372 200.539C148.863 194.842 149.208 189.06 148.413 183.371C147.695 176.782 147.695 175.309 147.695 175.309C147.563 173.771 147.359 168.074 146.791 167.067C146.228 166.736 145.156 167.092 144.384 167.155L144.274 167.163C143.408 167.096 142.337 167.12 141.746 166.459C141.643 165.802 142.172 165.591 141.897 165.176C141.181 165.192 140.751 165.188 140.041 165.125Z" fill="#3C4657"/>
<path d="M153.637 161.839C153.649 161.611 153.657 161.116 153.739 160.925C153.889 160.574 154.89 160.349 155.218 160.491C155.394 160.771 155.33 161.028 155.307 161.37C155.414 160.917 155.468 160.781 155.729 160.391C156.325 161.047 156.13 161.544 156.415 162.25L156.548 162.48C156.486 163.923 156.218 165.367 156.187 166.787C156.035 173.938 155.966 181.101 155.861 188.253C155.822 190.836 156.288 193.619 156.456 196.201C156.594 197.776 156.702 199.306 156.977 200.867C156.565 201.512 157.436 203.604 156.732 204.37L156.582 204.372C156.61 203.644 156.415 203.696 155.724 203.484C155.139 202.847 155.405 201.944 155.089 201.493L154.963 201.539C154.588 200.81 154.216 198.411 154.118 197.569C153.964 195.037 153.357 191.526 153.456 189.093C153.773 181.309 153.603 173.569 153.681 165.782C153.687 165.068 153.854 164.335 153.591 163.661C153.343 163.023 153.69 162.621 153.637 161.839Z" fill="#3C4657"/>
<path d="M156.415 162.25C156.908 161.619 157.192 161.293 158.068 161.193C161.715 160.777 162.6 162.87 163.203 165.903C164.202 170.921 164.353 176.016 164.862 181.092C165.094 183.369 165.534 185.615 165.744 187.903C165.915 189.976 166.075 192.048 166.222 194.122C166.33 195.852 166.426 200.34 167.101 201.906L166.805 202.09L166.719 202.026C166.371 201.59 165.463 201.319 165.375 200.943C164.781 198.439 164.549 195.173 164.304 192.679C163.905 188.629 163.151 184.945 162.636 180.907C161.981 175.79 162.077 169.971 160.326 164.973C159.876 163.686 158.41 164.014 157.002 163.543C156.841 163.052 156.794 162.934 156.548 162.48L156.415 162.25Z" fill="#3C4657"/>
<path d="M60.2914 136.01C60.2662 135.649 60.2539 135.665 60.4299 135.352C62.2681 137.006 64.5537 137.302 65.4265 139.547C65.3006 139.944 65.2374 140.184 65.0246 140.557C64.5888 141.321 63.0995 141.981 63.6056 142.846C64.4556 144.299 66.3076 145.509 67.6362 146.612C67.9458 146.869 69.1372 147.247 69.5041 147.364C72.7149 148.389 74.929 146.506 77.83 145.549C78.0612 145.932 77.962 146.932 77.9508 147.434C78.4279 147.806 78.3582 147.488 78.8519 147.676L78.6828 148.151L78.6374 148.167L78.5213 147.903C77.4934 147.554 77.3313 148.296 75.9579 148.073L76.0288 148.174C76.2929 148.218 76.48 148.195 76.6113 148.346C76.1256 148.733 75.5046 148.846 75.2646 149.184L75.3002 149.313C74.4204 149.891 72.5358 150.246 71.4648 150.26C65.664 150.333 63.4179 145.917 60.0933 142.819C60.0719 142.401 60.0118 141.572 60.1177 141.211C60.4083 140.223 62.1618 140.667 62.7506 139.76C62.6979 138.911 60.3144 137.906 59.2877 136.965C59.6024 136.596 59.8519 136.686 60.2914 136.01Z" fill="#3C4657"/>
<path d="M74.0335 148.247C74.3619 148.258 74.3522 148.251 74.6542 148.367C74.8128 148.714 74.7356 148.814 74.6948 149.226C74.4571 149.261 74.4498 149.241 74.212 149.183C73.9775 148.826 74.0503 148.712 74.0335 148.247Z" fill="#3C4657"/>
<path d="M76.7331 154.41C76.8 154.105 76.8344 153.531 76.8647 153.202C77.4231 153.186 78.2009 153.073 78.6249 153.337C78.8801 153.714 78.8112 153.805 78.8512 154.289C78.9347 156.152 78.8234 158.11 78.7996 159.986C78.7861 161.045 78.8869 162.336 78.8022 163.35C78.586 165.941 78.569 168.502 78.4632 171.089C78.351 173.831 77.7096 176.625 77.892 179.38C77.9538 180.519 77.9813 180.644 77.4778 181.693C77.0915 180.752 78.8152 180.088 76.8679 179.214C76.5862 179.088 76.4323 179.116 76.1385 179.209C74.9582 180.127 75.7551 184.626 75.06 185.413C74.9544 183.133 75.46 180.139 75.642 177.835C75.8629 175.039 76.1169 172.237 76.3508 169.444C76.7724 164.411 76.4964 159.439 76.7331 154.41Z" fill="#3C4657"/>
<path d="M126.94 167.042C129.264 166.389 133.247 165.948 135.685 165.693C137.124 165.542 138.598 165.242 140.043 165.185C140.754 165.248 141.183 165.252 141.899 165.237C142.174 165.652 141.645 165.862 141.748 166.519C142.339 167.18 143.41 167.156 144.276 167.223C143.426 167.33 141.804 167.394 140.931 167.382C140.528 167.193 140.446 167.245 139.977 167.327C139.488 167.118 139.417 166.991 139.168 166.531C138.8 166.484 138.803 166.554 138.401 166.708C138.283 167.168 138.75 167.443 138.946 167.874C136.437 168.297 134.611 168.224 132.124 168.604L131.247 167.83C130.505 167.803 129.477 167.661 128.929 168.119C129.067 168.643 129.419 168.681 129.906 168.866L130.602 168.92C129.08 169.227 127.069 169.483 125.507 169.673C123.988 169.858 122.402 169.84 120.866 170.158C120.733 169.833 120.497 169.738 120.185 169.443L120.352 169.121C120.302 168.552 120.033 168.279 119.598 167.914C121.143 167.345 125.193 167.566 126.94 167.042Z" fill="#3C4657"/>
<path d="M119.598 167.914C121.143 167.345 125.193 167.566 126.94 167.042C126.849 167.522 126.832 167.59 127.018 168.039C127.514 168.48 127.929 168.2 128.482 167.948L128.53 168.091C128.032 168.694 127.476 168.641 127.189 169.156L127.289 169.202C127.666 169.026 129.425 168.858 129.906 168.866L130.602 168.92C129.08 169.227 127.069 169.483 125.507 169.673C123.988 169.858 122.402 169.84 120.866 170.158C120.733 169.833 120.497 169.738 120.185 169.443L120.352 169.121C120.302 168.552 120.033 168.279 119.598 167.914Z" fill="#3C4657"/>
<path d="M98.1861 172.987C98.2669 171.927 98.1795 170.925 98.38 169.863C98.6072 168.66 99.679 168.981 100.225 168.469C101.389 167.376 101.048 166.99 102.811 167.524C102.791 167.676 102.667 168.352 102.706 168.448C103.743 170.99 109.474 169.822 111.072 169.582C111.245 169.589 113.891 170.753 114.025 170.876L113.992 171.025C113.268 171.19 112.763 171.028 112.151 171.147C111.569 171.206 111.083 170.721 110.927 170.759C110.178 170.945 109.156 171.075 108.549 171.54C108.384 171.855 108.412 171.689 108.498 172.059L108.711 172.287C107.893 172.626 106.252 172.666 105.363 172.603C103.658 172.481 102.153 171.35 100.789 170.435C100.698 171.907 100.855 173.072 100.821 174.438C100.2 174.441 99.5804 174.463 98.9617 174.503L98.4464 174.494C98.3409 174.606 98.3098 174.621 98.2359 174.752C97.7393 174.751 97.4684 174.674 97.1636 174.288C96.9354 173.491 97.5824 173.249 98.1861 172.987Z" fill="#3C4657"/>
<path d="M117.247 139.751C117.627 139.578 117.51 139.634 118.018 139.733C118.848 140.401 121.607 139.242 122.3 140.372C122.451 142.273 120.213 142.784 118.929 143.504C117.966 144.043 116.864 145.377 115.459 144.304C113.575 142.491 115.804 141.03 117.264 139.972L117.247 139.751Z" fill="#3C4657"/>
<path d="M156.977 200.867C157.158 201.833 157.278 202.637 157.322 203.624C156.723 204.741 156.651 204.973 156.433 206.201C155.218 207.396 149.788 208.017 149.389 205.413C149.202 204.198 149.234 201.926 149.989 200.867C150.638 200.704 151.031 200.63 151.696 200.538C151.517 201.79 151.396 202.954 151.438 204.223C152.01 204.149 155.721 204.595 156.186 204.735L156.347 204.629C156.255 204.038 155.255 204.092 155.212 203.257C155.188 202.772 155.052 202.029 154.963 201.539L155.089 201.493C155.405 201.944 155.139 202.847 155.724 203.484C156.415 203.696 156.61 203.644 156.582 204.372L156.732 204.37C157.436 203.604 156.565 201.512 156.977 200.867Z" fill="#3C4657"/>
<path d="M153.637 161.839C153.611 161.558 153.629 161.301 153.455 161.09C152.882 161.568 152.852 165.141 151.13 164.831C150.076 164.641 150.176 163.638 150.455 162.87C150.985 161.478 151.292 159.344 152.723 158.511C153.866 157.845 153.655 160.253 153.728 160.292C154.34 160.628 154.754 160.031 155.729 160.391C155.468 160.781 155.414 160.917 155.307 161.37C155.33 161.028 155.394 160.771 155.218 160.491C154.89 160.349 153.889 160.574 153.739 160.925C153.657 161.116 153.649 161.611 153.637 161.839Z" fill="#3C4657"/>
<path d="M118.652 168.155L119.598 167.914C120.033 168.279 120.302 168.552 120.352 169.121L120.185 169.443C120.497 169.738 120.733 169.833 120.866 170.158C119.955 170.344 117.717 170.843 116.906 170.895C116.464 170.437 115.866 169.729 115.843 169.082C115.838 168.938 115.848 169.014 115.718 168.854C116.719 168.635 117.676 168.47 118.652 168.155Z" fill="#3C4657"/>
<path d="M118.652 168.155L119.598 167.914C120.033 168.279 120.302 168.552 120.352 169.121L120.185 169.443C119.531 169.112 119.276 168.419 118.652 168.155Z" fill="#3C4657"/>
<path d="M78.6374 148.167L78.6828 148.151C78.9388 150.44 78.9915 151.988 78.8512 154.289C78.8112 153.805 78.8801 153.714 78.6249 153.337C78.2009 153.073 77.4231 153.186 76.8647 153.202C76.8344 153.531 76.8 154.105 76.7331 154.41C76.6748 153.289 76.7323 151.005 76.8027 149.889C77.5464 148.935 77.3039 149.011 78.4653 148.592L78.5749 148.553L78.6374 148.167Z" fill="#3C4657"/>
<path d="M74.4277 99.776C76.751 98.7024 77.6387 98.0882 79.8293 96.7657C80.1942 97.0755 80.2524 97.0869 80.3345 97.6304C79.9217 97.8202 74.8761 101.526 74.5523 101.862C74.2274 101.32 74.3896 100.454 74.4277 99.776Z" fill="#3C4657"/>
<path d="M116.026 137.054L116.631 137.118C118.035 137.532 118.623 138.326 118.018 139.733C117.51 139.634 117.627 139.578 117.247 139.751C116.447 139.705 113.796 139.292 114.23 137.854C114.391 137.321 115.489 137.168 116.026 137.054Z" fill="#3C4657"/>
<path d="M111.072 169.582C112.639 169.45 114.114 169.005 115.718 168.854C115.848 169.014 115.838 168.938 115.843 169.082C115.866 169.729 116.464 170.437 116.906 170.895C115.784 171.137 114.666 171.395 113.552 171.669L113.721 171.373C113.342 171.129 112.849 171.466 112.151 171.147C112.763 171.028 113.268 171.19 113.992 171.025L114.025 170.876C113.891 170.753 111.245 169.589 111.072 169.582Z" fill="#3C4657"/>
<path d="M106.237 141.492C106.318 140.802 106.086 140.169 106.261 139.301C106.369 138.181 107.232 138.67 107.938 138.126C108.484 137.707 108.754 137.514 109.457 137.753C108.967 137.883 108.753 137.848 108.501 138.314C107.705 139.786 107.717 140.633 106.352 141.758L106.237 141.492Z" fill="#3C4657"/>
<path d="M79.8293 96.7657C80.839 96.2014 83.117 94.8224 84.2093 95.0427L84.3321 95.1913C84.0922 96.1189 81.2635 97.2512 80.3345 97.6304C80.2524 97.0869 80.1942 97.0755 79.8293 96.7657Z" fill="#3C4657"/>
<path d="M108.711 172.287L108.498 172.059C108.412 171.689 108.384 171.855 108.549 171.54C109.156 171.075 110.178 170.945 110.927 170.759C111.083 170.721 111.569 171.206 112.151 171.147C112.849 171.466 113.342 171.129 113.721 171.373L113.552 171.669C111.714 172.011 110.565 171.726 108.711 172.287Z" fill="#3C4657"/>
<path d="M129.906 168.866C129.419 168.681 129.067 168.643 128.929 168.119C129.477 167.661 130.505 167.803 131.247 167.83L132.124 168.604L130.602 168.92L129.906 168.866Z" fill="#3C4657"/>
<path d="M75.3002 149.313L75.2646 149.184C75.5046 148.846 76.1256 148.733 76.6113 148.346C76.48 148.195 76.2929 148.218 76.0288 148.174L75.9579 148.073C77.3313 148.296 77.4934 147.554 78.5213 147.903L78.6374 148.167L78.5749 148.553L78.4653 148.592C77.3039 149.011 77.5464 148.935 76.8027 149.889L76.8349 148.621C76.4084 148.853 75.7625 149.112 75.3002 149.313Z" fill="#3C4657"/>
<path d="M68.7175 132.61L68.9195 132.561C69.6144 132.974 70.9412 132.783 71.5122 133.581C71.2834 134.054 70.2646 133.973 69.7997 133.896C69.6065 133.66 69.674 133.797 69.6561 133.449C69.4051 133.195 68.9984 132.858 68.7175 132.61Z" fill="#3C4657"/>
<path d="M138.946 167.874C138.75 167.443 138.283 167.168 138.401 166.708C138.803 166.554 138.8 166.484 139.168 166.531C139.417 166.991 139.488 167.118 139.977 167.327C140.446 167.245 140.528 167.193 140.931 167.382C140.225 167.533 139.64 167.679 138.946 167.874Z" fill="#3C4657"/>
<path d="M94.266 152.31C94.221 152.27 94.1304 152.124 94.0919 152.067C94.4473 151.31 95.0792 151.189 95.6927 151.77C95.1678 151.949 94.7727 152.089 94.266 152.31Z" fill="#3C4657"/>
</svg>
