<svg width="24" height="24" viewBox="0 0 24 24" fill="none" xmlns="http://www.w3.org/2000/svg">
<mask id="mask0_13579_34983" style="mask-type:alpha" maskUnits="userSpaceOnUse" x="0" y="0" width="24" height="24">
<rect width="24" height="24" fill="#D9D9D9"/>
</mask>
<g mask="url(#mask0_13579_34983)">
<path d="M9.7115 10.4423H10.827C11.0782 10.4423 11.2884 10.3577 11.4578 10.1885C11.6269 10.0192 11.7115 9.80892 11.7115 9.55775V8.44225C11.7115 8.19108 11.6269 7.98083 11.4578 7.8115C11.2884 7.64233 11.0782 7.55775 10.827 7.55775H9.26925C9.14875 7.55775 9.04492 7.60133 8.95775 7.6885C8.87058 7.77567 8.827 7.8795 8.827 8V12C8.827 12.1205 8.87058 12.2243 8.95775 12.3115C9.04492 12.3987 9.14875 12.4423 9.26925 12.4423C9.38975 12.4423 9.49358 12.3987 9.58075 12.3115C9.66792 12.2243 9.7115 12.1205 9.7115 12V10.4423ZM9.7115 9.55775V8.44225H10.827V9.55775H9.7115ZM14.6923 12.4423C14.9436 12.4423 15.1538 12.3577 15.323 12.1885C15.4923 12.0192 15.577 11.8089 15.577 11.5577V8.44225C15.577 8.19108 15.4923 7.98083 15.323 7.8115C15.1538 7.64233 14.9436 7.55775 14.6923 7.55775H13.173C13.0525 7.55775 12.9487 7.60133 12.8615 7.6885C12.7743 7.77567 12.7308 7.8795 12.7308 8V12C12.7308 12.1205 12.7743 12.2243 12.8615 12.3115C12.9487 12.3987 13.0525 12.4423 13.173 12.4423H14.6923ZM13.6152 11.5577V8.44225H14.6923V11.5577H13.6152ZM17.577 10.4423H18.327C18.4475 10.4423 18.5513 10.3987 18.6385 10.3115C18.7257 10.2243 18.7693 10.1205 18.7693 10C18.7693 9.8795 18.7257 9.77567 18.6385 9.6885C18.5513 9.60133 18.4475 9.55775 18.327 9.55775H17.577V8.44225H18.327C18.4475 8.44225 18.5513 8.39867 18.6385 8.3115C18.7257 8.22433 18.7693 8.1205 18.7693 8C18.7693 7.8795 18.7257 7.77567 18.6385 7.6885C18.5513 7.60133 18.4475 7.55775 18.327 7.55775H17.1345C17.014 7.55775 16.9102 7.60133 16.823 7.6885C16.7358 7.77567 16.6923 7.8795 16.6923 8V12C16.6923 12.1205 16.7358 12.2243 16.823 12.3115C16.9102 12.3987 17.014 12.4423 17.1345 12.4423C17.255 12.4423 17.3588 12.3987 17.446 12.3115C17.5333 12.2243 17.577 12.1205 17.577 12V10.4423ZM8.05775 17.5C7.55258 17.5 7.125 17.325 6.775 16.975C6.425 16.625 6.25 16.1974 6.25 15.6923V4.30775C6.25 3.80258 6.425 3.375 6.775 3.025C7.125 2.675 7.55258 2.5 8.05775 2.5H19.4423C19.9474 2.5 20.375 2.675 20.725 3.025C21.075 3.375 21.25 3.80258 21.25 4.30775V15.6923C21.25 16.1974 21.075 16.625 20.725 16.975C20.375 17.325 19.9474 17.5 19.4423 17.5H8.05775ZM8.05775 16H19.4423C19.5193 16 19.5898 15.9679 19.6538 15.9038C19.7179 15.8398 19.75 15.7693 19.75 15.6923V4.30775C19.75 4.23075 19.7179 4.16025 19.6538 4.09625C19.5898 4.03208 19.5193 4 19.4423 4H8.05775C7.98075 4 7.91025 4.03208 7.84625 4.09625C7.78208 4.16025 7.75 4.23075 7.75 4.30775V15.6923C7.75 15.7693 7.78208 15.8398 7.84625 15.9038C7.91025 15.9679 7.98075 16 8.05775 16ZM4.55775 21C4.05258 21 3.625 20.825 3.275 20.475C2.925 20.125 2.75 19.6974 2.75 19.1923V7.05775C2.75 6.84492 2.82183 6.66667 2.9655 6.523C3.109 6.3795 3.28717 6.30775 3.5 6.30775C3.71283 6.30775 3.89108 6.3795 4.03475 6.523C4.17825 6.66667 4.25 6.84492 4.25 7.05775V19.1923C4.25 19.2693 4.28208 19.3398 4.34625 19.4038C4.41025 19.4679 4.48075 19.5 4.55775 19.5H16.6923C16.9051 19.5 17.0833 19.5718 17.227 19.7153C17.3705 19.8589 17.4423 20.0372 17.4423 20.25C17.4423 20.4628 17.3705 20.641 17.227 20.7845C17.0833 20.9282 16.9051 21 16.6923 21H4.55775Z" fill="#1C1B1F"/>
</g>
</svg>
